<svg xmlns="http://www.w3.org/2000/svg" xmlns:xlink="http://www.w3.org/1999/xlink" width="208" height="1360" viewBox="0 0 208 1360"><g fill="#666"><path d="M4.3 5.8v-5h16.3v21.7c0 3.8-1 6.7-3 8.6C15.6 33 13 34 9.9 34 6 34 2.7 32.7 0 30l3.2-4.4c2.2 2 4.3 3.1 6.4 3.1 1.5 0 2.7-.5 3.8-1.5 1-1 1.6-2.4 1.6-4.4v-17H4.3zM33.8 26.2l-3.3 7.5h-6L39.1.8h6l14.7 32.9h-6l-3.3-7.5H33.8zm14.4-5.1l-6-13.6L36.1 21h12.1zM64.5 33.7V.8h5.6v27.6h15.2v5.3H64.5zM115.1.8V6H97.2v8.7h16v4.9h-16v8.8h18.4v5.2h-24V.8h23.5zM150.3 29.1c-3.4 3.2-7.6 4.9-12.5 4.9-5 0-9.1-1.6-12.5-4.9-3.4-3.2-5.1-7.3-5.1-12.1s1.7-8.9 5.1-12.1c3.4-3.2 7.6-4.9 12.5-4.9 5 0 9.1 1.6 12.5 4.9 3.4 3.2 5.1 7.3 5.1 12.1s-1.7 8.9-5.1 12.1zm-4.1-20.5c-2.3-2.3-5.1-3.5-8.4-3.5-3.3 0-6.1 1.2-8.4 3.5-2.3 2.3-3.4 5.1-3.4 8.4 0 3.3 1.1 6.1 3.4 8.4 2.3 2.3 5.1 3.5 8.4 3.5 3.3 0 6.1-1.2 8.4-3.5 2.3-2.3 3.4-5.1 3.4-8.4 0-3.3-1.1-6.1-3.4-8.4z"/></g><path fill="#FFF" d="M7.3 151.1c-1.5-.6-2.7-1.5-3.8-2.6s-1.9-2.4-2.6-3.8-.9-3-.9-4.7.3-3.2.9-4.7 1.5-2.7 2.6-3.8 2.4-1.9 3.8-2.6 3-.9 4.7-.9 3.2.3 4.7.9 2.7 1.5 3.8 2.6 1.9 2.4 2.6 3.8.9 3 .9 4.7-.3 3.2-.9 4.7-1.5 2.7-2.6 3.8-2.4 1.9-3.8 2.6-3 .9-4.7.9-3.2-.3-4.7-.9zM7.2 140l6.2 6.2 1.7-1.7-4.5-4.5 4.5-4.5-1.7-1.7-6.2 6.2zM64.7 128.9c1.5.6 2.7 1.5 3.8 2.6s1.9 2.4 2.6 3.8.9 3 .9 4.7-.3 3.2-.9 4.7-1.5 2.7-2.6 3.8-2.4 1.9-3.8 2.6-3 .9-4.7.9-3.2-.3-4.7-.9-2.7-1.5-3.8-2.6-1.9-2.4-2.6-3.8-.9-3-.9-4.7.3-3.2.9-4.7 1.5-2.7 2.6-3.8 2.4-1.9 3.8-2.6 3-.9 4.7-.9 3.2.3 4.7.9zm.1 11.1l-6.2-6.2-1.7 1.7 4.5 4.5-4.5 4.5 1.7 1.7 6.2-6.2z"/><path d="M11.2 318L9 311.6 6.9 318H0l5.6 4.4-2.1 6.7 5.6-3.9 5.6 4-2.1-6.9 5.6-4.4h-7zm61.2 0l-2.1-6.4-2.1 6.4h-6.9l5.6 4.4-2.1 6.7 5.6-3.9 5.6 4-2.1-6.9 5.6-4.4h-7.1zm-40.8 0l-2.1-6.4-2.1 6.4h-6.9l5.6 4.4-2.1 6.7 5.6-3.9 5.6 4-2.1-6.9 5.6-4.4h-7.1zm20.4 0l-2.1-6.4-2.1 6.4h-6.9l5.6 4.4-2.1 6.7 5.6-3.9 5.6 4-2.1-6.9 5.6-4.4H52zm40.8 0l-2.1-6.4-2.1 6.4h-6.9l5.6 4.4-2.1 6.7 5.6-3.9 5.6 4-2.1-6.9 5.6-4.4h-7.1zm1.5 8.2l-3.5-3.2h.2v-6.7l1.1 2.7h4.5l-3.6 2.8 1.3 4.4zm87-8.2h-6.9l-2.1-6.4-2.1 6.4h-6.9l5.6 4.4-2.1 6.7 5.6-3.9 5.6 4-2.1-6.9 5.4-4.3zm-5.4 8.7l-3.7-2.6-3.7 2.6 1.4-4.7-3.6-3.1h4.5l1.4-4.3 1.4 4.3h4.5l-3.6 3.1 1.4 4.7zM154 318l-2.1-6.4-2.1 6.4h-6.9l5.6 4.4-2.1 6.7 5.6-3.9 5.6 4-2.1-6.9 5.6-4.4H154zm1.5 8.7l-3.7-2.6-3.7 2.6 1.4-4.7-3.6-3.1h4.5l1.4-4.3 1.4 4.3h4.5l-3.6 3.1 1.4 4.7zm-42.3-8.7l-2.1-6.4-2.1 6.4h-7l5.6 4.4-2.1 6.7 5.6-3.9 5.6 4-2.1-6.9 5.6-4.4h-7zm1.5 8.7l-3.7-2.6-3.7 2.6 1.4-4.7-3.6-3.1h4.5l1.4-4.3 1.4 4.3h4.5l-3.6 3.1 1.4 4.7zm18.9-8.7l-2.1-6.4-2.1 6.4h-6.9l5.6 4.4-2.1 6.7 5.6-3.9 5.6 4-2.1-6.9 5.6-4.4h-7.1zm1.5 8.7l-3.7-2.6-3.7 2.6 1.4-4.7-3.6-3.1h4.5l1.4-4.3 1.4 4.3h4.5l-3.6 3.1 1.4 4.7zM52 356l-2.1-6.4-2.1 6.4h-6.9l5.6 4.4-2.1 6.7 5.6-3.9 5.6 4-2.1-6.8 5.6-4.4H52zm20.4 0l-2.1-6.4-2.1 6.4h-6.9l5.6 4.4-2.1 6.7 5.6-3.9 5.6 4-2.1-6.8 5.6-4.4h-7.1zm20.4 0l-2.1-6.4-2.1 6.4h-6.9l5.6 4.4-2.1 6.7 5.6-3.9 5.6 4-2.1-6.8 5.6-4.4h-7.1zm-81.6 0L9 349.6 6.9 356H0l5.6 4.4-2.1 6.7 5.6-3.9 5.6 4-2.1-6.8 5.6-4.4h-7zm163.2 0l-2.1-6.4-2.1 6.4h-6.9l5.6 4.4-2.1 6.7 5.6-3.9 5.6 4-2.1-6.8 5.6-4.4h-7.1zm1.5 8.7l-3.7-2.6-3.7 2.6 1.4-4.7-3.6-3h4.5l1.4-4.3 1.4 4.3h4.5l-3.6 3 1.4 4.7zM31.6 356l-2.1-6.4-2.1 6.4h-6.9l5.6 4.4-2.1 6.7 5.6-3.9 5.6 4-2.1-6.8 5.6-4.4h-7.1zm122.4 0l-2.1-6.4-2.1 6.4h-6.9l5.6 4.4-2.1 6.7 5.6-3.9 5.6 4-2.1-6.8 5.6-4.4H154zm1.5 8.7l-3.7-2.6-3.7 2.6 1.4-4.7-3.6-3h4.5l1.4-4.3 1.4 4.3h4.5l-3.6 3 1.4 4.7zm-21.9-8.7l-2.1-6.4-2.1 6.4h-6.9l5.6 4.4-2.1 6.7 5.6-3.9 5.6 4-2.1-6.8 5.6-4.4h-7.1zm1.5 8.7l-3.7-2.6-3.7 2.6 1.4-4.7-3.6-3h4.5l1.4-4.3 1.4 4.3h4.5l-3.6 3 1.4 4.7zm-21.9-8.7l-2.1-6.4-2.1 6.4h-7l5.6 4.4-2.1 6.7 5.6-3.9 5.6 4-2.1-6.8 5.6-4.4h-7zm1.5 8.7l-3.7-2.6-3.7 2.6 1.4-4.7-3.6-3h4.5l1.4-4.3 1.4 4.3h4.5l-3.6 3 1.4 4.7zm87-8.7h-6.9l-2.1-6.4-2.1 6.4h-6.9l5.6 4.4-2.1 6.7 5.6-3.9 5.6 4-2.1-6.8 5.4-4.4zm-5.4 8.7l-3.7-2.6-3.7 2.6 1.4-4.7-3.6-3h4.5l1.4-4.3 1.4 4.3h4.5l-3.6 3 1.4 4.7z"/><path fill="#FFF" d="M11.2 238L9 231.6 6.9 238H0l5.6 4.6-2.1 6.7 5.6-3.8 5.6 4.1-2.1-7 5.6-4.5h-7zm61.2 0l-2.1-6.4-2.1 6.4h-6.9l5.6 4.6-2.1 6.7 5.6-3.8 5.6 4.1-2.1-7 5.6-4.5h-7.1zm-40.8 0l-2.1-6.4-2.1 6.4h-6.9l5.6 4.6-2.1 6.7 5.6-3.8 5.6 4.1-2.1-7 5.6-4.5h-7.1zm20.4 0l-2.1-6.4-2.1 6.4h-6.9l5.6 4.6-2.1 6.7 5.6-3.8 5.6 4.1-2.1-7 5.6-4.5H52zm40.8 0l-2.1-6.4-2.1 6.4h-6.9l5.6 4.6-2.1 6.7 5.6-3.8 5.6 4.1-2.1-7 5.6-4.5h-7.1zm1.5 8.3l-3.5-3.3h.2v-6.5l1.1 2.5h4.5l-3.6 2.8 1.3 4.5zm87-8.3h-6.9l-2.1-6.4-2.1 6.4h-6.9l5.6 4.6-2.1 6.7 5.6-3.8 5.6 4.1-2.1-7 5.4-4.6zm-5.4 9l-3.7-2.6-3.7 2.6 1.4-4.8-3.6-3.2h4.5l1.4-4.3 1.4 4.3h4.5l-3.6 3.2 1.4 4.8zm-21.9-9l-2.1-6.4-2.1 6.4h-6.9l5.6 4.6-2.1 6.7 5.6-3.8 5.6 4.1-2.1-7 5.6-4.5H154zm1.5 9l-3.7-2.6-3.7 2.6 1.4-4.8-3.6-3.2h4.5l1.4-4.3 1.4 4.3h4.5l-3.6 3.2 1.4 4.8zm-42.3-9l-2.1-6.4-2.1 6.4h-7l5.6 4.6-2.1 6.7 5.6-3.8 5.6 4.1-2.1-7 5.6-4.5h-7zm1.5 9l-3.7-2.6-3.7 2.6 1.4-4.8-3.6-3.2h4.5l1.4-4.3 1.4 4.3h4.5l-3.6 3.2 1.4 4.8zm18.9-9l-2.1-6.4-2.1 6.4h-6.9l5.6 4.6-2.1 6.7 5.6-3.8 5.6 4.1-2.1-7 5.6-4.5h-7.1zm1.5 9l-3.7-2.6-3.7 2.6 1.4-4.8-3.6-3.2h4.5l1.4-4.3 1.4 4.3h4.5l-3.6 3.2 1.4 4.8zM52 276l-2.1-6.4-2.1 6.4h-6.9l5.6 4.5-2.1 6.7 5.6-3.9 5.6 4.1-2.1-6.9 5.6-4.5H52zm20.4 0l-2.1-6.4-2.1 6.4h-6.9l5.6 4.5-2.1 6.7 5.6-3.9 5.6 4.1-2.1-6.9 5.6-4.5h-7.1zm20.4 0l-2.1-6.4-2.1 6.4h-6.9l5.6 4.5-2.1 6.7 5.6-3.9 5.6 4.1-2.1-6.9 5.6-4.5h-7.1zm-81.6 0L9 269.6 6.9 276H0l5.6 4.5-2.1 6.7 5.6-3.9 5.6 4.1-2.1-6.9 5.6-4.5h-7zm163.2 0l-2.1-6.4-2.1 6.4h-6.9l5.6 4.5-2.1 6.7 5.6-3.9 5.6 4.1-2.1-6.9 5.6-4.5h-7.1zm1.5 8.9l-3.7-2.6-3.7 2.6 1.4-4.8-3.6-3.1h4.5l1.4-4.3 1.4 4.3h4.5l-3.6 3.1 1.4 4.8zM31.6 276l-2.1-6.4-2.1 6.4h-6.9l5.6 4.5-2.1 6.7 5.6-3.9 5.6 4.1-2.1-6.9 5.6-4.5h-7.1zm122.4 0l-2.1-6.4-2.1 6.4h-6.9l5.6 4.5-2.1 6.7 5.6-3.9 5.6 4.1-2.1-6.9 5.6-4.5H154zm1.5 8.9l-3.7-2.6-3.7 2.6 1.4-4.8-3.6-3.1h4.5l1.4-4.3 1.4 4.3h4.5l-3.6 3.1 1.4 4.8zm-21.9-8.9l-2.1-6.4-2.1 6.4h-6.9l5.6 4.5-2.1 6.7 5.6-3.9 5.6 4.1-2.1-6.9 5.6-4.5h-7.1zm1.5 8.9l-3.7-2.6-3.7 2.6 1.4-4.8-3.6-3.1h4.5l1.4-4.3 1.4 4.3h4.5l-3.6 3.1 1.4 4.8zm-21.9-8.9l-2.1-6.4-2.1 6.4h-7l5.6 4.5-2.1 6.7 5.6-3.9 5.6 4.1-2.1-6.9 5.6-4.5h-7zm1.5 8.9l-3.7-2.6-3.7 2.6 1.4-4.8-3.6-3.1h4.5l1.4-4.3 1.4 4.3h4.5l-3.6 3.1 1.4 4.8zm87-8.9h-6.9l-2.1-6.4-2.1 6.4h-6.9l5.6 4.5-2.1 6.7 5.6-3.9 5.6 4.1-2.1-6.9 5.4-4.5zm-5.4 8.9l-3.7-2.6-3.7 2.6 1.4-4.8-3.6-3.1h4.5l1.4-4.3 1.4 4.3h4.5l-3.6 3.1 1.4 4.8z"/><path fill="#D4145A" d="M33.2 851.8l5.6 17.2L24 858.3 9.2 868.9l5.6-17.2L0 841.2h18.3L24 824l5.7 17.2H48l-14.8 10.6zM0 1004l31.2 18L0 1040M30.6 938.6L0 914v39.3l9.9-9.5L18 960l7.2-3.4-8.1-16.2"/><path fill="#FFF" d="M124.6 469.6l-.4-.1c-1.3-.4-2.1-.7-2.1-1.4 0-.6.7-1.1 1.7-1.1 1.6 0 2.3.9 2.7 1.8l.9-.1c-.2-.9-.4-1.5-.4-2-.3-.1-.6-.1-1-.2-.6-.1-1.2-.2-1.8-.2-3.1 0-4.8 1.2-4.8 2.6 0 1.4 1.9 2 3.5 2.5l.3.1c1.2.4 2 .8 2 1.5 0 .8-.8 1.3-1.8 1.3-2 0-3.1-1.4-3.5-2.2l-.9.2c.2.8.4 1.4.6 2-.7-.1-1.1-.2-2.1-1.1-1.3-1.1-2.6-2.3-3.8-3.5.8-.6 1.7-1.3 2.8-2 1-.7 1.6-.7 2.6-.8v-1h-5v1l.7.1c.5 0 .3.3.1.5-1.2 1-2.8 1.9-3.8 3v-2c0-1.4 0-1.5 1-1.6v-1h-6v1c2 .1 2 .2 2 1.6v4.2c0 1.3-.3 1.5-1.3 1.5-.2-.1-.5-.2-.7-.4-.3-.3-.8-.7-1.5-1.4-.6-.6-1.3-1.5-1.6-1.8 1.5-.4 2.6-1 2.6-2.2 0-.8-.6-1.6-1.4-1.9-.8-.3-1.8-.7-3.4-.7H94v1c2 .1 2 .2 2 1.6v1.9c0-2.5-2.8-4.2-6.5-4.2-3.3 0-5.4 1.2-6.3 2.6.9-1.7 1.7-2.7 1.8-2.9 1-1.5 1-1.6 3-1.7v-.1h-7v.3l1 .1c1.2.1 1.2.2.9 1.2-.4 1-1.5 3.4-2.5 5.4h-.1l-4.3-7h-2l-3.7 7h-.1l-2.7-5.7c-.3-.7-.4-.8.7-.9h.8v-.4h-9v.3c2 .1 2-.1 2.8 1.4l.5.3h-3.9l-3 5.1-3.5-5.1H48v1c2 .1 1.8.2 1.7 1.8l-.2 2.6c-.1 1.2-.2 1.8-.3 2.2 0 .1-.1.2-.1.3-.2-.2-.4-.5-.7-.9-.8-1.3-1.6-2.8-2.5-4.3l-1.4-2.4-1.4.2-3.9 6.5c-.4.4-.8.7-1.1.8-.4.3-1.3.4-2.1.4-.6 0-1.2 0-1.6-.1-.4-.1-.6-.4-.6-1.1v-2h1.3c1.7 0 1.8 0 2 1h.9v-3h-.7c-.2 1-.3 1-2 1H34v-2.4c0-.4.4-.6 1.1-.6h.3c1.1 0 1.7.1 2 .4.3.2.5.6.7 1.2l.9-.3c-.1-1-.2-1.3-.2-2.3H29v1c2 .1 2 .2 2 1.6v4.2c0 1.2-.1 1.4-1.1 1.5-.2-.1-.4-.2-.5-.3-.3-.3-.8-.7-1.4-1.4-.6-.6-1.3-1.5-1.6-1.8 1.5-.4 2.6-1 2.6-2.2 0-.8-.6-1.6-1.4-1.9-.8-.3-1.8-.7-3.4-.7h-5.8c-.4 0-1-.5-1.5-.9-2-1.1-4.9-1.1-8.4-1.1H0v.3c2 .1 2 .2 2 2.1v5.7c0 1.8.1 2-2 2.1v.9h7.3c5.8 0 10.7-1.5 11.7-4.8v2.6c0 1.4 0 1.5-1 1.6v.5h6v-.5c-1-.1-1-.2-1-1.6V471c.3.1.6.3.7.5.5.7 1.1 1.6 1.7 2.1.8.7 1.5 1.2 4.3 1.2l.9.1H42v-.7h-.6c-.9-.1-1-.3-.7-.9l.6-1.4h.3l1.2-3h.1l1.3 3h.4l.7 1.5c.3.5.2.7-.6.7l-.7.1v.7h9v-.7c-2-.1-1.9-.2-2-.7-.1-.4-.2-.9-.1-2l.1-2.5 3.6 6h1.1l3.8-7h.1v4.6c0 1.4.4 1.6-1.6 1.7v.5h6v-.5c-1-.1-1.3-.1-1.3-1.6l-.1-4.3c-.1-1.1.1-1.3 1-1.4l4.3 7.9H70l3.8-7h.1l4.2 7h2.2c1-2 1.9-3.9 2.7-5.4-.2.4-.2.8-.2 1.2 0 2.4 2.6 4.2 6.6 4.2 3.8 0 6.7-1.7 6.7-4.4v2.1c0 1.4 0 1.5-2 1.5v.7h7v-.7c-2-.1-2-.2-2-1.5v-5.1c0-.5.2-.6 1-.6s2 .5 2 1.7c0 .6-.3 1.3-1.1 1.7-.4.2-.9.4-1.5.4.4 0 .7.3.8.6.5.7 1.1 1.6 1.7 2.1.8.7 1.4 1.2 4.3 1.2h.9l.3-.1h5.7v-.5c-2-.1-2-.2-2-1.6V471c1.5 1 3.3 3 4.1 4h4.9v-.5c0 .1.5.2 1 .3.5.1 1.3.2 2.1.2 3.1 0 5-1.2 5-2.7-.2-1.5-1.8-2.2-3.7-2.7zM9 473.9c-1.4 0-2-.3-2-1.8v-6.6c0-.4.1-.8.2-.9.2-.1.6-.1 1.2-.1 2.4 0 5.5 1 5.5 4.7.1 3.1-2.4 4.7-4.9 4.7zm9.5-6.8c.5.1.5.3.5.9-.1-.3-.3-.6-.5-.9zm5.9 3.5c-.4.2-.8.4-1.4.4v-3.3c0-.5-.1-.6.7-.6.8 0 1.9.5 1.9 1.7 0 .7-.4 1.4-1.2 1.8zm65.2 3.7c-2 0-3.3-1.7-3.3-4 0-2.2 1.3-3.4 2.8-3.4 1.7 0 3.1 1.4 3.1 4 .1 2.4-.8 3.4-2.6 3.4zM37 424.7c5 1.1 14.8 8.3 20 14.3-.1.1-.2.4.2.6.4.2.3.2.6.7.4.7.3.9.9.9.4.6.7 1.2 1 1.8-.1 0-.2.1-.3.1-.1.1-.2.2-.3.4-.1.2.3.2.4.4.1.3.1.5.3.9.1.3.3.3.7.2.1.2.2.4.2.5 0 .1.7.2.5-.2-.1-.2-.1-.3-.2-.4.2-.1.3-.2.5-.2h.4c-.1.4-.3 1.2-.5 1.7-.5 0-.7 0-.7.2-.1.2-.2 1-.2 1.4 0 .5.2.4.5.5.5.2.5.1.5.2 0 .3-.1.6-.2.8-.5 1-.9 1.1-1.4 1.4-.5.3-1.2.5-1.6.7-.3.2-.5.3-.8.2-.4-.1-.3-.3-.5-.2-.5.3.1.8.1.8h.1c-2.4-.3-5-1.2-6.4-2.1 1.8 1.7 4.9 3.4 6.2 3.9 1.1.5 2.1.9 2.3 1h-.2s-.3.4-.6.7c-.3.3-.4.5-.2.6.2.1.4.2.8.5-.1.7-.6 1.6-.9 2.2-.3.6-.7 1.2-.9 1.5-.3.3-1 .9-1.4 1.3-.4.4-.9.8-1.2.8-.5.1-.7-.3-.8-.2-.3.5-.2.9.5 1 .2 0 .3.2.7.4.4.2 1 0 1.3-.1s1-.6 1.5-.9c.5-.3 1-.2 1.6-.3.5 0 .5-.9.4-1.3-.3-.6-.1-1.1.3-1.8.3-.7 1.1-1.5 1.1-1.5s.2-.1.6.2c.4.3.4-.2.9-.7.4-.4.8-.9.5-1.1-.3-.2-.2-.4-.2-.4s.1-.2.3-.4c11.6.2 18.2-7.2 19.3-8.8 5.6-7.6 5.9-15.8 2.3-23.6-3.7-8-13.5-14.4-24.4-11.9 6.5.7 13.3 5 16.2 11.2 1.9 4.2 2.3 8.4 1.5 12.7-.7 4-2.2 6.6-3.3 8.1.1-1-.1-2.5-.3-2.8-.1-2-1.4-2.8-1.9-2.8l.4-.8c-.3-.1-.9.2-.9.2v-.3c.6 0 .7-.4.7-.4 0 .1-.1.2-.1.2.7-.5.5-2.2.4-2.7-.3-1.1-.6-1.3-.9-1.3 0-.2.4-.4.6-.4-.1-.2-.5-.1-.6 0 .1-.3-.2-.7-.5-.7.7.2.3.9.3.9.3-.9-1.5-.8-2.6-.6-.6.1-2.9.9-3.1 2.9 0 0 .2-.3.3-.4-.1.2-.2.5 0 .9 0 0 .2-.4.5-.4-.1.2-.1.6.1.9.2.3.1.5 0 .6-.2.1-.3.3-.3.4 0 .1.2.2.3.2.1 0 .3.2.1.3 0 .1.1.2.2.2-.1.1 0 .3.1.3.2 0 .2.1.1.4-.1.2.1.5.5.3.1-.1.6-.4.6-.2 0 .1.1.7-.1.8-.2.1-.2.3-.4.4-.2.2-.2.4-.5.4-.3.1-.6.4-1.3.5-.7.1-.4.5-.8.3-.4-.5-.9-.7-1.5-.7-.9 0-1 .1-1.3.5-.5 0-2.7 0-3.1-.4 0-.2-.2-1-.7-1.2-.5-.2-.9-.8-.8-1.1-.4-.1-.6.2-.5.7-.1 0-.2.1-.3.1-5.1-5.9-15.7-14.3-21.7-15V465h1v-40.3zm32.1 18.6s.3.6.2 1.4c-.1.6 0 .7-.2 1-.5-.4-.9-1.5-1.3-2l1.3-.4zm-5.8 5.9s.5.1.9.2c.3.1.3.1.4 0 .1-.2.3-1.5.4-1.8.1-.2-.3-.2-.3-.2v-.4c0-.5.1-1.5.2-1.5.1-.1.3.8.3.8.3 1.3.7 2.4.9 2.7.2.3.2.4.2.4-.6.3-1.5.5-1.8.7-.3.1-.7.5-1.1.6-.3-.7-.1-1.5-.1-1.5zm-2.6-7.3c.8.4 1.5.5 1.7.6l-.2 1c-.3.1-.7.2-.8 0-.2-.3-.3-.2-.4-.4-.1-.2-.3-1.1-.7-.1-.2-1-.4-1-.7-1.5.3.1.7.2 1.1.4zM107.8 660.8c-1.8-2.5-3.5-4.9-5.3-7.4-.2-.3-.2-.6 0-.9 1.8-2.5 3.5-4.9 5.3-7.4.1-.1.2-.3.3-.5H102c-.6 0-1 .1-1.3.7-.6.9-1.3 1.8-1.9 2.8-.8-1.1-1.5-2.1-2.2-3.1-.2-.2-.3-.3-.6-.3h-6.5c.1.2.2.3.3.4 1.8 2.5 3.5 5 5.3 7.5.2.3.2.5 0 .7-.8 1.2-1.7 2.3-2.5 3.5-.1.2-.3.4-.5.6-.1-.2-.2-.4-.2-.5-1.6-4-3.2-7.9-4.8-11.9-.1-.3-.3-.4-.7-.4H81c-.4 0-.5.1-.7.5-1.5 3.7-2.9 7.4-4.4 11-.1.2 0 .3 0 .5h.1v-11.9h-5.6c-.1 0-.4.1-.5.3-1 1.3-2 2.6-2.9 3.9-.1.1-.2.3-.3.4-1.1-1.4-2.1-2.8-3.1-4.2-.2-.2-.4-.3-.7-.3h-4.8v11.6c-1-.1-.4-.2-.5-.4-1.5-3.6-3.1-7.3-4.5-10.9-.1-.3-.3-.4-.6-.4H47c-.4 0-.5.1-.7.4-1.2 3.1-2.5 6.1-3.7 9.2l-1.8 4.5c-.6-.9-1.2-1.7-1.8-2.5.1-.1.2-.1.3-.2 2.1-1.5 3-3.6 2.6-6.1-.4-2.5-1.8-4.2-4.3-5-1-.3-2.1-.4-3.2-.4-2.3-.1-4.7 0-7 0H27V661h6v-3.5c0 .1.2.2.2.4.7 1 1.4 2.1 2.1 3.1.1.2.3.3.5.3h10.4c.3 0 .4-.1.4-.4.1-.5.2-.9.4-1.4 0-.1.2-.3.3-.3h4.5c.1.5.3 1 .4 1.6.1.4.2.5.6.5h10v-6.6c1 1.6 2.4 3 3.5 4.6 1.1-1.5 2.3-3 3.3-4.4h.2v6.1h4c2.1 0 4.3.2 6.4.2.3 0 .5 0 .5-.3.1-.4.2-.7.3-1.1.1-.4.2-.5.7-.5H85c.9 0 .9 0 1.1.9.1.3.2.5.2.8.1.3.2.4.5.4h8.8c.3 0 .5-.1.7-.3.6-.9 1.3-1.9 2-2.8.1-.1.1-.2.2-.3.7 1 1.5 2 2.2 3.1.2.3.4.4.7.4h6.4c.2-.4.1-.5 0-.7zm-73.3-8.1H33v-3.3h2.1c.6.1 1 .5 1.1 1.1.3 1.4-.3 2.2-1.7 2.2zm13.9 2.3c.4-2 .7-2.8 1.1-4.1h.1c.4 1.3.7 2.1 1.1 4.1h-2.3zm34.2 0c.4-2 .7-2.8 1.1-4.1h.1c.4 1.3.7 2.1 1.1 4.1h-2.3zm-70.4-10c-.8 1.1-1.7 2.2-2.5 3.4l-.6.9c-.1-.2-.2-.3-.3-.4-.9-1.3-1.9-2.5-2.8-3.8-.2-.3-.4-.2-.7-.2-1.5 0-3 .2-4.5.2H0v16h6v-6.2h-.1c1.1 1.5 2.1 2.9 3.2 4.4 1.1-1.5 1.9-3 3-4.4 0 0-.1 0-.1.1v6.1h6v-16.3h-5.4c-.2-.1-.3 0-.4.2zm6.8 16h7v-16h-7v16zM63.5 743h.2c.2 0 .3.2.3.4.5-.4 1.1-.2 1.6-.4-.6-.2-1-.7-1.6-.7-.8 0 0 .7-.5.7zm3.4.3c-.1-.1-.2-.2-.4-.1l.1.3c.1 0 .3 0 .3-.2zM66 747v8.7l-1 .3h4.3l-.3-.3V753h.9l2 2.6-.6.4h4.5l-2.8-3.8c1.4-.6 2.3-1.6 2.3-3.1 0-1.7-1-3.1-3.9-3.1H65l1 1zm3 1h2c.7 0 1.3.6 1.3 1.4 0 .7-.7 1.6-1.7 1.6H69v-3zm-8.6 0l.6 1v-3h-9.4l.4 1v8.7l-.4.3H61v-2.4l-.6.4H55v-2h3.5l.5 1v-3.3l-.5.3H55v-2h5.4zM72 766.1c1.7-1.7 1.1-2.1 2.2-2.7 1.2-.7 1.3.1 1.8-.5.9-1.2.6-1.1 1-1.9l.3-.4s.6-.5.4-.8c-.2-.3 0-.7 0-.7H62.3l1.7 1.5c.4.1.9.5 1.1 1.1.5 1.4-.2.3-.2 2.3 0 1.9-.5 1.6-.5 1.6s-.1 2.2-1.3 3.6c-.7.7-.2 1.4-.2 1.4s-.2.1-.6 1.8c-.1.5.6 1.3 1.1 1.1.4-.1-1.1-.3.6-1 .6-.3.1-.8.1-.8s1.1-.1 1.7-1.7c1 .2.7-.5 2.8-1 .6-.1.7-.3.6-.8-.1-.5.7.1 2.8-2.1zm-21.9-38.9l-.2.2c-.8.5-.5 1-.9 1.1-.7.2-1.4 2.2-1.4 2.2s.4.3-.9 1.7c-1.1 1.2-1.4 3-1.4 3s.7 1.3.6 2.7c-.1 1.1-.1.3.3 1.1.3.5.6 2.1.8 1.5.4-1.2-.7-2.4-.5-3.6 0 .2.4-.5.4.1 0 1.5 1.9 4.4 1.9 4.4s-.7.7 0 .7l-.2.4s.5.1.9.4c.4.3.7.8 1 .8H56s.4-1.8.7-2.1c.3-.3-.6-.1-.9-.3-.3-.3-.5.2-.6.5-.1.3-.3.8-.7.9-.4.1-1.4.2-1.7.2-.2 0-.8-1.2-.8-1.2-.6-.9-.1-2 .5-3.2.5-.8 1.7-1.2 2.8-.7 1.2-1 1.5.1 2.6-.4 1.4-.6.6 1.6 2 2.2.6-1.5-1.3-2.7-.1-3.4.8-.5 1.5-.8 1.8-1.5.5-1 .7-1.7 1.1-1.8.9-.3.7-1.1.7-1.1s.9.3 1.6-.4c-.6-.3-1.4-.6-1.1-1.1.2-.7 2.1.7 2.7-.4-1.1-.5-2.2-1.5-2.9-1.8-.5.5-.8.3-1.4-.2-1-.8-1.1 0-1.7-.6-.5 1 .3.9.5 1.2.7.7-.7-.6-.5 1.2 0 .5-.7.6-1.2-.5-.3-.5-2.4-.4-2.7-.9.3-.6 2.8-2.7 6.7-2.2-.1-.1-.3-.1-.4-.1 10.3 1.5 18.7 8.4 21.9 17.5-3.6-11.1-13.2-19.7-26.3-19.7-14.1 0-22.5 8.5-26.1 19.5 2.8-7.7 9.4-13.8 17.6-16.3zm11.7 15.2c.4-.2 1 .1 1 .1s1.1-.4.2-.3c-1 0-1-.8-1.6-.6-.7.1-.6-.6-1-.6s-.9-.2-1 .1c-.3.4.3-.2.9.4.9.7.8.2 1.3.7.2.1 0 .3.2.2zM30.4 756h4.3l-.8-.3V747l.8-1h-4.3l.6 1v8.7l-.6.3zm65.1-10l.4.7-4.5 9.3h3.7l-.6-.3.5-.7h4.9l.5.7-.6.3h4.3l-5-10h-3.6zm.2 7l1.7-3.7L99 753h-3.3zm-10.2-2.7c-1.2-.4-2.9-.7-2.9-1.5 0-.4.4-.7 1.2-.7 1.1 0 3.2.5 4.2 1.1v-3.4l-.7.8c-.9-.4-2.3-.7-3.3-.7-3.5 0-4.6 1.5-4.6 2.9 0 1.9 1.3 2.7 3.2 3.4 1.5.5 2.8.5 2.8 1.4 0 .7-1.1.8-1.5.8-1.1 0-3-.4-5-1.5v3.8l1-.9c.8.3 2.7.8 4.2.8 3 0 4.4-1.3 4.4-3.3.1-1.5-1.1-2.4-3-3zM37.3 746l4.8 10h2.1l4.8-10h-3.6l.6.9-2.6 5.7-2.5-5.7.6-.8h-4.2zm78 8H110v-7l1-1h-4.3l.3 1v8.7l-.3.3h9.3v-2.4l-.7.4zM8 747v5.6c0 1.3-.7 1.8-2 1.8s-2-.5-2-1.8V747l.3-1H0l1 1v5.7c0 2.8 1.5 3.9 5 3.9s5-1.1 5-3.9V747l.5-1H7.2l.8 1zm15 0v5.1l-4.8-6.1H15l1 1v8.7l-1 .3h3.6l-.6-.3v-5.2l5.5 5.6H26v-9l.4-1h-3.6l.2.9zm35.6 31.1c-12 0-22.3-7.3-26-17.5 3.6 10.9 12.6 19.4 26 19.4 12.6 0 22.6-8.6 26.1-19.6-3.6 10.3-13.9 17.7-26.1 17.7zM24.3 551c.5.1.8-.2 1.1-.4.8-.8 1.3-1.8 1.6-2.8.1-.6.1-1.3-.3-1.8-.4-.4-1.1-.2-1.5.1-.9 1.2-1.5 2.5-1.5 4.1 0 .4.3.6.6.8zm-9.8-.8l.1-.8 1.3-7.3 1.3-6.1c.3-1.4.7-2.9 1-4.3.3-.9.4-1.9 1.3-2.4.3-.1.6.1.8.3.7 1.4-.8 2.4-.6 3.7.1.3.4.5.8.5.9-.1 1.7-.3 2.4-1 .6-.8.3-2.1-.1-2.9-.2-.5-.5-.9-1-1.3-.9-.7-2.3-.9-3.4-.4-1.1.4-1.8 1.6-2.2 2.6-.7 2.4-1.3 4.8-1.9 7.3l-.9 4.4-.9 5-.3 1.7h-.1c-1.2-.5-2.7-.5-4.1-.4-2.1.3-4 1.2-5.8 2.4-.9.7-2.4 1.5-2.2 2.8.4.9 1.3 1.4 2.2 1.6.7.1 1.6.2 2.1-.5.4-.6-.3-1.1-.1-1.7 1.9-2 5.1-2.5 7.7-1.5l-.5 4.1-.4 4.4c-.4 5.8-.4 12 .9 17.3.6 1.5.6 3.6 2.5 4.1 1.6.1 2.8-1.2 3.9-2.4 2.8-3.8 3.8-8.3 4-13.2-.3-6.2-2-12.6-7.8-16zm2.2 24.1c-.3.6-.6 1.5-1.3 1.9-.2 0-.3-.2-.3-.3-1.2-4.6-1.4-9.7-1.3-14.8.1-2.6.3-5.2.6-7.8 2.4 1.8 3.4 4.5 3.9 7.3.9 4.7-.2 9.5-1.6 13.7zm88.1-17.2c-.4.1-.4.6-.6.8-.9 1.3-2.5 1.3-4 1.3-2.6-.2-4.9-1.1-7-2.5 1.3-1.1 2.3-2.4 3.4-3.6.7-.8 1.5-1.8 2.5-2 .6-.1 1.3 0 1.7-.4.1-.2 0-.4-.1-.6-.9-.5-1.9-.7-2.9-.8-1.8-.1-3 1.2-4.2 2.5-.9 1-1.4 2.2-2.2 3.3h-.1c-1.3-1.1-2.5-2.6-3.9-3.6-1-.3-2 .1-2.9.5-.4.3-1 .6-.9 1.2.3.5.9.4 1.4.4 1.9.5 3.2 2.3 4.8 3.5-.7.8-1.6 1.4-2.5 1.8-2 .9-4.5.4-6.1-1.2-1.3-1-1.4-2.6-2.6-3.7-.7-.2-1 .6-1.3 1-.8 1.4-2 2.8-3.4 3.8-.6.3-1.1.8-1.9.8-.3-.1-.3-.5-.3-.8.3-1.3.9-2.4 1.8-3.5 1.3-1.4 2.7-3.1 4.7-3.1.4.2.4.7.9.9.2 0 .5 0 .7-.1.3-.2.5-.6.4-.9-.3-1-1.3-1.5-2.2-1.6-2.1.1-3.9 1.1-5.5 2.3-1.7 1.3-2.9 3.1-3.5 5-.7.6-1.5 1.2-2.5 1-1.1-.9-1.8-2.1-2.5-3.2-.5-.8-.7-1.8-1.6-2.4-.3-.2-.8-.3-1.1-.1-1.6 1.2-3 2.7-4.3 4.3.2-1.7.6-3.3 1-4.9.1-.5.1-1 0-1.5s-.5-.9-.9-1c-1.5-.3-2.2 1.3-3.1 2.1l-4 4.7c-.1.1-.3.5-.5.2.2-1.2.3-2.4.5-3.6.1-.5.3-1 0-1.5-.1-.3-.4-.5-.7-.6-.4 0-.9-.1-1.2.1-2.6 2.1-4.3 5-6.5 7.4-.8.7-1.4 1.8-2.5 1.7-1.1-.3-1.5-1.5-2-2.4.7-1.6 1.2-3.2 1.6-4.9 1.2-5.2 2.2-11.4.7-16.8-.3-.8-.4-1.6-1-2.2-.2-.2-.4-.3-.7-.4-1.4-.2-2.2 1.3-2.7 2.2-1.3 3-1.9 6.4-2.1 9.9 0 4.5.4 8.9 2.4 12.7-.4 1.1-1.3 2.5-2.7 2.5-2.2 0-2.7-2.4-3.4-3.9-.3-1.2-.7-2.7-2.1-2.9-.6 0-1.1.2-1.5.6-1.2 1-2.1 2.2-2.9 3.4-.1.5.1.9.5 1.2.2 0 .4.1.6 0 .7-.7.8-1.7 1.6-2.4.1-.1.3-.1.4 0 .5 1.2.8 2.4 1.6 3.5.8 1.2 2 1.9 3.4 2 2.2.4 4.1-.9 5.3-2.7.5.4.9 1 1.5 1.2 1.4.6 3.3.5 4.5-.4 2.3-1.8 3.3-4.3 5.2-6.4-.5 1.9-1 3.7-1.4 5.6 0 .3-.1.8.1 1.1.2.4.6.6 1 .8.6.1 1.2-.2 1.7-.7.9-1.2 1.7-2.4 2.6-3.6l2.7-3.6 1-1.3v.6c-1 2-1.3 4-1.9 6.1 0 .6-.1 1.6.7 1.9.6.3 1.1-.1 1.5-.3 1.2-1 2.2-2.2 3.4-3.3.7-.6 1.3-1.3 2.2-1.4.8.6 1.2 1.5 1.7 2.3.7.9 1.5 2 2.7 2.1 1.4-.1 2.5-1 3.4-2h.1c.1 1 .1 1.4.5 1.8.5.9 1.5 1.1 2.4 1.2 2.6-.3 4.8-2.3 6.1-4.5.2.2.3.5.5.8 1.3 1.5 3 2.6 5 2.7 3 .1 5.6-1.1 8-2.7 1.2.8 2.4 1.4 3.7 1.9 3.1 1.3 7.3 1 10-.9.6-.4 1.5-.8 1.6-1.7-.4-.2-1.2-.3-1.8-.1zm-68.5-.9c-1.4-4.3-1.1-9.8.1-14.1.3-.9.5-1.9 1-2.7.3 0 .2.3.3.4.7 5.2 0 10.7-1.2 15.5 0 .4-.1.7-.2.9zM176 187c-.6.3-1.2.4-1.9.5.7-.4 1.2-1 1.4-1.8-.6.4-1.3.6-2.1.8-.6-.6-1.5-1-2.4-1-1.8 0-3.3 1.5-3.3 3.3 0 .3 0 .5.1.7-2.7-.1-5.1-1.4-6.8-3.4-.3.5-.4 1-.4 1.7 0 1.1.6 2.1 1.5 2.7-.5 0-1-.2-1.5-.4 0 1.6 1.1 2.9 2.6 3.2-.3.1-.6.1-.9.1-.2 0-.4 0-.6-.1.4 1.3 1.6 2.3 3.1 2.3-1.1.9-2.5 1.4-4.1 1.4h-.8c1.5.9 3.2 1.5 5 1.5 6 0 9.3-5 9.3-9.3v-.4c.8-.5 1.4-1.1 1.8-1.8zM143.1 184h-14.2c-.5 0-.9.4-.9.9v14.2c0 .5.4.9.9.9h7.7v-6.2h-2.1v-2.4h2.1v-1.8c0-2.1 1.3-3.2 3.1-3.2.9 0 1.6.1 1.9.1v2.2h-1.3c-1 0-1.2.5-1.2 1.2v1.5h2.4l-.3 2.4H139v6.2h4.1c.5 0 .9-.4.9-.9v-14.2c0-.5-.4-.9-.9-.9zM200 184c-4.4 0-8 3.6-8 8 0 3.4 2.1 6.3 5.1 7.4-.1-.6-.1-1.6 0-2.3.1-.6.9-4 .9-4s-.2-.5-.2-1.2c0-1.1.6-1.9 1.4-1.9.7 0 1 .5 1 1.1 0 .7-.4 1.7-.7 2.7-.2.8.4 1.4 1.2 1.4 1.4 0 2.5-1.5 2.5-3.7 0-1.9-1.4-3.3-3.3-3.3-2.3 0-3.6 1.7-3.6 3.5 0 .7.3 1.4.6 1.8.1.1.1.1.1.2-.1.3-.2.8-.2.9 0 .1-.1.2-.3.1-1-.5-1.6-1.9-1.6-3.1 0-2.5 1.8-4.8 5.3-4.8 2.8 0 4.9 2 4.9 4.6 0 2.8-1.7 5-4.2 5-.8 0-1.6-.4-1.8-.9 0 0-.4 1.5-.5 1.9-.2.7-.7 1.6-1 2.1.7.2 1.5.4 2.4.4 4.4 0 8-3.6 8-8 0-4.3-3.6-7.9-8-7.9z"/><g fill="#FFF"><path d="M3 68.1v-3.5h11.5v15.3c0 2.7-.7 4.7-2.1 6.1S9.2 88 7 88c-2.7 0-5.1-1-7-2.9L2.3 82c1.5 1.4 3 2.2 4.5 2.2 1 0 1.9-.3 2.6-1s1.1-1.7 1.1-3.1v-12H3zM23.9 82.5l-2.4 5.3h-4.3l10.4-23.2h4.3l10.4 23.2H38l-2.4-5.3H23.9zM34 78.9l-4.3-9.6-4.3 9.6H34zM45.6 87.8V64.6h4v19.5h10.8v3.7H45.6zM81.2 64.6v3.7H68.6v6.1h11.3v3.5H68.6v6.2h13v3.7h-17V64.6h16.6zM106.1 84.6c-2.4 2.3-5.3 3.4-8.8 3.4-3.5 0-6.5-1.1-8.8-3.4-2.4-2.3-3.6-5.1-3.6-8.6 0-3.4 1.2-6.3 3.6-8.6 2.4-2.3 5.3-3.4 8.8-3.4 3.5 0 6.5 1.1 8.8 3.4 2.4 2.3 3.6 5.1 3.6 8.6 0 3.4-1.2 6.3-3.6 8.6zM103.2 70c-1.6-1.6-3.6-2.5-5.9-2.5-2.3 0-4.3.8-5.9 2.5-1.6 1.6-2.4 3.6-2.4 6s.8 4.3 2.4 6c1.6 1.6 3.6 2.5 5.9 2.5 2.3 0 4.3-.8 5.9-2.5 1.6-1.6 2.4-3.6 2.4-6s-.8-4.3-2.4-6z"/></g><path fill="#FFF" d="M11.8 193.8l4.4 4.4-1.8 1.8-4.4-4.4.3-.3-.5-.5c-.5.4-1.1.7-1.7.9-.6.2-1.3.3-2 .3-.8 0-1.6-.2-2.4-.5-.7-.3-1.4-.7-1.9-1.3-.6-.5-1-1.2-1.3-1.9-.3-.7-.5-1.5-.5-2.3 0-.8.2-1.6.5-2.3.3-.7.8-1.4 1.3-1.9.6-.5 1.2-1 1.9-1.3.7-.3 1.5-.5 2.4-.5s1.6.2 2.4.5 1.4.7 1.9 1.3c.6.5 1 1.2 1.3 1.9.3.7.5 1.5.5 2.3 0 .7-.1 1.3-.3 1.9-.2.6-.5 1.2-.9 1.7l.5.5.3-.3zm-4.1-.1c.5-.2.9-.5 1.3-.9s.7-.8.9-1.3c.2-.5.3-1 .3-1.5 0-.6-.1-1.1-.3-1.5-.2-.5-.5-.9-.9-1.3s-.8-.6-1.3-.9c-.5-.2-1-.3-1.6-.3s-1.1.1-1.6.3c-.5.2-.9.5-1.3.9s-.7.8-.9 1.3c-.2.5-.3 1-.3 1.5 0 .6.1 1.1.3 1.5.2.5.5.9.9 1.3s.8.6 1.3.9c.5.2 1 .3 1.6.3s1.1-.1 1.6-.3zM108 128c-6.6 0-12 5.4-12 12s5.4 12 12 12 12-5.4 12-12-5.4-12-12-12zm-4 18.3v-12.7l11 6.3-11 6.4zM40 199.5c-1.4-1.4-2.5-2.6-3.4-3.5-.9-.9-1.7-1.8-2.5-2.8-.8-.9-1.3-1.5-1.5-1.9-.2-.4-.4-.8-.5-1.3-.1-.5-.2-1-.2-1.5 0-.6.1-1.1.3-1.5.2-.4.5-.9.9-1.3s.8-.7 1.3-.9c.5-.2 1-.3 1.5-.3.8 0 1.5.2 2.2.7.7.4 1.3 1.2 1.9 2.3.6-1.1 1.2-1.9 1.9-2.3.7-.4 1.4-.7 2.2-.7.6 0 1.1.1 1.5.3.5.2.9.5 1.3.9s.7.8.9 1.3c.2.4.3.9.3 1.5 0 .5-.1 1-.2 1.5s-.3.9-.5 1.3-.7 1-1.5 1.9-1.7 1.8-2.5 2.8c-.9.9-2 2.1-3.4 3.5z"/><path fill="#D4145A" d="M72.7 187.9V184l6 6-6 6v-4c-7-.2-6.7 4.7-4.9 8-4.3-4.7-3.4-12.3 4.9-12.1z"/><path d="M18.9 1117.4c-.3-1.2-.9-2-2.2-2.3-.3-.1-.7-.2-.7-.3v-5.8c0-.3.8-.3.8-.6-.3-.3-.8-.2-.8-.5v-1.9c-2-.5-2.4-.4-3.5-.6-.2-.3-.3-.6-.4-.9-.1-1.3-.1-2.6.2-3.9.2-1.2.2-2.4.1-3.6-.1-.9-.2-1.8.1-2.7.4-1.2.4-2.4.4-3.6 0-1-.1-2.1-.2-3.1-.1-.6.1-1.2.6-1.5.5-.3.8-.8.8-1.4.1-.6.1-1.2.1-1.7 0-.7.1-1.4.2-2.1.1-.5.2-1.1.2-1.6s-.2-.9-.6-1.1c-.4-.2-.8-.4-1.2-.7-.5-.3-1-.5-1.4-.8-.3-.2-.4-.5-.4-.8 0-.2 0-.4.1-.6.1-.4.2-.8.2-1.2.1-.5.1-.9 0-1.4-.1-.6-.5-.9-1.1-1h-.7c-.6.1-1 .4-1 1 0 .5 0 .9.1 1.4.1.5.2 1 .2 1.5.1.4-.1.8-.5 1-.2.1-.4.3-.6.4-.6.4-1.3.7-1.9 1-.5.2-.7.6-.6 1.1 0 .4.1.8.2 1.1.1.3.1.7.2 1 .1.8.1 1.6.1 2.5 0 .9.3 1.7 1 2.2.5.3.6.8.6 1.3-.1.8-.2 1.5-.2 2.3-.1 1.4-.1 2.8.3 4.1.3 1 .3 2.1.2 3.2-.1 1-.1 2 0 3l.3 1.8c.1 1 .2 2.1 0 3.1 0 .2-.1.4-.1.6-1.2 0-2.3.1-3.3.5-.1.7 0 1.3-.1 2-.3.2-.7.2-1 .4 0 .3.6.3.6.5v5.8c0 .1-.4.1-.6.2-.4.2-.9.4-1.3.6-.2.1-.5.3-.6.5-.3.7-.6 1.5-.7 2.3l.4.4c.3.1.5.3.8.3 1.2.4 2.4.5 3.7.6.9.1 1.8.1 2.7.1.1 0 .1 0 .2.1h2.3c.2 0 .3-.1.5-.1 1-.1 2.1-.1 3.1-.2 1.1-.1 2.2-.3 3.2-.5.3-.1.6-.2.9-.4.2-.1.5-.3.5-.5v-.2c-.1.2-.1 0-.2-.3zM68.7 1116.8V1096l-.3-.3c-.2-.1-.4-.3-.6-.4-.2-.1-.4-.3-.4-.4 0-.2-.4-.6-.7-1-.3-.4-.6-.8-.6-.9 0-.2.7-.8 1.6-1.3.6-.4 1.1-.7 1.3-1 .4-.6.4-1.9.4-1.9H68c-1.2 0-1.1 0-1.1-.3 0-.2-.1-.4-.2-.5-.4-.1-.6-.8-.5-1.7v-.9l.7-.3c.4-.2.9-.5 1.1-.7.3-.2.5-.3.7-.3.3.1.6-.2 1.5-1.3.4-.5.4-.6.4-1.1-.1-.8-.1-3.5 0-4.2.1-.4 0-.7-.4-1.4-.2-.5-.4-1-.4-1.1s-.2-.3-.4-.6c-1.4-1.7-5.5-2.8-8.5-2.3-.4.1-.9.2-1 .3-.3.2-1 2-.9 2.5 0 .2-.1.4-.4.8-.5.7-.9 1.7-1.1 2.6-.1.4-.3.9-.4 1.2s-.3.5-.3.7c0 1.1 2.4 4 4.1 4.8l.8.4c.1.3.1.7 0 1.3-.1.5-.2.9-.3 1.1-.3.3-.5.4-.5.7 0 .3-.2.3-1.3.3h-1.2v.6c-.1 1 .3 1.6 1.8 2.4.8.5 1.5.9 1.5 1.2 0 .2-.3.5-.7 1-.3.3-.6.7-.6.9-.1.2-.3.5-.5.5-.2.1-.7.4-.9.6l-.1 20.9-2.7 1.6v1.6h15.4v-1.6l-2.9-1.7zm.7-33.6c-.8.9-.8.9-1.3.1-.3-.5-.2-.8.5-1.4.5-.5.7-.6.8-.5.1.1.2.2.2.3 0 .1.2.3.3.4.3.2.1.3-.5 1.1zm.8-1.2c-.1 0-.1-.1-.1-.1s0-.3.1-.3 0 .1 0 .2v.2zm-10.3-9.3c.5-.4 3-.5 4.2-.3.3.1.8.2 1.2.3 1.5.3 2.7.9 3.5 1.7.5.5.5.7.3 1.1l-.2.2s-.4-.3-.9-.7c-1.1-1.1-3-1.8-4.6-1.8-.6 0-2.1.3-2.3.5-.2.2-.6.1-.6-.1.1-.3-.1-.5-.5-.5-.3-.1-.3-.2-.1-.4zm-.6 1.3c.2-.7.5-.9.8-.6.1.1-.1 1-.4 1.3-.2.2-.2.2-.5 0-.1 0-.1-.1.1-.7zm.4 1.2c.1 0 .3-.2.5-.5.2-.4.4-.5 1.2-.8.8-.3 1.2-.3 2.2-.3 1 0 1.2 0 1.3.2 0 .1.2.2.3.2.3 0 .3.3 0 .3s-1.4.9-1.4 1.2c0 .1-.2.3-.4.5s-.4.5-.4.7c.2.8-.1.8-.3.2-.1-.2-1.1-.3-1.7.2-.2.2-.4.5-.3.9.1.3.1.6.5.6.3 0 .4 0 .4-.1s.1-.3.1-.3c.1 0 .2.2.1.4 0 .2.1.3.3.3.2 0 .4.1.4.3.1.2.2.4.4.4.1 0 .3.1.3.2 0 .2-.7.1-.7-.1-.1-.3-.5-.5-1.5-.7-.7-.1-1.7-.8-1.7-1 0-.1-.1-.3-.3-.6-.1-.3-.3-.6-.3-.8s-.1-.2-.2-.2-.2-.1-.2-.1c.2-.3 1.1-1.1 1.4-1.1zm-2.6 5.3c-.1 0-.1-.1-.1-.3s.1-.3.1-.3.1.1.1.3 0 .3-.1.3zm1.4 2.2c-.5-.6-.9-1-1.2-1.7.4-.2.8-.1 1.7-.1 1.7 0 2-.1 3.7-.6 1.3-.4 3.2-1.4 4.4-2.3.9-.7 1.3-1.1 1.9-1.9.4-.6.6-.7.6-.3 0 .1 0 .3.1.3s.2.2.3.6c.2.5.2.6 0 1.1-.7 1.7-4.9 4.2-8.4 5-.8.1-2.7.2-3.1-.1zm7.3 1.6c0-.3-.1-.6-.1-.6s-.1-.2-.1-.3c0-.2-.3-.5-.6-.5-.2 0-.8-.6-.8-.7l.1-.1c.2 0 2.2-1 3.1-1.6.6-.4.8-.4 1-.3.3.1.3.2.4.6 0 .4 0 .5-.5 1-.6.6-.7.9-.4 1.7.2.5.1.5-1 1.2-1 .5-1.1.5-1.1-.4z"/><path fill="#D4145A" d="M107 195h-6v-6h3l1-1h-5v8h8v-5l-1 1v3zm-.7-9l1.5 1.5-5.2 5.2.7.7 5.2-5.2 1.5 1.5V186h-3.7z"/><path fill="#FFF" d="M144 145h22v3h-22zM144 138h22v3h-22zM144 131h22v3h-22z"/><path fill="#CFCFCF" d="M199 1154h-40c-1.7 0-3 1.3-3 3v24c0 1.7 1.3 3 3 3h40c1.7 0 3-1.3 3-3v-24c0-1.7-1.3-3-3-3z"/><path fill="#0DA6E0" d="M150 1181c0 1.7-1.3 3-3 3h-40c-1.7 0-3-1.3-3-3v-24c0-1.7 1.3-3 3-3h40c1.7 0 3 1.3 3 3v24z"/><path fill="#006" d="M95 1154H55c-1.7 0-3 1.3-3 3v24c0 1.7 1.3 3 3 3h40c1.7 0 3-1.3 3-3v-24c0-1.7-1.3-3-3-3z"/><path opacity=".9" fill="#FFF" d="M111.3 1164.8l-.8-2-.8 2m19.1-.8c-.2.1-.4.1-.6.1h-1.4v-1.1h1.4c.2 0 .4 0 .6.1.1.1.2.2.2.4.1.3 0 .5-.2.5m10.1.8l-.8-2-.8 2h1.6zm-18.8 2.2H119v-3.9l-1.7 3.9h-1l-1.7-3.9v3.9h-2.4l-.4-1.1h-2.4l-.4 1.1h-1.3l2.1-5h1.7l2 4.8v-4.8h1.9l1.5 3.4 1.4-3.4h1.9l-.1 5zm4.8 0H121v-5h3.9v1h-2.7v.9h2.6v1h-2.6v1h2.7v1.1zm5.5-3.7c0 .8-.5 1.2-.8 1.3.3.1.5.3.6.4.2.3.2.5.2.9v1h-1.2v-.6c0-.3 0-.7-.2-1-.2-.2-.4-.2-.8-.2H127v1.9h-1.2v-5h2.7c.6 0 1 0 1.4.2.2.3.5.6.5 1.1m1.8 3.7H131v-5h1.2v5zm13.8 0h-1.7l-2.2-3.8v3.8h-2.4l-.5-1.1h-2.4l-.4 1.1H135c-.6 0-1.3-.1-1.7-.6-.4-.4-.6-1-.6-1.9 0-.8.1-1.4.6-2 .4-.4 1-.6 1.8-.6h1.1v1.1h-1.1c-.4 0-.7.1-.9.3-.2.2-.3.6-.3 1.1s.1.9.3 1.2c.2.2.5.3.8.3h.5l1.6-3.9h1.7l2 4.8v-4.8h1.8l2 3.5v-3.5h1.2l.2 5zm-38.4 1h2l.4-1.1h1l.5 1.1h3.9v-.8l.4.9h2l.3-.9v.8h9.7v-1.8h.2c.1 0 .2 0 .2.2v1.6h5v-.4c.4.2 1 .4 1.9.4h2.1l.4-1.1h1l.4 1.1h4.1v-1.1l.6 1.1h3.3v-7h-3.2v.8l-.5-.8H140v.8l-.4-.8h-4.5c-.8 0-1.4.1-1.9.4v-.4h-3.1v.4c-.3-.3-.8-.4-1.3-.4h-11.3l-.7 1.8-.8-1.8h-3.6v.8l-.4-.8h-3l-1.4 3.3-1.6 3.7h1.6zm39 5.2v-3.2h-2.8c-.6 0-1.1.2-1.4.4v-.4h-3.1c-.5 0-1.1.1-1.3.4v-.4h-5.5v.4c-.4-.3-1.2-.4-1.5-.4h-3.6v.4c-.3-.4-1.1-.4-1.6-.4h-4l-.9 1.1-.9-1.1h-6v7h5.9l1-1.1.9 1.1h3.6v-1.6h.4c.5 0 1.1 0 1.6-.2v1.8h3v-1.8h.1c.2 0 .2 0 .2.2v1.6h9.1c.6 0 1.2-.2 1.5-.4v.4h2.9c.6 0 1.2-.1 1.6-.3.7-.4 1.1-1.2 1.1-2.1.1-.5 0-1-.3-1.4zm-20.8 1.1h-1.4v1.7h-2.2l-1.4-1.7-1.4 1.7H115v-5h4.5l1.4 1.6 1.4-1.6h3.6c.9 0 1.9.3 1.9 1.7 0 1.3-1 1.6-2 1.6zm6.8-.2c.2.2.2.5.2.9v1h-1.1v-.6c0-.3 0-.7-.2-1-.2-.2-.4-.2-.8-.2h-1.2v1.8h-1.1v-5h2.6c.6 0 1 0 1.3.2.4.2.6.5.6 1.1 0 .8-.5 1.2-.8 1.3l.5.5zm4.6-2.1h-2.6v.9h2.6v1h-2.6v1h2.6v1h-3.7v-5h3.7v1.1zm2.8 4h-2.2v-1.1h2.2c.2 0 .4 0 .5-.1.1-.1.1-.2.1-.3s-.1-.3-.1-.3c-.1-.1-.2-.1-.4-.1-1 0-2.4 0-2.4-1.6 0-.7.4-1.5 1.6-1.5h2.2v1.1h-2c-.2 0-.3 0-.5.1-.1.1-.2.2-.2.4s.1.3.2.4c.1 0 .2.1.4.1h.6c.6 0 1 .1 1.3.4.2.2.3.6.3 1.1.2.9-.4 1.4-1.6 1.4zm5.8-.5c-.3.3-.8.5-1.4.5h-2.2v-1.1h2.1c.2 0 .4 0 .5-.1.1-.1.1-.2.1-.3s-.1-.3-.1-.3c-.1-.1-.2-.1-.4-.1-1 0-2.4 0-2.4-1.6 0-.7.4-1.5 1.6-1.5h2.2v1.1h-2c-.2 0-.3 0-.5.1-.1.1-.2.2-.2.4s.1.3.2.4c.1 0 .2.1.4.1h.6c.6 0 1 .1 1.3.4l.1.1v-.1c.2.3.3.6.3 1 .2.4 0 .7-.2 1zm-26.9-3.5l1.2 1.5-1.3 1.5H116v-1h2.5v-1H116v-1h2.9zm2.7 1.5l1.7-2v4l-1.7-2zm5-.8c0 .4-.3.7-.7.7h-1.4v-1.4h1.5c.3 0 .6.2.6.7zm5-.1c0 .2-.1.4-.2.5-.2.1-.3.1-.6.1h-1.4v-1.2h1.4c.2 0 .4 0 .5.1.2.1.3.3.3.5z"/><path fill="#FFF" d="M199 1155c1.1 0 2 .9 2 2v24c0 1.1-.9 2-2 2h-40c-1.1 0-2-.9-2-2v-24c0-1.1.9-2 2-2h40"/><linearGradient id="a" gradientUnits="userSpaceOnUse" x1="184.9" y1="1934.943" x2="184.9" y2="1915.614" gradientTransform="translate(0 -752)"><stop offset="0" stop-color="#FC6604"/><stop offset="1" stop-color="#EE7F00"/></linearGradient><path fill="url(#a)" d="M168.8 1183H199c1.1 0 2-.9 2-2v-15c-4.7 5.4-14.8 14-32.2 17z"/><path fill="#1A171B" d="M161.6 1159.7h-1.8v6.4h1.8c1 0 1.7-.2 2.3-.7.7-.6 1.2-1.5 1.2-2.5-.1-1.9-1.5-3.2-3.5-3.2zm1.5 4.8c-.4.4-.9.5-1.7.5h-.3v-4.2h.3c.8 0 1.3.1 1.7.5.4.4.7 1 .7 1.6s-.3 1.2-.7 1.6zm2.5-4.8h1.3v6.4h-1.3v-6.4zm4.3 2.4c-.8-.3-1-.5-1-.8 0-.4.4-.7.9-.7.4 0 .7.2 1 .5l.7-.9c-.5-.5-1.2-.7-1.9-.7-1.1 0-2 .8-2 1.8 0 .9.4 1.3 1.6 1.8.5.2.7.3.9.4.2.2.4.4.4.7 0 .5-.4.9-1 .9s-1.1-.3-1.4-.9l-.8.8c.6.8 1.3 1.2 2.2 1.2 1.3 0 2.2-.9 2.2-2.1.1-1-.3-1.4-1.8-2zm2.3.8c0 1.9 1.5 3.3 3.4 3.3.5 0 1-.1 1.6-.4v-1.5c-.5.5-.9.7-1.5.7-1.3 0-2.2-.9-2.2-2.2 0-1.2.9-2.2 2.1-2.2.6 0 1 .2 1.6.7v-1.5c-.6-.3-1-.4-1.5-.4-2 .1-3.5 1.6-3.5 3.5zm14.8 1.1l-1.7-4.3H184l2.7 6.6h.7l2.8-6.6h-1.4l-1.8 4.3zm3.7 2.1h3.5v-1.1H192v-1.7h2.2v-1.1H192v-1.4h2.3v-1.1h-3.5v6.4h-.1zm8.5-4.5c0-1.2-.8-1.9-2.3-1.9H195v6.4h1.2v-2.6h.2l1.7 2.6h1.5l-2-2.7c1.1-.2 1.6-.8 1.6-1.8zm-2.5 1h-.4v-1.9h.4c.8 0 1.2.3 1.2.9 0 .7-.4 1-1.2 1z"/><circle fill="#EF8600" cx="180.9" cy="1162.9" r="3.4"/><path opacity=".7" fill="#2D2D2C" d="M166.4 1172.8v-3.2l2.2 2.3v-2.1h.5v3.2l-2.2-2.3v2.1h-.5zm5.8-2.5H171v.7h1.2v.4H171v1h1.2v.4h-1.7v-3h1.7v.5zm2.2 0v2.6h-.4v-2.6h-.7v-.4h1.8v.4h-.7zm2.3-.5l.8 2 .8-2.2.8 2.2.8-2h.5l-1.4 3.2-.8-2.1-.8 2.1-1.3-3.2h.6zm4.6 1.5c0-.4.2-.8.5-1.1.3-.3.7-.5 1.1-.5.4 0 .8.2 1.1.5.3.3.5.7.5 1.1 0 .4-.2.8-.5 1.1-.3.3-.7.5-1.1.5-.4 0-.7-.1-1-.4-.5-.3-.6-.7-.6-1.2zm.4 0c0 .3.1.6.3.8.2.2.5.3.8.3.3 0 .6-.1.8-.3.2-.2.3-.5.3-.8 0-.3-.1-.6-.3-.8-.2-.2-.5-.3-.8-.3-.3 0-.6.1-.8.3-.2.2-.3.5-.3.8zm5.1.3l.9 1.3h-.6l-.9-1.2h-.1v1.2h-.5v-3h.5c.4 0 .7.1.9.2.2.2.3.4.3.7 0 .2-.1.4-.2.6.1 0-.1.1-.3.2zm-.6-.4c.5 0 .7-.2.7-.5s-.2-.5-.6-.5h-.2v1h.1zm3.3-.2l1.2-1.2h.6l-1.4 1.4 1.4 1.7h-.6l-1.1-1.3-.1.1v1.2h-.5v-3h.5v1.1z"/><path fill="#F90" d="M95 1169c0 6.6-5.4 12-12 12s-12-5.4-12-12 5.4-12 12-12c6.7 0 12 5.4 12 12z"/><path fill="#C00" d="M66.9 1157c-6.6 0-11.9 5.4-11.9 12s5.4 12 12 12c3.1 0 5.9-1.2 8.1-3.1.4-.4.8-.8 1.2-1.3h-2.5l-.9-1.2h4.2c.3-.4.5-.8.7-1.3h-5.6c-.2-.4-.4-.8-.5-1.3h6.6c.4-1.2.6-2.5.6-3.8 0-.9-.1-1.7-.3-2.6h-7.3c.1-.4.2-.8.3-1.3h6.6c-.1-.4-.3-.9-.5-1.3h-5.6c.2-.4.4-.9.7-1.3H77l-.9-1.3h-2.4l1.2-1.2c-2-1.8-4.8-3-8-3z"/><path fill="#FFF" d="M71.3 1172.1l.2-1.1h-.3c-.4 0-.5-.2-.5-.4l.4-2.2h.7l.2-1.2h-.6l.1-.7H70s-.8 4.2-.8 4.7c0 .8.4 1.1 1 1.1.6-.1.9-.2 1.1-.2zm.4-2.1c0 1.8 1.2 2.2 2.2 2.2.9 0 1.3-.2 1.3-.2l.2-1.2s-.7.3-1.4.3c-1.4 0-1.1-1-1.1-1h2.6s.2-.8.2-1.2c0-.8-.4-1.9-1.8-1.9-1.3 0-2.2 1.4-2.2 3zm2.2-1.8c.7 0 .6.8.6.9h-1.4c0-.1.1-.9.8-.9zm8.1 3.9l.2-1.4s-.6.3-1.1.3c-.9 0-1.3-.7-1.3-1.4 0-1.5.8-2.3 1.6-2.3.7 0 1.2.4 1.2.4l.2-1.4s-.8-.3-1.4-.3c-1.5 0-2.9 1.3-2.9 3.7 0 1.6.8 2.6 2.3 2.6.5-.1 1.2-.2 1.2-.2zm-17.8-5c-.9 0-1.5.3-1.5.3l-.2 1.1s.6-.2 1.4-.2c.5 0 .8.1.8.4v.3h-.5c-1.1 0-2.3.5-2.3 1.9 0 1.1.8 1.4 1.2 1.4.9 0 1.3-.6 1.3-.6v.5h1.1l.5-3.5c0-1.6-1.3-1.6-1.8-1.6zm.3 2.8c0 .2-.1 1.2-.9 1.2-.4 0-.5-.3-.5-.5 0-.3.2-.8 1.1-.8l.3.1zm2.7 2.3c.3 0 1.9.1 1.9-1.6 0-1.6-1.5-1.3-1.5-1.9 0-.3.2-.4.7-.4.2 0 .9.1.9.1l.2-1.1s-.4-.1-1.2-.1c-.9 0-1.9.4-1.9 1.7 0 1.5 1.6 1.3 1.6 1.9 0 .4-.4.4-.8.4-.6 0-1.1-.2-1.1-.2l-.2 1.1c0-.1.3.1 1.4.1zm25.4-6.2l-.3 1.7s-.5-.7-1.2-.7c-1.2 0-2.1 1.4-2.1 3 0 1 .5 2.1 1.6 2.1.8 0 1.2-.5 1.2-.5l-.1.5h1.2l1-6.1h-1.3zm-.6 3.4c0 .7-.3 1.6-1 1.6-.5 0-.7-.4-.7-1 0-1 .4-1.6 1-1.6.5-.1.7.2.7 1zm-34.7 2.7l.8-4.6.1 4.6h.9l1.6-4.6-.7 4.6h1.3l1-6.1h-2l-1.3 3.8v-3.8h-1.9l-1 6.1h1.2zm19.7 0c.4-2.1.4-3.8 1.3-3.5.2-.8.3-1.1.5-1.5h-.2c-.6 0-1 .8-1 .8l.1-.7h-1.2l-.8 5 1.3-.1zm7.9-5c-.9 0-1.5.3-1.5.3l-.2 1.1s.6-.2 1.4-.2c.5 0 .8.1.8.4v.3h-.5c-1.1 0-2.3.5-2.3 1.9 0 1.1.8 1.4 1.2 1.4.9 0 1.3-.6 1.3-.6v.5h1.1l.5-3.5c0-1.6-1.3-1.6-1.8-1.6zm.3 2.8c0 .2-.1 1.2-.9 1.2-.4 0-.5-.3-.5-.5 0-.3.2-.8 1.1-.8l.3.1zm2.5 2.2c.4-2.1.4-3.8 1.3-3.5.2-.8.3-1.1.5-1.5h-.2c-.6 0-1 .8-1 .8l.1-.7h-1.2l-.8 5 1.3-.1z"/><path fill="#CFCFCF" d="M43 1154H3c-1.7 0-3 1.3-3 3v24c0 1.6 1.3 3 3 3h40c1.7 0 3-1.4 3-3v-24c0-1.7-1.3-3-3-3z"/><path fill="#FFF" d="M43 1155c1.1 0 2 .9 2 2v24c0 1.1-.9 2-2 2H3c-1.1 0-2-.9-2-2v-24c0-1.1.9-2 2-2h40"/><path fill="#0F38AA" d="M16.9 1175l2-13h3.3l-2 13h-3.3zm15.1-12.5c-.6-.3-1.7-.5-2.9-.5-3.2 0-5.5 1.7-5.5 4.2 0 1.8 1.6 2.8 2.9 3.4s1.7 1 1.7 1.6c0 .8-1 1.2-1.9 1.2-1.3 0-2-.2-3.1-.7l-.4-.2-.5 2.8c.8.4 2.2.7 3.6.7 3.4 0 5.6-1.7 5.7-4.3 0-1.4-.9-2.5-2.7-3.4-1.1-.6-1.8-1-1.8-1.6 0-.5.6-1.1 1.9-1.1 1.1 0 1.8.2 2.4.5l.3.1c-.1.1.3-2.7.3-2.7zm6.2-.5c-.7 0-1.2.3-1.6 1.1l-4.4 11.9h3.2l.6-2h3.8l.4 2H43l-2.5-13h-2.3zm-1.4 8.4c.2-.7 1.2-3.6 1.2-3.6l.4-1.2.2 1.1.7 3.8-2.5-.1zm-26.4.5l-.3-1.8c-.6-2.1-2.4-4.3-4.4-5.5l2.8 11.3h3.3l5-13h-3.3c0 .1-3.1 9-3.1 9z"/><path fill="#FB9905" d="M2.3 1162v.2c4 1.1 6.7 3.8 7.8 6.9l-1.1-6c-.2-.8-.8-1.1-1.5-1.1H2.3z"/><path fill="#CFCFCF" d="M199 1218h-40c-1.7 0-3 1.4-3 3v24c0 1.6 1.3 3 3 3h40c1.7 0 3-1.4 3-3v-24c0-1.6-1.3-3-3-3z"/><path fill="#B3B3B3" d="M150 1245c0 1.6-1.3 3-3 3h-40c-1.7 0-3-1.4-3-3v-24c0-1.6 1.3-3 3-3h40c1.7 0 3 1.4 3 3v24z"/><path fill="#999" d="M95 1218H55c-1.7 0-3 1.3-3 3v24c0 1.6 1.3 3 3 3h40c1.7 0 3-1.4 3-3v-24c0-1.7-1.3-3-3-3z"/><path opacity=".9" fill="#FFF" d="M111.3 1228.8l-.8-2-.8 2m19.1-.8c-.2.1-.4.1-.6.1h-1.4v-1.1h1.4c.2 0 .4 0 .6.1.1.1.2.2.2.4.1.3 0 .5-.2.5m10.1.8l-.8-2-.8 2h1.6zm-18.8 2.2H119v-3.9l-1.7 3.9h-1l-1.7-3.9v3.9h-2.4l-.4-1.1h-2.4l-.4 1.1h-1.3l2.1-5h1.7l2 4.8v-4.8h1.9l1.5 3.4 1.4-3.4h1.9l-.1 5zm4.8 0H121v-5h3.9v1h-2.7v.9h2.6v1h-2.6v1h2.7v1.1zm5.5-3.7c0 .8-.5 1.2-.8 1.3.3.1.5.3.6.4.2.3.2.5.2.9v1h-1.2v-.6c0-.3 0-.7-.2-1-.2-.2-.4-.2-.8-.2H127v1.8h-1.2v-5h2.7c.6 0 1 0 1.4.2.2.4.5.7.5 1.2m1.8 3.7H131v-5h1.2v5zm13.8 0h-1.7l-2.2-3.8v3.8h-2.4l-.5-1.1h-2.4l-.4 1.1H135c-.6 0-1.3-.1-1.7-.6-.4-.4-.6-1-.6-1.9 0-.8.1-1.4.6-2 .4-.4 1-.6 1.8-.6h1.1v1.1h-1.1c-.4 0-.7.1-.9.3-.2.2-.3.6-.3 1.1s.1.9.3 1.2c.2.2.5.3.8.3h.5l1.6-3.9h1.7l2 4.8v-4.8h1.8l2 3.5v-3.5h1.2l.2 5zm-38.4 1h2l.4-1.1h1l.5 1.1h3.9v-.8l.4.9h2l.3-.9v.9h9.7v-1.8h.2c.1 0 .2 0 .2.2v1.6h5v-.4c.4.2 1 .4 1.9.4h2.1l.4-1.1h1l.4 1.1h4.1v-1.1l.6 1.1h3.3v-7h-3.2v.8l-.5-.8H140v.8l-.4-.8h-4.5c-.8 0-1.4.1-1.9.4v-.5h-3.1v.4c-.3-.3-.8-.4-1.3-.4h-11.3l-.7 1.8-.8-1.8h-3.6v.8l-.4-.8h-3l-1.4 3.3-1.6 3.7h1.6zm39 5.2v-3.2h-2.8c-.6 0-1.1.2-1.4.4v-.4h-3.1c-.5 0-1.1.1-1.3.4v-.4h-5.5v.4c-.4-.3-1.2-.4-1.5-.4h-3.6v.4c-.3-.4-1.1-.4-1.6-.4h-4l-.9 1.1-.9-1.1h-6v7h5.9l1-1.1.9 1.1h3.6v-1.6h.4c.5 0 1.1 0 1.6-.2v1.9h3v-1.8h.1c.2 0 .2 0 .2.2v1.6h9.1c.6 0 1.2-.2 1.5-.4v.4h2.9c.6 0 1.2-.1 1.6-.3.7-.4 1.1-1.2 1.1-2.1.1-.6 0-1.1-.3-1.5zm-20.8 1.1h-1.4v1.7h-2.2l-1.4-1.7-1.4 1.7H115v-5h4.5l1.4 1.6 1.4-1.6h3.6c.9 0 1.9.3 1.9 1.7 0 1.3-1 1.6-2 1.6zm6.8-.2c.2.2.2.5.2.9v1h-1.1v-.6c0-.3 0-.7-.2-1-.2-.2-.4-.2-.8-.2h-1.2v1.8h-1.1v-5h2.6c.6 0 1 0 1.3.2.4.2.6.5.6 1.1 0 .8-.5 1.2-.8 1.3l.5.5zm4.6-2.1h-2.6v.9h2.6v1h-2.6v1h2.6v1h-3.7v-5h3.7v1.1zm2.8 4h-2.2v-1.1h2.2c.2 0 .4 0 .5-.1.1-.1.1-.2.1-.3s-.1-.3-.1-.3c-.1-.1-.2-.1-.4-.1-1 0-2.4 0-2.4-1.6 0-.7.4-1.5 1.6-1.5h2.2v1.1h-2c-.2 0-.3 0-.5.1-.1.1-.2.2-.2.4s.1.3.2.4c.1 0 .2.1.4.1h.6c.6 0 1 .1 1.3.4.2.2.3.6.3 1.1.2.9-.4 1.4-1.6 1.4zm5.8-.5c-.3.3-.8.5-1.4.5h-2.2v-1.1h2.1c.2 0 .4 0 .5-.1.1-.1.1-.2.1-.3s-.1-.3-.1-.3c-.1-.1-.2-.1-.4-.1-1 0-2.4 0-2.4-1.6 0-.7.4-1.5 1.6-1.5h2.2v1.1h-2c-.2 0-.3 0-.5.1-.1.1-.2.2-.2.4s.1.3.2.4c.1 0 .2.1.4.1h.6c.6 0 1 .1 1.3.4l.1.1v-.1c.2.3.3.6.3 1 .2.4 0 .7-.2 1zm-26.9-3.5l1.2 1.5-1.3 1.5H116v-1h2.5v-1H116v-1h2.9zm2.7 1.5l1.7-2v4l-1.7-2zm5-.8c0 .4-.3.7-.7.7h-1.4v-1.4h1.5c.3 0 .6.2.6.7zm5-.1c0 .2-.1.4-.2.5-.2.1-.3.1-.6.1h-1.4v-1.2h1.4c.2 0 .4 0 .5.1.2.1.3.3.3.5z"/><path fill="#FFF" d="M199 1219c1.1 0 2 .9 2 2v24c0 1.1-.9 2-2 2h-40c-1.1 0-2-.9-2-2v-24c0-1.1.9-2 2-2h40"/><path fill="#B3B3B3" d="M168.8 1247H199c1.1 0 2-.9 2-2v-15c-4.7 5.4-14.8 14-32.2 17z"/><path fill="gray" d="M161.6 1223.7h-1.8v6.4h1.8c1 0 1.7-.2 2.3-.7.7-.6 1.2-1.5 1.2-2.5-.1-1.9-1.5-3.2-3.5-3.2zm1.5 4.8c-.4.4-.9.5-1.7.5h-.3v-4.2h.3c.8 0 1.3.1 1.7.5.4.4.7 1 .7 1.6s-.3 1.2-.7 1.6zm2.5-4.8h1.3v6.4h-1.3v-6.4zm4.3 2.4c-.8-.3-1-.5-1-.8 0-.4.4-.7.9-.7.4 0 .7.2 1 .5l.7-.9c-.5-.5-1.2-.7-1.9-.7-1.1 0-2 .8-2 1.8 0 .9.4 1.3 1.6 1.8.5.2.7.3.9.4.2.2.4.4.4.7 0 .5-.4.9-1 .9s-1.1-.3-1.4-.9l-.8.8c.6.8 1.3 1.2 2.2 1.2 1.3 0 2.2-.9 2.2-2.1.1-1-.3-1.4-1.8-2zm2.3.8c0 1.9 1.5 3.3 3.4 3.3.5 0 1-.1 1.6-.4v-1.5c-.5.5-.9.7-1.5.7-1.3 0-2.2-.9-2.2-2.2 0-1.2.9-2.2 2.1-2.2.6 0 1 .2 1.6.7v-1.5c-.6-.3-1-.4-1.5-.4-2 .1-3.5 1.6-3.5 3.5zm14.8 1.1l-1.7-4.3H184l2.7 6.6h.7l2.8-6.6h-1.4l-1.8 4.3zm3.7 2.1h3.5v-1.1H192v-1.7h2.2v-1.1H192v-1.4h2.3v-1.1h-3.5v6.4h-.1zm8.5-4.5c0-1.2-.8-1.9-2.3-1.9H195v6.4h1.2v-2.6h.2l1.7 2.6h1.5l-2-2.7c1.1-.2 1.6-.8 1.6-1.8zm-2.5 1h-.4v-1.9h.4c.8 0 1.2.3 1.2.9 0 .7-.4 1-1.2 1z"/><circle fill="#B3B3B3" cx="180.9" cy="1226.9" r="3.4"/><path opacity=".7" fill="#2D2D2C" d="M166.4 1236.8v-3.2l2.2 2.3v-2.1h.5v3.2l-2.2-2.3v2.1h-.5zm5.8-2.5H171v.7h1.2v.4H171v1h1.2v.4h-1.7v-3h1.7v.5zm2.2 0v2.6h-.4v-2.6h-.7v-.4h1.8v.4h-.7zm2.3-.5l.8 2 .8-2.2.8 2.2.8-2h.5l-1.4 3.2-.8-2.1-.8 2.1-1.3-3.2h.6zm4.6 1.5c0-.4.2-.8.5-1.1.3-.3.7-.5 1.1-.5.4 0 .8.2 1.1.5.3.3.5.7.5 1.1 0 .4-.2.8-.5 1.1-.3.3-.7.5-1.1.5-.4 0-.7-.1-1-.4-.5-.3-.6-.7-.6-1.2zm.4 0c0 .3.1.6.3.8.2.2.5.3.8.3.3 0 .6-.1.8-.3.2-.2.3-.5.3-.8 0-.3-.1-.6-.3-.8-.2-.2-.5-.3-.8-.3-.3 0-.6.1-.8.3-.2.2-.3.5-.3.8zm5.1.3l.9 1.3h-.6l-.9-1.2h-.1v1.2h-.5v-3h.5c.4 0 .7.1.9.2.2.2.3.4.3.7 0 .2-.1.4-.2.6.1 0-.1.1-.3.2zm-.6-.4c.5 0 .7-.2.7-.5s-.2-.5-.6-.5h-.2v1h.1zm3.3-.2l1.2-1.2h.6l-1.4 1.4 1.4 1.7h-.6l-1.1-1.3-.1.1v1.2h-.5v-3h.5v1.1z"/><path fill="#E6E6E6" d="M95 1233c0 6.6-5.4 12-12 12s-12-5.4-12-12 5.4-12 12-12c6.7 0 12 5.4 12 12z"/><path fill="#B3B3B3" d="M66.9 1221c-6.6 0-11.9 5.4-11.9 12s5.4 12 12 12c3.1 0 5.9-1.2 8.1-3.1.4-.4.8-.8 1.2-1.3h-2.5l-.9-1.2h4.2c.3-.4.5-.8.7-1.3h-5.6c-.2-.4-.4-.8-.5-1.3h6.6c.4-1.2.6-2.5.6-3.8 0-.9-.1-1.7-.3-2.6h-7.3c.1-.4.2-.8.3-1.3h6.6c-.1-.4-.3-.9-.5-1.3h-5.6c.2-.4.4-.9.7-1.3H77l-.9-1.3h-2.4l1.2-1.2c-2-1.8-4.8-3-8-3z"/><path fill="#FFF" d="M71.3 1236.1l.2-1.1h-.3c-.4 0-.5-.2-.5-.4l.4-2.2h.7l.2-1.2h-.6l.1-.7H70s-.8 4.2-.8 4.7c0 .8.4 1.1 1 1.1.6-.1.9-.2 1.1-.2zm.4-2.1c0 1.8 1.2 2.2 2.2 2.2.9 0 1.3-.2 1.3-.2l.2-1.2s-.7.3-1.4.3c-1.4 0-1.1-1-1.1-1h2.6s.2-.8.2-1.2c0-.8-.4-1.9-1.8-1.9-1.3 0-2.2 1.4-2.2 3zm2.2-1.8c.7 0 .6.8.6.9h-1.4c0-.1.1-.9.8-.9zm8.1 3.9l.2-1.4s-.6.3-1.1.3c-.9 0-1.3-.7-1.3-1.4 0-1.5.8-2.3 1.6-2.3.7 0 1.2.4 1.2.4l.2-1.4s-.8-.3-1.4-.3c-1.5 0-2.9 1.3-2.9 3.7 0 1.6.8 2.6 2.3 2.6.5-.1 1.2-.2 1.2-.2zm-17.8-5c-.9 0-1.5.3-1.5.3l-.2 1.1s.6-.2 1.4-.2c.5 0 .8.1.8.4v.3h-.5c-1.1 0-2.3.5-2.3 1.9 0 1.1.8 1.4 1.2 1.4.9 0 1.3-.6 1.3-.6v.5h1.1l.5-3.5c0-1.6-1.3-1.6-1.8-1.6zm.3 2.8c0 .2-.1 1.2-.9 1.2-.4 0-.5-.3-.5-.5 0-.3.2-.8 1.1-.8l.3.1zm2.7 2.3c.3 0 1.9.1 1.9-1.6 0-1.6-1.5-1.3-1.5-1.9 0-.3.2-.4.7-.4.2 0 .9.1.9.1l.2-1.1s-.4-.1-1.2-.1c-.9 0-1.9.4-1.9 1.7 0 1.5 1.6 1.3 1.6 1.9 0 .4-.4.4-.8.4-.6 0-1.1-.2-1.1-.2l-.2 1.1c0-.1.3.1 1.4.1zm25.4-6.2l-.3 1.7s-.5-.7-1.2-.7c-1.2 0-2.1 1.4-2.1 3 0 1 .5 2.1 1.6 2.1.8 0 1.2-.5 1.2-.5l-.1.5h1.2l1-6.1h-1.3zm-.6 3.4c0 .7-.3 1.6-1 1.6-.5 0-.7-.4-.7-1 0-1 .4-1.6 1-1.6.5-.1.7.2.7 1zm-34.7 2.7l.8-4.6.1 4.6h.9l1.6-4.6-.7 4.6h1.3l1-6.1h-2l-1.3 3.7v-3.7h-1.9l-1 6.1h1.2zm19.7 0c.4-2.1.4-3.8 1.3-3.5.2-.8.3-1.1.5-1.5h-.2c-.6 0-1 .8-1 .8l.1-.7h-1.2l-.8 5 1.3-.1zm7.9-5c-.9 0-1.5.3-1.5.3l-.2 1.1s.6-.2 1.4-.2c.5 0 .8.1.8.4v.3h-.5c-1.1 0-2.3.5-2.3 1.9 0 1.1.8 1.4 1.2 1.4.9 0 1.3-.6 1.3-.6v.5h1.1l.5-3.5c0-1.6-1.3-1.6-1.8-1.6zm.3 2.8c0 .2-.1 1.2-.9 1.2-.4 0-.5-.3-.5-.5 0-.3.2-.8 1.1-.8l.3.1zm2.5 2.2c.4-2.1.4-3.8 1.3-3.5.2-.8.3-1.1.5-1.5h-.2c-.6 0-1 .8-1 .8l.1-.7h-1.2l-.8 5 1.3-.1z"/><path fill="#CFCFCF" d="M43 1218H3c-1.7 0-3 1.3-3 3v24c0 1.7 1.3 3 3 3h40c1.7 0 3-1.3 3-3v-24c0-1.7-1.3-3-3-3z"/><path fill="#FFF" d="M43 1219c1.1 0 2 .9 2 2v24c0 1.1-.9 2-2 2H3c-1.1 0-2-.9-2-2v-24c0-1.1.9-2 2-2h40"/><path fill="#999" d="M16.9 1239l2-13h3.3l-2 13h-3.3zm15.1-12.5c-.6-.3-1.7-.5-2.9-.5-3.2 0-5.5 1.7-5.5 4.2 0 1.8 1.6 2.8 2.9 3.4s1.7 1 1.7 1.6c0 .8-1 1.2-1.9 1.2-1.3 0-2-.2-3.1-.7l-.4-.2-.5 2.8c.8.4 2.2.7 3.6.7 3.4 0 5.6-1.7 5.7-4.3 0-1.4-.9-2.5-2.7-3.4-1.1-.6-1.8-1-1.8-1.6 0-.5.6-1.1 1.9-1.1 1.1 0 1.8.2 2.4.5l.3.1c-.1.1.3-2.7.3-2.7zm6.2-.5c-.7 0-1.2.3-1.6 1.1l-4.4 11.9h3.2l.6-2h3.8l.4 2H43l-2.5-13h-2.3zm-1.4 8.4c.2-.7 1.2-3.6 1.2-3.6l.4-1.2.2 1.1.7 3.8-2.5-.1zm-26.4.5l-.3-1.8c-.6-2.1-2.4-4.3-4.4-5.5l2.8 11.3h3.3l5-13h-3.3c0 .1-3.1 9-3.1 9z"/><path fill="#CCC" d="M2.3 1226v.2c4 1.1 6.7 3.8 7.8 6.9l-1.1-6c-.2-.8-.8-1.1-1.5-1.1H2.3z"/><path opacity=".1" d="M0 1346.6v2.4l18.5-10.1L37 1349v-2.4l-18.5-10.1L0 1346.6z"/><linearGradient id="b" gradientUnits="userSpaceOnUse" x1="18.5" y1="-477.375" x2="18.5" y2="-482.75" gradientTransform="matrix(1 0 0 -1 0 802)"><stop offset="0" stop-color="#F0B424"/><stop offset="1" stop-color="#EEA800"/></linearGradient><path fill="url(#b)" d="M37 1346.6l-18.5-10.1L0 1346.6V1280h37v66.6z"/><path opacity=".35" fill="#FFF" d="M24.7 1311.5v-1.8c0-3.1-2.6-5.6-5.7-5.6s-5.7 2.5-5.7 5.6v1.8H12v11.5h14v-11.5h-1.3zm-4.8 8.5h-2.2l.6-3c-.3-.2-.6-.5-.6-.9 0-.6.5-1.1 1.1-1.1s1.1.5 1.1 1.1c0 .4-.2.7-.6.9l.6 3zm2.3-8.5h-6.4v-1.8c0-1.7 1.5-3.1 3.2-3.1s3.2 1.4 3.2 3.1v1.8z"/><path fill="#9F7000" d="M24.7 1310.5v-1.8c0-3.1-2.6-5.6-5.7-5.6s-5.7 2.5-5.7 5.6v1.8H12v11.5h14v-11.5h-1.3zm-2.5 0h-6.4v-1.8c0-1.7 1.5-3.1 3.2-3.1s3.2 1.4 3.2 3.1v1.8z"/><defs><path id="c" d="M24.7 1310.5v-1.8c0-3.1-2.6-5.6-5.7-5.6s-5.7 2.5-5.7 5.6v1.8H12v11.5h14v-11.5h-1.3zm-2.5 0h-6.4v-1.8c0-1.7 1.5-3.1 3.2-3.1s3.2 1.4 3.2 3.1v1.8z"/></defs><clipPath id="d"><use xlink:href="#c" overflow="visible"/></clipPath><path clip-path="url(#d)" fill="#C68C00" d="M24.7 1311.5v-1.8c0-3.1-2.6-5.6-5.7-5.6s-5.7 2.5-5.7 5.6v1.8H12v11.5h14v-11.5h-1.3zm-2.5 0h-6.4v-1.8c0-1.7 1.5-3.1 3.2-3.1s3.2 1.4 3.2 3.1v1.8z"/><path fill="#F6D233" d="M2 1338h1v5H2v-5zm0-10h1v5H2v-5zm0-10h1v5H2v-5zm0-10h1v5H2v-5zm0-10h1v5H2v-5zm0-10h1v5H2v-5zm0-8h1v3H2v-3zm32 58h1v5h-1v-5zm0-10h1v5h-1v-5zm0-10h1v5h-1v-5zm0-10h1v5h-1v-5zm0-10h1v5h-1v-5zm0-10h1v5h-1v-5zm0-8h1v3h-1v-3z"/><path opacity=".25" fill="#FFF" d="M19.9 1320h-2.2l.6-3c-.3-.2-.6-.5-.6-.9 0-.6.5-1.1 1.1-1.1s1.1.5 1.1 1.1c0 .4-.2.7-.6.9l.6 3z"/><path fill="#9F7000" d="M19.9 1319h-2.2l.6-3c-.3-.2-.6-.5-.6-.9 0-.6.5-1.1 1.1-1.1s1.1.5 1.1 1.1c0 .4-.2.7-.6.9l.6 3z"/></svg>