<?xml version="1.0" encoding="utf-8"?>
<!-- Generator: Adobe Illustrator 18.1.1, SVG Export Plug-In . SVG Version: 6.00 Build 0)  -->
<svg version="1.1" id="Capa_1" xmlns="http://www.w3.org/2000/svg" xmlns:xlink="http://www.w3.org/1999/xlink" x="0px" y="0px"
	 width="208px" height="1360px" viewBox="0 0 208 1360" enable-background="new 0 0 208 1360" xml:space="preserve">
<g>
	<path fill="#666666" d="M4.3,5.8v-5h16.3v21.7c0,3.8-1,6.7-3,8.6C15.6,33,13,34,9.9,34c-3.9,0-7.2-1.3-9.9-4l3.2-4.4
		c2.2,2,4.3,3.1,6.4,3.1c1.5,0,2.7-0.5,3.8-1.5c1-1,1.6-2.4,1.6-4.4v-17H4.3z"/>
	<path fill="#666666" d="M33.8,26.2l-3.3,7.5h-6L39.1,0.8h6l14.7,32.9h-6l-3.3-7.5H33.8z M48.2,21.1L42.2,7.5l-6.1,13.5H48.2z"/>
	<path fill="#666666" d="M64.5,33.7V0.8h5.6v27.6h15.2v5.3H64.5z"/>
	<path fill="#666666" d="M115.1,0.8V6H97.2v8.7h16v4.9h-16v8.8h18.4v5.2h-24V0.8H115.1z"/>
	<path fill="#666666" d="M150.3,29.1c-3.4,3.2-7.6,4.9-12.5,4.9c-5,0-9.1-1.6-12.5-4.9c-3.4-3.2-5.1-7.3-5.1-12.1s1.7-8.9,5.1-12.1
		c3.4-3.2,7.6-4.9,12.5-4.9c5,0,9.1,1.6,12.5,4.9c3.4,3.2,5.1,7.3,5.1,12.1S153.7,25.9,150.3,29.1z M146.2,8.6
		c-2.3-2.3-5.1-3.5-8.4-3.5c-3.3,0-6.1,1.2-8.4,3.5c-2.3,2.3-3.4,5.1-3.4,8.4c0,3.3,1.1,6.1,3.4,8.4c2.3,2.3,5.1,3.5,8.4,3.5
		c3.3,0,6.1-1.2,8.4-3.5c2.3-2.3,3.4-5.1,3.4-8.4C149.6,13.7,148.5,10.9,146.2,8.6z"/>
</g>
<g>
	<path fill="#FFFFFF" d="M7.3,151.1c-1.5-0.6-2.7-1.5-3.8-2.6s-1.9-2.4-2.6-3.8S0,141.7,0,140s0.3-3.2,0.9-4.7s1.5-2.7,2.6-3.8
		s2.4-1.9,3.8-2.6s3-0.9,4.7-0.9s3.2,0.3,4.7,0.9s2.7,1.5,3.8,2.6s1.9,2.4,2.6,3.8s0.9,3,0.9,4.7s-0.3,3.2-0.9,4.7s-1.5,2.7-2.6,3.8
		s-2.4,1.9-3.8,2.6s-3,0.9-4.7,0.9S8.8,151.7,7.3,151.1z M7.2,140l6.2,6.2l1.7-1.7l-4.5-4.5l4.5-4.5l-1.7-1.7L7.2,140z"/>
</g>
<g>
	<path fill="#FFFFFF" d="M64.7,128.9c1.5,0.6,2.7,1.5,3.8,2.6s1.9,2.4,2.6,3.8s0.9,3,0.9,4.7s-0.3,3.2-0.9,4.7s-1.5,2.7-2.6,3.8
		s-2.4,1.9-3.8,2.6s-3,0.9-4.7,0.9s-3.2-0.3-4.7-0.9s-2.7-1.5-3.8-2.6s-1.9-2.4-2.6-3.8s-0.9-3-0.9-4.7s0.3-3.2,0.9-4.7
		s1.5-2.7,2.6-3.8s2.4-1.9,3.8-2.6s3-0.9,4.7-0.9S63.2,128.3,64.7,128.9z M64.8,140l-6.2-6.2l-1.7,1.7l4.5,4.5l-4.5,4.5l1.7,1.7
		L64.8,140z"/>
</g>
<path d="M11.2,318L9,311.6L6.9,318H0l5.6,4.4l-2.1,6.7l5.6-3.9l5.6,4l-2.1-6.9l5.6-4.4H11.2z M72.4,318l-2.1-6.4l-2.1,6.4h-6.9
	l5.6,4.4l-2.1,6.7l5.6-3.9l5.6,4l-2.1-6.9l5.6-4.4H72.4z M31.6,318l-2.1-6.4l-2.1,6.4h-6.9l5.6,4.4l-2.1,6.7l5.6-3.9l5.6,4l-2.1-6.9
	l5.6-4.4H31.6z M52,318l-2.1-6.4l-2.1,6.4h-6.9l5.6,4.4l-2.1,6.7l5.6-3.9l5.6,4l-2.1-6.9l5.6-4.4H52z M92.8,318l-2.1-6.4l-2.1,6.4
	h-6.9l5.6,4.4l-2.1,6.7l5.6-3.9l5.6,4l-2.1-6.9l5.6-4.4H92.8z M94.3,326.2l-3.5-3.2H91v-6.7l1.1,2.7h4.5l-3.6,2.8L94.3,326.2z
	 M181.3,318h-6.9l-2.1-6.4l-2.1,6.4h-6.9l5.6,4.4l-2.1,6.7l5.6-3.9l5.6,4l-2.1-6.9L181.3,318z M175.9,326.7l-3.7-2.6l-3.7,2.6
	l1.4-4.7l-3.6-3.1h4.5l1.4-4.3l1.4,4.3h4.5l-3.6,3.1L175.9,326.7z M154,318l-2.1-6.4l-2.1,6.4h-6.9l5.6,4.4l-2.1,6.7l5.6-3.9l5.6,4
	l-2.1-6.9l5.6-4.4H154z M155.5,326.7l-3.7-2.6l-3.7,2.6l1.4-4.7l-3.6-3.1h4.5l1.4-4.3l1.4,4.3h4.5l-3.6,3.1L155.5,326.7z M113.2,318
	l-2.1-6.4l-2.1,6.4H102l5.6,4.4l-2.1,6.7l5.6-3.9l5.6,4l-2.1-6.9l5.6-4.4H113.2z M114.7,326.7l-3.7-2.6l-3.7,2.6l1.4-4.7l-3.6-3.1
	h4.5l1.4-4.3l1.4,4.3h4.5l-3.6,3.1L114.7,326.7z M133.6,318l-2.1-6.4l-2.1,6.4h-6.9l5.6,4.4l-2.1,6.7l5.6-3.9l5.6,4l-2.1-6.9
	l5.6-4.4H133.6z M135.1,326.7l-3.7-2.6l-3.7,2.6l1.4-4.7l-3.6-3.1h4.5l1.4-4.3l1.4,4.3h4.5l-3.6,3.1L135.1,326.7z"/>
<path d="M52,356l-2.1-6.4l-2.1,6.4h-6.9l5.6,4.4l-2.1,6.7l5.6-3.9l5.6,4l-2.1-6.8l5.6-4.4H52z M72.4,356l-2.1-6.4l-2.1,6.4h-6.9
	l5.6,4.4l-2.1,6.7l5.6-3.9l5.6,4l-2.1-6.8l5.6-4.4H72.4z M92.8,356l-2.1-6.4l-2.1,6.4h-6.9l5.6,4.4l-2.1,6.7l5.6-3.9l5.6,4l-2.1-6.8
	l5.6-4.4H92.8z M11.2,356L9,349.6L6.9,356H0l5.6,4.4l-2.1,6.7l5.6-3.9l5.6,4l-2.1-6.8l5.6-4.4H11.2z M174.4,356l-2.1-6.4l-2.1,6.4
	h-6.9l5.6,4.4l-2.1,6.7l5.6-3.9l5.6,4l-2.1-6.8l5.6-4.4H174.4z M175.9,364.7l-3.7-2.6l-3.7,2.6l1.4-4.7l-3.6-3h4.5l1.4-4.3l1.4,4.3
	h4.5l-3.6,3L175.9,364.7z M31.6,356l-2.1-6.4l-2.1,6.4h-6.9l5.6,4.4l-2.1,6.7l5.6-3.9l5.6,4l-2.1-6.8l5.6-4.4H31.6z M154,356
	l-2.1-6.4l-2.1,6.4h-6.9l5.6,4.4l-2.1,6.7l5.6-3.9l5.6,4l-2.1-6.8l5.6-4.4H154z M155.5,364.7l-3.7-2.6l-3.7,2.6l1.4-4.7l-3.6-3h4.5
	l1.4-4.3l1.4,4.3h4.5l-3.6,3L155.5,364.7z M133.6,356l-2.1-6.4l-2.1,6.4h-6.9l5.6,4.4l-2.1,6.7l5.6-3.9l5.6,4l-2.1-6.8l5.6-4.4
	H133.6z M135.1,364.7l-3.7-2.6l-3.7,2.6l1.4-4.7l-3.6-3h4.5l1.4-4.3l1.4,4.3h4.5l-3.6,3L135.1,364.7z M113.2,356l-2.1-6.4l-2.1,6.4
	H102l5.6,4.4l-2.1,6.7l5.6-3.9l5.6,4l-2.1-6.8l5.6-4.4H113.2z M114.7,364.7l-3.7-2.6l-3.7,2.6l1.4-4.7l-3.6-3h4.5l1.4-4.3l1.4,4.3
	h4.5l-3.6,3L114.7,364.7z M201.7,356h-6.9l-2.1-6.4l-2.1,6.4h-6.9l5.6,4.4l-2.1,6.7l5.6-3.9l5.6,4l-2.1-6.8L201.7,356z M196.3,364.7
	l-3.7-2.6l-3.7,2.6l1.4-4.7l-3.6-3h4.5l1.4-4.3l1.4,4.3h4.5l-3.6,3L196.3,364.7z"/>
<path fill="#FFFFFF" d="M11.2,238L9,231.6L6.9,238H0l5.6,4.6l-2.1,6.7l5.6-3.8l5.6,4.1l-2.1-7l5.6-4.5H11.2z M72.4,238l-2.1-6.4
	l-2.1,6.4h-6.9l5.6,4.6l-2.1,6.7l5.6-3.8l5.6,4.1l-2.1-7l5.6-4.5H72.4z M31.6,238l-2.1-6.4l-2.1,6.4h-6.9l5.6,4.6l-2.1,6.7l5.6-3.8
	l5.6,4.1l-2.1-7l5.6-4.5H31.6z M52,238l-2.1-6.4l-2.1,6.4h-6.9l5.6,4.6l-2.1,6.7l5.6-3.8l5.6,4.1l-2.1-7l5.6-4.5H52z M92.8,238
	l-2.1-6.4l-2.1,6.4h-6.9l5.6,4.6l-2.1,6.7l5.6-3.8l5.6,4.1l-2.1-7l5.6-4.5H92.8z M94.3,246.3l-3.5-3.3H91v-6.5l1.1,2.5h4.5l-3.6,2.8
	L94.3,246.3z M181.3,238h-6.9l-2.1-6.4l-2.1,6.4h-6.9l5.6,4.6l-2.1,6.7l5.6-3.8l5.6,4.1l-2.1-7L181.3,238z M175.9,247l-3.7-2.6
	l-3.7,2.6l1.4-4.8l-3.6-3.2h4.5l1.4-4.3l1.4,4.3h4.5l-3.6,3.2L175.9,247z M154,238l-2.1-6.4l-2.1,6.4h-6.9l5.6,4.6l-2.1,6.7l5.6-3.8
	l5.6,4.1l-2.1-7l5.6-4.5H154z M155.5,247l-3.7-2.6l-3.7,2.6l1.4-4.8l-3.6-3.2h4.5l1.4-4.3l1.4,4.3h4.5l-3.6,3.2L155.5,247z
	 M113.2,238l-2.1-6.4l-2.1,6.4H102l5.6,4.6l-2.1,6.7l5.6-3.8l5.6,4.1l-2.1-7l5.6-4.5H113.2z M114.7,247l-3.7-2.6l-3.7,2.6l1.4-4.8
	l-3.6-3.2h4.5l1.4-4.3l1.4,4.3h4.5l-3.6,3.2L114.7,247z M133.6,238l-2.1-6.4l-2.1,6.4h-6.9l5.6,4.6l-2.1,6.7l5.6-3.8l5.6,4.1l-2.1-7
	l5.6-4.5H133.6z M135.1,247l-3.7-2.6l-3.7,2.6l1.4-4.8l-3.6-3.2h4.5l1.4-4.3l1.4,4.3h4.5l-3.6,3.2L135.1,247z"/>
<path fill="#FFFFFF" d="M52,276l-2.1-6.4l-2.1,6.4h-6.9l5.6,4.5l-2.1,6.7l5.6-3.9l5.6,4.1l-2.1-6.9l5.6-4.5H52z M72.4,276l-2.1-6.4
	l-2.1,6.4h-6.9l5.6,4.5l-2.1,6.7l5.6-3.9l5.6,4.1l-2.1-6.9l5.6-4.5H72.4z M92.8,276l-2.1-6.4l-2.1,6.4h-6.9l5.6,4.5l-2.1,6.7
	l5.6-3.9l5.6,4.1l-2.1-6.9l5.6-4.5H92.8z M11.2,276L9,269.6L6.9,276H0l5.6,4.5l-2.1,6.7l5.6-3.9l5.6,4.1l-2.1-6.9l5.6-4.5H11.2z
	 M174.4,276l-2.1-6.4l-2.1,6.4h-6.9l5.6,4.5l-2.1,6.7l5.6-3.9l5.6,4.1l-2.1-6.9l5.6-4.5H174.4z M175.9,284.9l-3.7-2.6l-3.7,2.6
	l1.4-4.8l-3.6-3.1h4.5l1.4-4.3l1.4,4.3h4.5l-3.6,3.1L175.9,284.9z M31.6,276l-2.1-6.4l-2.1,6.4h-6.9l5.6,4.5l-2.1,6.7l5.6-3.9
	l5.6,4.1l-2.1-6.9l5.6-4.5H31.6z M154,276l-2.1-6.4l-2.1,6.4h-6.9l5.6,4.5l-2.1,6.7l5.6-3.9l5.6,4.1l-2.1-6.9l5.6-4.5H154z
	 M155.5,284.9l-3.7-2.6l-3.7,2.6l1.4-4.8l-3.6-3.1h4.5l1.4-4.3l1.4,4.3h4.5l-3.6,3.1L155.5,284.9z M133.6,276l-2.1-6.4l-2.1,6.4
	h-6.9l5.6,4.5l-2.1,6.7l5.6-3.9l5.6,4.1l-2.1-6.9l5.6-4.5H133.6z M135.1,284.9l-3.7-2.6l-3.7,2.6l1.4-4.8l-3.6-3.1h4.5l1.4-4.3
	l1.4,4.3h4.5l-3.6,3.1L135.1,284.9z M113.2,276l-2.1-6.4l-2.1,6.4H102l5.6,4.5l-2.1,6.7l5.6-3.9l5.6,4.1l-2.1-6.9l5.6-4.5H113.2z
	 M114.7,284.9l-3.7-2.6l-3.7,2.6l1.4-4.8l-3.6-3.1h4.5l1.4-4.3l1.4,4.3h4.5l-3.6,3.1L114.7,284.9z M201.7,276h-6.9l-2.1-6.4
	l-2.1,6.4h-6.9l5.6,4.5l-2.1,6.7l5.6-3.9l5.6,4.1l-2.1-6.9L201.7,276z M196.3,284.9l-3.7-2.6l-3.7,2.6l1.4-4.8l-3.6-3.1h4.5l1.4-4.3
	l1.4,4.3h4.5l-3.6,3.1L196.3,284.9z"/>
<g>
	<path fill="#D4145A" d="M33.2,851.8l5.6,17.2L24,858.3L9.2,868.9l5.6-17.2L0,841.2h18.3L24,824l5.7,17.2H48L33.2,851.8z"/>
</g>
<polygon fill="#D4145A" points="0,1004 31.2,1022 0,1040 "/>
<polygon fill="#D4145A" points="30.6,938.6 0,914 0,953.3 9.9,943.8 18,960 25.2,956.6 17.1,940.4 "/>
<path fill="#FFFFFF" d="M124.6,469.6l-0.4-0.1c-1.3-0.4-2.1-0.7-2.1-1.4c0-0.6,0.7-1.1,1.7-1.1c1.6,0,2.3,0.9,2.7,1.8l0.9-0.1
	c-0.2-0.9-0.4-1.5-0.4-2c-0.3-0.1-0.6-0.1-1-0.2c-0.6-0.1-1.2-0.2-1.8-0.2c-3.1,0-4.8,1.2-4.8,2.6c0,1.4,1.9,2,3.5,2.5l0.3,0.1
	c1.2,0.4,2,0.8,2,1.5c0,0.8-0.8,1.3-1.8,1.3c-2,0-3.1-1.4-3.5-2.2l-0.9,0.2c0.2,0.8,0.4,1.4,0.6,2c-0.7-0.1-1.1-0.2-2.1-1.1
	c-1.3-1.1-2.6-2.3-3.8-3.5c0.8-0.6,1.7-1.3,2.8-2c1-0.7,1.6-0.7,2.6-0.8v-1h-5v1l0.7,0.1c0.5,0,0.3,0.3,0.1,0.5
	c-1.2,1-2.8,1.9-3.8,3v-2c0-1.4,0-1.5,1-1.6v-1h-6v1c2,0.1,2,0.2,2,1.6v4.2c0,1.3-0.3,1.5-1.3,1.5c-0.2-0.1-0.5-0.2-0.7-0.4
	c-0.3-0.3-0.8-0.7-1.5-1.4c-0.6-0.6-1.3-1.5-1.6-1.8c1.5-0.4,2.6-1,2.6-2.2c0-0.8-0.6-1.6-1.4-1.9c-0.8-0.3-1.8-0.7-3.4-0.7H94v1
	c2,0.1,2,0.2,2,1.6v1.9c0-2.5-2.8-4.2-6.5-4.2c-3.3,0-5.4,1.2-6.3,2.6c0.9-1.7,1.7-2.7,1.8-2.9c1-1.5,1-1.6,3-1.7V464h-7v0.3l1,0.1
	c1.2,0.1,1.2,0.2,0.9,1.2c-0.4,1-1.5,3.4-2.5,5.4h-0.1l-4.3-7h-2l-3.7,7h-0.1l-2.7-5.7c-0.3-0.7-0.4-0.8,0.7-0.9l0.8,0V464h-9v0.3
	c2,0.1,2-0.1,2.8,1.4l0.5,0.3h-3.9l-3,5.1l-3.5-5.1H48v1c2,0.1,1.8,0.2,1.7,1.8l-0.2,2.6c-0.1,1.2-0.2,1.8-0.3,2.2
	c0,0.1-0.1,0.2-0.1,0.3c-0.2-0.2-0.4-0.5-0.7-0.9c-0.8-1.3-1.6-2.8-2.5-4.3l-1.4-2.4l-1.4,0.2l-3.9,6.5c-0.4,0.4-0.8,0.7-1.1,0.8
	c-0.4,0.3-1.3,0.4-2.1,0.4c-0.6,0-1.2,0-1.6-0.1c-0.4-0.1-0.6-0.4-0.6-1.1V471h1.3c1.7,0,1.8,0,2,1H38v-3h-0.7c-0.2,1-0.3,1-2,1H34
	v-2.4c0-0.4,0.4-0.6,1.1-0.6h0.3c1.1,0,1.7,0.1,2,0.4c0.3,0.2,0.5,0.6,0.7,1.2l0.9-0.3c-0.1-1-0.2-1.3-0.2-2.3H29v1
	c2,0.1,2,0.2,2,1.6v4.2c0,1.2-0.1,1.4-1.1,1.5c-0.2-0.1-0.4-0.2-0.5-0.3c-0.3-0.3-0.8-0.7-1.4-1.4c-0.6-0.6-1.3-1.5-1.6-1.8
	c1.5-0.4,2.6-1,2.6-2.2c0-0.8-0.6-1.6-1.4-1.9c-0.8-0.3-1.8-0.7-3.4-0.7h-5.8c-0.4,0-1-0.5-1.5-0.9C14.9,464,12,464,8.5,464H0v0.3
	c2,0.1,2,0.2,2,2.1v5.7c0,1.8,0.1,2-2,2.1v0.9h7.3c5.8,0,10.7-1.5,11.7-4.8v2.6c0,1.4,0,1.5-1,1.6v0.5l6,0v-0.5c-1-0.1-1-0.2-1-1.6
	V471c0.3,0.1,0.6,0.3,0.7,0.5c0.5,0.7,1.1,1.6,1.7,2.1c0.8,0.7,1.5,1.2,4.3,1.2l0.9,0.1l0,0H42v-0.7l-0.6,0c-0.9-0.1-1-0.3-0.7-0.9
	l0.6-1.4h0.3l1.2-3h0.1l1.3,3h0.4l0.7,1.5c0.3,0.5,0.2,0.7-0.6,0.7l-0.7,0.1v0.7h9v-0.7c-2-0.1-1.9-0.2-2-0.7
	c-0.1-0.4-0.2-0.9-0.1-2L51,469h0l3.6,6h1.1l3.8-7h0.1l0,4.6c0,1.4,0.4,1.6-1.6,1.7v0.5l6,0v-0.5c-1-0.1-1.3-0.1-1.3-1.6l-0.1-4.3
	c-0.1-1.1,0.1-1.3,1-1.4l4.3,7.9H70l3.8-7h0.1l4.2,7h2.2c1-2,1.9-3.9,2.7-5.4c-0.2,0.4-0.2,0.8-0.2,1.2c0,2.4,2.6,4.2,6.6,4.2
	c3.8,0,6.7-1.7,6.7-4.4v2.1c0,1.4,0,1.5-2,1.5v0.7h7v-0.7c-2-0.1-2-0.2-2-1.5v-5.1c0-0.5,0.2-0.6,1-0.6c0.8,0,2,0.5,2,1.7
	c0,0.6-0.3,1.3-1.1,1.7c-0.4,0.2-0.9,0.4-1.5,0.4h0c0.4,0,0.7,0.3,0.8,0.6c0.5,0.7,1.1,1.6,1.7,2.1c0.8,0.7,1.4,1.2,4.3,1.2l0.9,0
	l0.3-0.1l5.7,0v-0.5c-2-0.1-2-0.2-2-1.6V471c1.5,1,3.3,3,4.1,4h4.9v-0.5c0,0.1,0.5,0.2,1,0.3c0.5,0.1,1.3,0.2,2.1,0.2
	c3.1,0,5-1.2,5-2.7C128.1,470.8,126.5,470.1,124.6,469.6z M9,473.9c-1.4,0-2-0.3-2-1.8v-6.6c0-0.4,0.1-0.8,0.2-0.9
	c0.2-0.1,0.6-0.1,1.2-0.1c2.4,0,5.5,1,5.5,4.7C14,472.3,11.5,473.9,9,473.9z M18.5,467.1c0.5,0.1,0.5,0.3,0.5,0.9
	C18.9,467.7,18.7,467.4,18.5,467.1z M24.4,470.6c-0.4,0.2-0.8,0.4-1.4,0.4v-3.3c0-0.5-0.1-0.6,0.7-0.6c0.8,0,1.9,0.5,1.9,1.7
	C25.6,469.5,25.2,470.2,24.4,470.6z M89.6,474.3c-2,0-3.3-1.7-3.3-4c0-2.2,1.3-3.4,2.8-3.4c1.7,0,3.1,1.4,3.1,4
	C92.3,473.3,91.4,474.3,89.6,474.3z M37,424.7c5,1.1,14.8,8.3,20,14.3c-0.1,0.1-0.2,0.4,0.2,0.6c0.4,0.2,0.3,0.2,0.6,0.7
	c0.4,0.7,0.3,0.9,0.9,0.9c0.4,0.6,0.7,1.2,1,1.8c-0.1,0-0.2,0.1-0.3,0.1c-0.1,0.1-0.2,0.2-0.3,0.4c-0.1,0.2,0.3,0.2,0.4,0.4
	c0.1,0.3,0.1,0.5,0.3,0.9c0.1,0.3,0.3,0.3,0.7,0.2c0.1,0.2,0.2,0.4,0.2,0.5c0,0.1,0.7,0.2,0.5-0.2c-0.1-0.2-0.1-0.3-0.2-0.4
	c0.2-0.1,0.3-0.2,0.5-0.2c0.3,0,0.4,0,0.4,0c-0.1,0.4-0.3,1.2-0.5,1.7c-0.5,0-0.7,0-0.7,0.2c-0.1,0.2-0.2,1-0.2,1.4
	c0,0.5,0.2,0.4,0.5,0.5c0.5,0.2,0.5,0.1,0.5,0.2c0,0.3-0.1,0.6-0.2,0.8c-0.5,1-0.9,1.1-1.4,1.4c-0.5,0.3-1.2,0.5-1.6,0.7
	c-0.3,0.2-0.5,0.3-0.8,0.2c-0.4-0.1-0.3-0.3-0.5-0.2c-0.5,0.3,0.1,0.8,0.1,0.8c0,0,0.1,0,0.1,0c-2.4-0.3-5-1.2-6.4-2.1
	c1.8,1.7,4.9,3.4,6.2,3.9c1.1,0.5,2.1,0.9,2.3,1l-0.2,0c0,0-0.3,0.4-0.6,0.7c-0.3,0.3-0.4,0.5-0.2,0.6c0.2,0.1,0.4,0.2,0.8,0.5
	c-0.1,0.7-0.6,1.6-0.9,2.2c-0.3,0.6-0.7,1.2-0.9,1.5c-0.3,0.3-1,0.9-1.4,1.3c-0.4,0.4-0.9,0.8-1.2,0.8c-0.5,0.1-0.7-0.3-0.8-0.2
	c-0.3,0.5-0.2,0.9,0.5,1c0.2,0,0.3,0.2,0.7,0.4c0.4,0.2,1,0,1.3-0.1s1-0.6,1.5-0.9c0.5-0.3,1-0.2,1.6-0.3c0.5,0,0.5-0.9,0.4-1.3
	c-0.3-0.6-0.1-1.1,0.3-1.8c0.3-0.7,1.1-1.5,1.1-1.5s0.2-0.1,0.6,0.2c0.4,0.3,0.4-0.2,0.9-0.7c0.4-0.4,0.8-0.9,0.5-1.1
	c-0.3-0.2-0.2-0.4-0.2-0.4s0.1-0.2,0.3-0.4c11.6,0.2,18.2-7.2,19.3-8.8c5.6-7.6,5.9-15.8,2.3-23.6c-3.7-8-13.5-14.4-24.4-11.9
	c6.5,0.7,13.3,5,16.2,11.2c1.9,4.2,2.3,8.4,1.5,12.7c-0.7,4-2.2,6.6-3.3,8.1c0.1-1-0.1-2.5-0.3-2.8c-0.1-2-1.4-2.8-1.9-2.8
	c0.1-0.2,0.4-0.8,0.4-0.8c-0.3-0.1-0.9,0.2-0.9,0.2c0-0.1,0-0.3,0-0.3c0.6,0,0.7-0.4,0.7-0.4c0,0.1-0.1,0.2-0.1,0.2
	c0.7-0.5,0.5-2.2,0.4-2.7c-0.3-1.1-0.6-1.3-0.9-1.3c0-0.2,0.4-0.4,0.6-0.4c-0.1-0.2-0.5-0.1-0.6,0c0.1-0.3-0.2-0.7-0.5-0.7
	c0.7,0.2,0.3,0.9,0.3,0.9c0.3-0.9-1.5-0.8-2.6-0.6c-0.6,0.1-2.9,0.9-3.1,2.9c0,0,0.2-0.3,0.3-0.4c-0.1,0.2-0.2,0.5,0,0.9
	c0,0,0.2-0.4,0.5-0.4c-0.1,0.2-0.1,0.6,0.1,0.9c0.2,0.3,0.1,0.5,0,0.6c-0.2,0.1-0.3,0.3-0.3,0.4c0,0.1,0.2,0.2,0.3,0.2
	c0.1,0,0.3,0.2,0.1,0.3c0,0.1,0.1,0.2,0.2,0.2c-0.1,0.1,0,0.3,0.1,0.3c0.2,0,0.2,0.1,0.1,0.4c-0.1,0.2,0.1,0.5,0.5,0.3
	c0.1-0.1,0.6-0.4,0.6-0.2v0c0,0.1,0.1,0.7-0.1,0.8c-0.2,0.1-0.2,0.3-0.4,0.4c-0.2,0.2-0.2,0.4-0.5,0.4c-0.3,0.1-0.6,0.4-1.3,0.5
	c-0.7,0.1-0.4,0.5-0.8,0.3c-0.4-0.5-0.9-0.7-1.5-0.7c-0.9,0-1,0.1-1.3,0.5c-0.5,0-2.7,0-3.1-0.4c0-0.2-0.2-1-0.7-1.2
	c-0.5-0.2-0.9-0.8-0.8-1.1c-0.4-0.1-0.6,0.2-0.5,0.7c-0.1,0-0.2,0.1-0.3,0.1c-5.1-5.9-15.7-14.3-21.7-15v0.7c0,0,0,0,0,0V465h1
	V424.7z M69.1,443.3c0,0,0.3,0.6,0.2,1.4c-0.1,0.6,0,0.7-0.2,1c-0.5-0.4-0.9-1.5-1.3-2L69.1,443.3z M63.3,449.2c0,0,0.5,0.1,0.9,0.2
	c0.3,0.1,0.3,0.1,0.4,0c0.1-0.2,0.3-1.5,0.4-1.8c0.1-0.2-0.3-0.2-0.3-0.2s0,0.2,0-0.4c0-0.5,0.1-1.5,0.2-1.5
	c0.1-0.1,0.3,0.8,0.3,0.8c0.3,1.3,0.7,2.4,0.9,2.7c0.2,0.3,0.2,0.4,0.2,0.4c-0.6,0.3-1.5,0.5-1.8,0.7c-0.3,0.1-0.7,0.5-1.1,0.6
	C63.1,450,63.3,449.2,63.3,449.2z M60.7,441.9c0.8,0.4,1.5,0.5,1.7,0.6l-0.2,1c-0.3,0.1-0.7,0.2-0.8,0c-0.2-0.3-0.3-0.2-0.4-0.4
	c-0.1-0.2-0.3-1.1-0.7-0.1h0c-0.2-1-0.4-1-0.7-1.5C59.9,441.6,60.3,441.7,60.7,441.9z"/>
<path fill="#FFFFFF" d="M107.8,660.8c-1.8-2.5-3.5-4.9-5.3-7.4c-0.2-0.3-0.2-0.6,0-0.9c1.8-2.5,3.5-4.9,5.3-7.4
	c0.1-0.1,0.2-0.3,0.3-0.5c-2.1,0-4.1,0-6.1,0c-0.6,0-1,0.1-1.3,0.7c-0.6,0.9-1.3,1.8-1.9,2.8c-0.8-1.1-1.5-2.1-2.2-3.1
	c-0.2-0.2-0.3-0.3-0.6-0.3c-2,0-4.1,0-6.1,0c-0.1,0-0.2,0-0.4,0c0.1,0.2,0.2,0.3,0.3,0.4c1.8,2.5,3.5,5,5.3,7.5
	c0.2,0.3,0.2,0.5,0,0.7c-0.8,1.2-1.7,2.3-2.5,3.5c-0.1,0.2-0.3,0.4-0.5,0.6c-0.1-0.2-0.2-0.4-0.2-0.5c-1.6-4-3.2-7.9-4.8-11.9
	c-0.1-0.3-0.3-0.4-0.7-0.4c-1.8,0-3.6,0-5.4,0c-0.4,0-0.5,0.1-0.7,0.5c-1.5,3.7-2.9,7.4-4.4,11c-0.1,0.2,0,0.3,0,0.5
	c0,0,0.1,0,0.1,0v-11.9c-2,0-3.8,0-5.6,0c-0.1,0-0.4,0.1-0.5,0.3c-1,1.3-2,2.6-2.9,3.9c-0.1,0.1-0.2,0.3-0.3,0.4
	c-1.1-1.4-2.1-2.8-3.1-4.2c-0.2-0.2-0.4-0.3-0.7-0.3c-1.6,0-3,0-4.6,0c-0.1,0-0.2,0-0.2,0v11.6c-1-0.1-0.4-0.2-0.5-0.4
	c-1.5-3.6-3.1-7.3-4.5-10.9c-0.1-0.3-0.3-0.4-0.6-0.4c-1.8,0-3.7,0-5.5,0c-0.4,0-0.5,0.1-0.7,0.4c-1.2,3.1-2.5,6.1-3.7,9.2
	c-0.6,1.5-1.2,3-1.8,4.5c-0.6-0.9-1.2-1.7-1.8-2.5c0.1-0.1,0.2-0.1,0.3-0.2c2.1-1.5,3-3.6,2.6-6.1c-0.4-2.5-1.8-4.2-4.3-5
	c-1-0.3-2.1-0.4-3.2-0.4c-2.3-0.1-4.7,0-7,0c-0.1,0-0.4,0-0.4,0V661h6v-3.5c0,0.1,0.2,0.2,0.2,0.4c0.7,1,1.4,2.1,2.1,3.1
	c0.1,0.2,0.3,0.3,0.5,0.3c3.5,0,6.9,0,10.4,0c0.3,0,0.4-0.1,0.4-0.4c0.1-0.5,0.2-0.9,0.4-1.4c0-0.1,0.2-0.3,0.3-0.3c1.5,0,3,0,4.5,0
	c0.1,0.5,0.3,1,0.4,1.6c0.1,0.4,0.2,0.5,0.6,0.5c3.2,0,6.4,0,9.6,0c0.2,0,0.4,0,0.4,0v-6.6c1,1.6,2.4,3,3.5,4.6
	c1.1-1.5,2.3-3,3.3-4.4c0,0,0.2,0,0.2,0v6.1h4c2.1,0,4.3,0.2,6.4,0.2c0.3,0,0.5,0,0.5-0.3c0.1-0.4,0.2-0.7,0.3-1.1
	c0.1-0.4,0.2-0.5,0.7-0.5c1.1,0,2.2,0,3.3,0c0.9,0,0.9,0,1.1,0.9c0.1,0.3,0.2,0.5,0.2,0.8c0.1,0.3,0.2,0.4,0.5,0.4
	c2.9,0,5.9,0,8.8,0c0.3,0,0.5-0.1,0.7-0.3c0.6-0.9,1.3-1.9,2-2.8c0.1-0.1,0.1-0.2,0.2-0.3c0.7,1,1.5,2,2.2,3.1
	c0.2,0.3,0.4,0.4,0.7,0.4c2,0,4,0,5.9,0c0.2,0,0.3,0,0.5,0C108,661.1,107.9,661,107.8,660.8z M34.5,652.7c-0.5,0-1.5,0-1.5,0v-3.3
	c0,0,1.4,0,2.1,0c0.6,0.1,1,0.5,1.1,1.1C36.5,651.9,35.9,652.7,34.5,652.7z M48.4,655c0.4-2,0.7-2.8,1.1-4.1c0,0,0.1,0,0.1,0
	c0.4,1.3,0.7,2.1,1.1,4.1H48.4z M82.6,655c0.4-2,0.7-2.8,1.1-4.1c0,0,0.1,0,0.1,0c0.4,1.3,0.7,2.1,1.1,4.1H82.6z M12.2,645
	c-0.8,1.1-1.7,2.2-2.5,3.4c-0.2,0.3-0.4,0.6-0.6,0.9c-0.1-0.2-0.2-0.3-0.3-0.4c-0.9-1.3-1.9-2.5-2.8-3.8c-0.2-0.3-0.4-0.2-0.7-0.2
	c-1.5,0-3,0.2-4.5,0.2H0v16h6v-6.2c0,0-0.1,0-0.1,0c1.1,1.5,2.1,2.9,3.2,4.4c1.1-1.5,1.9-3,3-4.4c0,0-0.1,0-0.1,0.1v6.1h6v-16.3
	c-2,0-3.6,0-5.4,0C12.4,644.7,12.3,644.8,12.2,645z M19,661h7v-16h-7V661z"/>
<path fill="#FFFFFF" d="M63.5,743h0.2c0.2,0,0.3,0.2,0.3,0.4c0.5-0.4,1.1-0.2,1.6-0.4c-0.6-0.2-1-0.7-1.6-0.7
	C63.2,742.3,64,743,63.5,743z M66.9,743.3c-0.1-0.1-0.2-0.2-0.4-0.1l0.1,0.3C66.7,743.5,66.9,743.5,66.9,743.3z M66,747v8.7l-1,0.3
	h4.3l-0.3-0.3V753h0.9l2,2.6l-0.6,0.4h4.5l-2.8-3.8c1.4-0.6,2.3-1.6,2.3-3.1c0-1.7-1-3.1-3.9-3.1H65L66,747z M69,748h2
	c0.7,0,1.3,0.6,1.3,1.4c0,0.7-0.7,1.6-1.7,1.6H69V748z M60.4,748l0.6,1v-3h-9.4l0.4,1v8.7l-0.4,0.3H61v-2.4l-0.6,0.4H55v-2h3.5
	l0.5,1v-3.3l-0.5,0.3H55v-2H60.4z M72,766.1c1.7-1.7,1.1-2.1,2.2-2.7c1.2-0.7,1.3,0.1,1.8-0.5c0.9-1.2,0.6-1.1,1-1.9l0.3-0.4
	c0,0,0.6-0.5,0.4-0.8c-0.2-0.3,0-0.7,0-0.7H62.3l1.7,1.5c0.4,0.1,0.9,0.5,1.1,1.1c0.5,1.4-0.2,0.3-0.2,2.3c0,1.9-0.5,1.6-0.5,1.6
	s-0.1,2.2-1.3,3.6c-0.7,0.7-0.2,1.4-0.2,1.4s-0.2,0.1-0.6,1.8c-0.1,0.5,0.6,1.3,1.1,1.1c0.4-0.1-1.1-0.3,0.6-1
	c0.6-0.3,0.1-0.8,0.1-0.8s1.1-0.1,1.7-1.7c1,0.2,0.7-0.5,2.8-1c0.6-0.1,0.7-0.3,0.6-0.8C69.1,767.7,69.9,768.3,72,766.1z
	 M50.1,727.2c-0.1,0.1-0.2,0.2-0.2,0.2c-0.8,0.5-0.5,1-0.9,1.1c-0.7,0.2-1.4,2.2-1.4,2.2s0.4,0.3-0.9,1.7c-1.1,1.2-1.4,3-1.4,3
	s0.7,1.3,0.6,2.7c-0.1,1.1-0.1,0.3,0.3,1.1c0.3,0.5,0.6,2.1,0.8,1.5c0.4-1.2-0.7-2.4-0.5-3.6c0,0.2,0.4-0.5,0.4,0.1
	c0,1.5,1.9,4.4,1.9,4.4s-0.7,0.7,0,0.7l-0.2,0.4c0,0,0.5,0.1,0.9,0.4c0.4,0.3,0.7,0.8,1,0.8c0.7,0,5.5,0,5.5,0s0.4-1.8,0.7-2.1
	c0.3-0.3-0.6-0.1-0.9-0.3c-0.3-0.3-0.5,0.2-0.6,0.5c-0.1,0.3-0.3,0.8-0.7,0.9c-0.4,0.1-1.4,0.2-1.7,0.2c-0.2,0-0.8-1.2-0.8-1.2
	c-0.6-0.9-0.1-2,0.5-3.2c0.5-0.8,1.7-1.2,2.8-0.7c1.2-1,1.5,0.1,2.6-0.4c1.4-0.6,0.6,1.6,2,2.2c0.6-1.5-1.3-2.7-0.1-3.4
	c0.8-0.5,1.5-0.8,1.8-1.5c0.5-1,0.7-1.7,1.1-1.8c0.9-0.3,0.7-1.1,0.7-1.1s0.9,0.3,1.6-0.4c-0.6-0.3-1.4-0.6-1.1-1.1
	c0.2-0.7,2.1,0.7,2.7-0.4c-1.1-0.5-2.2-1.5-2.9-1.8c-0.5,0.5-0.8,0.3-1.4-0.2c-1-0.8-1.1,0-1.7-0.6c-0.5,1,0.3,0.9,0.5,1.2
	c0.7,0.7-0.7-0.6-0.5,1.2c0,0.5-0.7,0.6-1.2-0.5c-0.3-0.5-2.4-0.4-2.7-0.9c0.3-0.6,2.8-2.7,6.7-2.2c-0.1-0.1-0.3-0.1-0.4-0.1
	c10.3,1.5,18.7,8.4,21.9,17.5C81.3,732.6,71.7,724,58.6,724c-14.1,0-22.5,8.5-26.1,19.5C35.3,735.8,41.9,729.7,50.1,727.2z
	 M61.8,742.4c0.4-0.2,1,0.1,1,0.1s1.1-0.4,0.2-0.3c-1,0-1-0.8-1.6-0.6c-0.7,0.1-0.6-0.6-1-0.6c-0.4,0-0.9-0.2-1,0.1
	c-0.3,0.4,0.3-0.2,0.9,0.4c0.9,0.7,0.8,0.2,1.3,0.7C61.8,742.3,61.6,742.5,61.8,742.4z M30.4,756h4.3l-0.8-0.3V747l0.8-1h-4.3l0.6,1
	v8.7L30.4,756z M95.5,746l0.4,0.7l-4.5,9.3h3.7l-0.6-0.3l0.5-0.7h4.9l0.5,0.7l-0.6,0.3h4.3l-5-10H95.5z M95.7,753l1.7-3.7L99,753
	H95.7z M85.5,750.3c-1.2-0.4-2.9-0.7-2.9-1.5c0-0.4,0.4-0.7,1.2-0.7c1.1,0,3.2,0.5,4.2,1.1v-3.4l-0.7,0.8c-0.9-0.4-2.3-0.7-3.3-0.7
	c-3.5,0-4.6,1.5-4.6,2.9c0,1.9,1.3,2.7,3.2,3.4c1.5,0.5,2.8,0.5,2.8,1.4c0,0.7-1.1,0.8-1.5,0.8c-1.1,0-3-0.4-5-1.5v3.8l1-0.9
	c0.8,0.3,2.7,0.8,4.2,0.8c3,0,4.4-1.3,4.4-3.3C88.6,751.8,87.4,750.9,85.5,750.3z M37.3,746l4.8,10h2.1l4.8-10h-3.6l0.6,0.9
	l-2.6,5.7l-2.5-5.7l0.6-0.8H37.3z M115.3,754H110v-7l1-1h-4.3l0.3,1v8.7l-0.3,0.3h9.3v-2.4L115.3,754z M8,747v5.6
	c0,1.3-0.7,1.8-2,1.8s-2-0.5-2-1.8V747l0.3-1H0l1,1v5.7c0,2.8,1.5,3.9,5,3.9c3.5,0,5-1.1,5-3.9V747l0.5-1H7.2L8,747z M23,747v5.1
	l-4.8-6.1H15l1,1v8.7l-1,0.3h3.6l-0.6-0.3v-5.2l5.5,5.6H26v-9l0.4-1h-3.6L23,747z M58.6,778.1c-12,0-22.3-7.3-26-17.5
	c3.6,10.9,12.6,19.4,26,19.4c12.6,0,22.6-8.6,26.1-19.6C81.1,770.7,70.8,778.1,58.6,778.1z"/>
<path fill="#FFFFFF" d="M24.3,551c0.5,0.1,0.8-0.2,1.1-0.4c0.8-0.8,1.3-1.8,1.6-2.8c0.1-0.6,0.1-1.3-0.3-1.8
	c-0.4-0.4-1.1-0.2-1.5,0.1c-0.9,1.2-1.5,2.5-1.5,4.1C23.7,550.6,24,550.8,24.3,551z M14.5,550.2l0.1-0.8l1.3-7.3l1.3-6.1
	c0.3-1.4,0.7-2.9,1-4.3c0.3-0.9,0.4-1.9,1.3-2.4c0.3-0.1,0.6,0.1,0.8,0.3c0.7,1.4-0.8,2.4-0.6,3.7c0.1,0.3,0.4,0.5,0.8,0.5
	c0.9-0.1,1.7-0.3,2.4-1c0.6-0.8,0.3-2.1-0.1-2.9c-0.2-0.5-0.5-0.9-1-1.3c-0.9-0.7-2.3-0.9-3.4-0.4c-1.1,0.4-1.8,1.6-2.2,2.6
	c-0.7,2.4-1.3,4.8-1.9,7.3l-0.9,4.4l-0.9,5l-0.3,1.7c-0.1,0-0.1,0-0.1,0c-1.2-0.5-2.7-0.5-4.1-0.4c-2.1,0.3-4,1.2-5.8,2.4
	c-0.9,0.7-2.4,1.5-2.2,2.8c0.4,0.9,1.3,1.4,2.2,1.6c0.7,0.1,1.6,0.2,2.1-0.5c0.4-0.6-0.3-1.1-0.1-1.7c1.9-2,5.1-2.5,7.7-1.5
	l-0.5,4.1l-0.4,4.4c-0.4,5.8-0.4,12,0.9,17.3c0.6,1.5,0.6,3.6,2.5,4.1c1.6,0.1,2.8-1.2,3.9-2.4c2.8-3.8,3.8-8.3,4-13.2
	C22,560,20.3,553.6,14.5,550.2z M16.7,574.3c-0.3,0.6-0.6,1.5-1.3,1.9c-0.2,0-0.3-0.2-0.3-0.3c-1.2-4.6-1.4-9.7-1.3-14.8
	c0.1-2.6,0.3-5.2,0.6-7.8c2.4,1.8,3.4,4.5,3.9,7.3C19.2,565.3,18.1,570.1,16.7,574.3z M104.8,557.1c-0.4,0.1-0.4,0.6-0.6,0.8
	c-0.9,1.3-2.5,1.3-4,1.3c-2.6-0.2-4.9-1.1-7-2.5c1.3-1.1,2.3-2.4,3.4-3.6c0.7-0.8,1.5-1.8,2.5-2c0.6-0.1,1.3,0,1.7-0.4
	c0.1-0.2,0-0.4-0.1-0.6c-0.9-0.5-1.9-0.7-2.9-0.8c-1.8-0.1-3,1.2-4.2,2.5c-0.9,1-1.4,2.2-2.2,3.3l-0.1,0c-1.3-1.1-2.5-2.6-3.9-3.6
	c-1-0.3-2,0.1-2.9,0.5c-0.4,0.3-1,0.6-0.9,1.2c0.3,0.5,0.9,0.4,1.4,0.4c1.9,0.5,3.2,2.3,4.8,3.5c-0.7,0.8-1.6,1.4-2.5,1.8
	c-2,0.9-4.5,0.4-6.1-1.2c-1.3-1-1.4-2.6-2.6-3.7c-0.7-0.2-1,0.6-1.3,1c-0.8,1.4-2,2.8-3.4,3.8c-0.6,0.3-1.1,0.8-1.9,0.8
	c-0.3-0.1-0.3-0.5-0.3-0.8c0.3-1.3,0.9-2.4,1.8-3.5c1.3-1.4,2.7-3.1,4.7-3.1c0.4,0.2,0.4,0.7,0.9,0.9c0.2,0,0.5,0,0.7-0.1
	c0.3-0.2,0.5-0.6,0.4-0.9c-0.3-1-1.3-1.5-2.2-1.6c-2.1,0.1-3.9,1.1-5.5,2.3c-1.7,1.3-2.9,3.1-3.5,5c-0.7,0.6-1.5,1.2-2.5,1
	c-1.1-0.9-1.8-2.1-2.5-3.2c-0.5-0.8-0.7-1.8-1.6-2.4c-0.3-0.2-0.8-0.3-1.1-0.1c-1.6,1.2-3,2.7-4.3,4.3c0.2-1.7,0.6-3.3,1-4.9
	c0.1-0.5,0.1-1,0-1.5c-0.1-0.5-0.5-0.9-0.9-1c-1.5-0.3-2.2,1.3-3.1,2.1l-4,4.7c-0.1,0.1-0.3,0.5-0.5,0.2c0.2-1.2,0.3-2.4,0.5-3.6
	c0.1-0.5,0.3-1,0-1.5c-0.1-0.3-0.4-0.5-0.7-0.6c-0.4,0-0.9-0.1-1.2,0.1c-2.6,2.1-4.3,5-6.5,7.4c-0.8,0.7-1.4,1.8-2.5,1.7
	c-1.1-0.3-1.5-1.5-2-2.4c0.7-1.6,1.2-3.2,1.6-4.9c1.2-5.2,2.2-11.4,0.7-16.8c-0.3-0.8-0.4-1.6-1-2.2c-0.2-0.2-0.4-0.3-0.7-0.4
	c-1.4-0.2-2.2,1.3-2.7,2.2c-1.3,3-1.9,6.4-2.1,9.9c0,4.5,0.4,8.9,2.4,12.7c-0.4,1.1-1.3,2.5-2.7,2.5c-2.2,0-2.7-2.4-3.4-3.9
	c-0.3-1.2-0.7-2.7-2.1-2.9c-0.6,0-1.1,0.2-1.5,0.6c-1.2,1-2.1,2.2-2.9,3.4c-0.1,0.5,0.1,0.9,0.5,1.2c0.2,0,0.4,0.1,0.6,0
	c0.7-0.7,0.8-1.7,1.6-2.4c0.1-0.1,0.3-0.1,0.4,0c0.5,1.2,0.8,2.4,1.6,3.5c0.8,1.2,2,1.9,3.4,2c2.2,0.4,4.1-0.9,5.3-2.7
	c0.5,0.4,0.9,1,1.5,1.2c1.4,0.6,3.3,0.5,4.5-0.4c2.3-1.8,3.3-4.3,5.2-6.4l0,0c-0.5,1.9-1,3.7-1.4,5.6c0,0.3-0.1,0.8,0.1,1.1
	c0.2,0.4,0.6,0.6,1,0.8c0.6,0.1,1.2-0.2,1.7-0.7c0.9-1.2,1.7-2.4,2.6-3.6l2.7-3.6l1-1.3H55v0.6c-1,2-1.3,4-1.9,6.1
	c0,0.6-0.1,1.6,0.7,1.9c0.6,0.3,1.1-0.1,1.5-0.3c1.2-1,2.2-2.2,3.4-3.3c0.7-0.6,1.3-1.3,2.2-1.4c0.8,0.6,1.2,1.5,1.7,2.3
	c0.7,0.9,1.5,2,2.7,2.1c1.4-0.1,2.5-1,3.4-2h0.1c0.1,1,0.1,1.4,0.5,1.8c0.5,0.9,1.5,1.1,2.4,1.2c2.6-0.3,4.8-2.3,6.1-4.5
	c0.2,0.2,0.3,0.5,0.5,0.8c1.3,1.5,3,2.6,5,2.7c3,0.1,5.6-1.1,8-2.7c1.2,0.8,2.4,1.4,3.7,1.9c3.1,1.3,7.3,1,10-0.9
	c0.6-0.4,1.5-0.8,1.6-1.7C106.2,557,105.4,556.9,104.8,557.1z M36.3,556.2c-1.4-4.3-1.1-9.8,0.1-14.1c0.3-0.9,0.5-1.9,1-2.7
	c0.3,0,0.2,0.3,0.3,0.4c0.7,5.2,0,10.7-1.2,15.5C36.5,555.7,36.4,556,36.3,556.2z"/>
<path fill="#FFFFFF" d="M176,187c-0.6,0.3-1.2,0.4-1.9,0.5c0.7-0.4,1.2-1,1.4-1.8c-0.6,0.4-1.3,0.6-2.1,0.8c-0.6-0.6-1.5-1-2.4-1
	c-1.8,0-3.3,1.5-3.3,3.3c0,0.3,0,0.5,0.1,0.7c-2.7-0.1-5.1-1.4-6.8-3.4c-0.3,0.5-0.4,1-0.4,1.7c0,1.1,0.6,2.1,1.5,2.7
	c-0.5,0-1-0.2-1.5-0.4c0,0,0,0,0,0c0,1.6,1.1,2.9,2.6,3.2c-0.3,0.1-0.6,0.1-0.9,0.1c-0.2,0-0.4,0-0.6-0.1c0.4,1.3,1.6,2.3,3.1,2.3
	c-1.1,0.9-2.5,1.4-4.1,1.4c-0.3,0-0.5,0-0.8,0c1.5,0.9,3.2,1.5,5,1.5c6,0,9.3-5,9.3-9.3c0-0.1,0-0.3,0-0.4
	C175,188.3,175.6,187.7,176,187z"/>
<path id="White_2_" fill="#FFFFFF" d="M143.1,184h-14.2c-0.5,0-0.9,0.4-0.9,0.9v14.2c0,0.5,0.4,0.9,0.9,0.9h7.7v-6.2h-2.1v-2.4h2.1
	v-1.8c0-2.1,1.3-3.2,3.1-3.2c0.9,0,1.6,0.1,1.9,0.1v2.2l-1.3,0c-1,0-1.2,0.5-1.2,1.2v1.5h2.4l-0.3,2.4H139v6.2h4.1
	c0.5,0,0.9-0.4,0.9-0.9v-14.2C144,184.4,143.6,184,143.1,184z"/>
<g>
	<path fill="#FFFFFF" d="M200,184c-4.4,0-8,3.6-8,8c0,3.4,2.1,6.3,5.1,7.4c-0.1-0.6-0.1-1.6,0-2.3c0.1-0.6,0.9-4,0.9-4
		s-0.2-0.5-0.2-1.2c0-1.1,0.6-1.9,1.4-1.9c0.7,0,1,0.5,1,1.1c0,0.7-0.4,1.7-0.7,2.7c-0.2,0.8,0.4,1.4,1.2,1.4c1.4,0,2.5-1.5,2.5-3.7
		c0-1.9-1.4-3.3-3.3-3.3c-2.3,0-3.6,1.7-3.6,3.5c0,0.7,0.3,1.4,0.6,1.8c0.1,0.1,0.1,0.1,0.1,0.2c-0.1,0.3-0.2,0.8-0.2,0.9
		c0,0.1-0.1,0.2-0.3,0.1c-1-0.5-1.6-1.9-1.6-3.1c0-2.5,1.8-4.8,5.3-4.8c2.8,0,4.9,2,4.9,4.6c0,2.8-1.7,5-4.2,5
		c-0.8,0-1.6-0.4-1.8-0.9c0,0-0.4,1.5-0.5,1.9c-0.2,0.7-0.7,1.6-1,2.1c0.7,0.2,1.5,0.4,2.4,0.4c4.4,0,8-3.6,8-8
		C208,187.6,204.4,184,200,184z"/>
</g>
<g>
	<path fill="#FFFFFF" d="M3,68.1v-3.5h11.5v15.3c0,2.7-0.7,4.7-2.1,6.1S9.2,88,7,88c-2.7,0-5.1-1-7-2.9L2.3,82
		c1.5,1.4,3,2.2,4.5,2.2c1,0,1.9-0.3,2.6-1s1.1-1.7,1.1-3.1v-12H3z"/>
	<path fill="#FFFFFF" d="M23.9,82.5l-2.4,5.3h-4.3l10.4-23.2h4.3l10.4,23.2H38l-2.4-5.3H23.9z M34,78.9l-4.3-9.6l-4.3,9.6H34z"/>
	<path fill="#FFFFFF" d="M45.6,87.8V64.6h4v19.5h10.8v3.7H45.6z"/>
	<path fill="#FFFFFF" d="M81.2,64.6v3.7H68.6v6.1h11.3v3.5H68.6v6.2h13v3.7h-17V64.6H81.2z"/>
	<path fill="#FFFFFF" d="M106.1,84.6c-2.4,2.3-5.3,3.4-8.8,3.4c-3.5,0-6.5-1.1-8.8-3.4c-2.4-2.3-3.6-5.1-3.6-8.6
		c0-3.4,1.2-6.3,3.6-8.6c2.4-2.3,5.3-3.4,8.8-3.4c3.5,0,6.5,1.1,8.8,3.4c2.4,2.3,3.6,5.1,3.6,8.6C109.7,79.4,108.5,82.3,106.1,84.6z
		 M103.2,70c-1.6-1.6-3.6-2.5-5.9-2.5c-2.3,0-4.3,0.8-5.9,2.5c-1.6,1.6-2.4,3.6-2.4,6s0.8,4.3,2.4,6c1.6,1.6,3.6,2.5,5.9,2.5
		c2.3,0,4.3-0.8,5.9-2.5c1.6-1.6,2.4-3.6,2.4-6S104.8,71.7,103.2,70z"/>
</g>
<g>
	<path fill="#FFFFFF" d="M11.8,193.8l4.4,4.4l-1.8,1.8l-4.4-4.4l0.3-0.3l-0.5-0.5c-0.5,0.4-1.1,0.7-1.7,0.9c-0.6,0.2-1.3,0.3-2,0.3
		c-0.8,0-1.6-0.2-2.4-0.5c-0.7-0.3-1.4-0.7-1.9-1.3c-0.6-0.5-1-1.2-1.3-1.9C0.2,191.6,0,190.8,0,190c0-0.8,0.2-1.6,0.5-2.3
		c0.3-0.7,0.8-1.4,1.3-1.9c0.6-0.5,1.2-1,1.9-1.3c0.7-0.3,1.5-0.5,2.4-0.5s1.6,0.2,2.4,0.5s1.4,0.7,1.9,1.3c0.6,0.5,1,1.2,1.3,1.9
		c0.3,0.7,0.5,1.5,0.5,2.3c0,0.7-0.1,1.3-0.3,1.9c-0.2,0.6-0.5,1.2-0.9,1.7l0.5,0.5L11.8,193.8z M7.7,193.7c0.5-0.2,0.9-0.5,1.3-0.9
		s0.7-0.8,0.9-1.3c0.2-0.5,0.3-1,0.3-1.5c0-0.6-0.1-1.1-0.3-1.5c-0.2-0.5-0.5-0.9-0.9-1.3s-0.8-0.6-1.3-0.9c-0.5-0.2-1-0.3-1.6-0.3
		s-1.1,0.1-1.6,0.3c-0.5,0.2-0.9,0.5-1.3,0.9s-0.7,0.8-0.9,1.3c-0.2,0.5-0.3,1-0.3,1.5c0,0.6,0.1,1.1,0.3,1.5
		c0.2,0.5,0.5,0.9,0.9,1.3s0.8,0.6,1.3,0.9c0.5,0.2,1,0.3,1.6,0.3S7.2,193.9,7.7,193.7z"/>
</g>
<g>
	<g>
		<path fill="#FFFFFF" d="M108,128c-6.6,0-12,5.4-12,12c0,6.6,5.4,12,12,12s12-5.4,12-12C120,133.4,114.6,128,108,128z M104,146.3
			v-12.7l11,6.3L104,146.3z"/>
	</g>
</g>
<g>
	<path fill="#FFFFFF" d="M40,199.5c-1.4-1.4-2.5-2.6-3.4-3.5c-0.9-0.9-1.7-1.8-2.5-2.8c-0.8-0.9-1.3-1.5-1.5-1.9
		c-0.2-0.4-0.4-0.8-0.5-1.3c-0.1-0.5-0.2-1-0.2-1.5c0-0.6,0.1-1.1,0.3-1.5c0.2-0.4,0.5-0.9,0.9-1.3c0.4-0.4,0.8-0.7,1.3-0.9
		c0.5-0.2,1-0.3,1.5-0.3c0.8,0,1.5,0.2,2.2,0.7c0.7,0.4,1.3,1.2,1.9,2.3c0.6-1.1,1.2-1.9,1.9-2.3c0.7-0.4,1.4-0.7,2.2-0.7
		c0.6,0,1.1,0.1,1.5,0.3c0.5,0.2,0.9,0.5,1.3,0.9c0.4,0.4,0.7,0.8,0.9,1.3c0.2,0.4,0.3,0.9,0.3,1.5c0,0.5-0.1,1-0.2,1.5
		c-0.1,0.5-0.3,0.9-0.5,1.3c-0.2,0.4-0.7,1-1.5,1.9s-1.7,1.8-2.5,2.8C42.5,196.9,41.4,198.1,40,199.5z"/>
</g>
<path fill="#D4145A" d="M72.7,187.9V184l6,6l-6,6v-4c-7-0.2-6.7,4.7-4.9,8C63.5,195.3,64.4,187.7,72.7,187.9z"/>
<path d="M18.9,1117.4c-0.3-1.2-0.9-2-2.2-2.3c-0.3-0.1-0.7-0.2-0.7-0.3v-5.8c0-0.3,0.8-0.3,0.8-0.6c-0.3-0.3-0.8-0.2-0.8-0.5v-1.9
	c-2-0.5-2.4-0.4-3.5-0.6c-0.2-0.3-0.3-0.6-0.4-0.9c-0.1-1.3-0.1-2.6,0.2-3.9c0.2-1.2,0.2-2.4,0.1-3.6c-0.1-0.9-0.2-1.8,0.1-2.7
	c0.4-1.2,0.4-2.4,0.4-3.6c0-1-0.1-2.1-0.2-3.1c-0.1-0.6,0.1-1.2,0.6-1.5c0.5-0.3,0.8-0.8,0.8-1.4c0.1-0.6,0.1-1.2,0.1-1.7
	c0-0.7,0.1-1.4,0.2-2.1c0.1-0.5,0.2-1.1,0.2-1.6c0-0.5-0.2-0.9-0.6-1.1c-0.4-0.2-0.8-0.4-1.2-0.7c-0.5-0.3-1-0.5-1.4-0.8
	c-0.3-0.2-0.4-0.5-0.4-0.8c0-0.2,0-0.4,0.1-0.6c0.1-0.4,0.2-0.8,0.2-1.2c0.1-0.5,0.1-0.9,0-1.4c-0.1-0.6-0.5-0.9-1.1-1
	c-0.2,0-0.5,0-0.7,0c-0.6,0.1-1,0.4-1,1c0,0.5,0,0.9,0.1,1.4c0.1,0.5,0.2,1,0.2,1.5c0.1,0.4-0.1,0.8-0.5,1c-0.2,0.1-0.4,0.3-0.6,0.4
	c-0.6,0.4-1.3,0.7-1.9,1c-0.5,0.2-0.7,0.6-0.6,1.1c0,0.4,0.1,0.8,0.2,1.1c0.1,0.3,0.1,0.7,0.2,1c0.1,0.8,0.1,1.6,0.1,2.5
	c0,0.9,0.3,1.7,1,2.2c0.5,0.3,0.6,0.8,0.6,1.3c-0.1,0.8-0.2,1.5-0.2,2.3c-0.1,1.4-0.1,2.8,0.3,4.1c0.3,1,0.3,2.1,0.2,3.2
	c-0.1,1-0.1,2,0,3c0.1,0.6,0.2,1.2,0.3,1.8c0.1,1,0.2,2.1,0,3.1c0,0.2-0.1,0.4-0.1,0.6c-1.2,0-2.3,0.1-3.3,0.5c-0.1,0.7,0,1.3-0.1,2
	c-0.3,0.2-0.7,0.2-1,0.4c0,0.3,0.6,0.3,0.6,0.5v5.8c0,0.1-0.4,0.1-0.6,0.2c-0.4,0.2-0.9,0.4-1.3,0.6c-0.2,0.1-0.5,0.3-0.6,0.5
	c-0.3,0.7-0.6,1.5-0.7,2.3c0.1,0.1,0.3,0.3,0.4,0.4c0.3,0.1,0.5,0.3,0.8,0.3c1.2,0.4,2.4,0.5,3.7,0.6c0.9,0.1,1.8,0.1,2.7,0.1
	c0.1,0,0.1,0,0.2,0.1h2.3c0.2,0,0.3-0.1,0.5-0.1c1-0.1,2.1-0.1,3.1-0.2c1.1-0.1,2.2-0.3,3.2-0.5c0.3-0.1,0.6-0.2,0.9-0.4
	c0.2-0.1,0.5-0.3,0.5-0.5v-0.2C19,1117.9,19,1117.7,18.9,1117.4z"/>
<path d="M68.7,1116.8l0-20.8l-0.3-0.3c-0.2-0.1-0.4-0.3-0.6-0.4c-0.2-0.1-0.4-0.3-0.4-0.4c0-0.2-0.4-0.6-0.7-1
	c-0.3-0.4-0.6-0.8-0.6-0.9c0-0.2,0.7-0.8,1.6-1.3c0.6-0.4,1.1-0.7,1.3-1c0.4-0.6,0.4-1.9,0.4-1.9s-0.7,0-1.4,0c-1.2,0-1.1,0-1.1-0.3
	c0-0.2-0.1-0.4-0.2-0.5c-0.4-0.1-0.6-0.8-0.5-1.7l0-0.9l0.7-0.3c0.4-0.2,0.9-0.5,1.1-0.7c0.3-0.2,0.5-0.3,0.7-0.3
	c0.3,0.1,0.6-0.2,1.5-1.3c0.4-0.5,0.4-0.6,0.4-1.1c-0.1-0.8-0.1-3.5,0-4.2c0.1-0.4,0-0.7-0.4-1.4c-0.2-0.5-0.4-1-0.4-1.1
	s-0.2-0.3-0.4-0.6c-1.4-1.7-5.5-2.8-8.5-2.3c-0.4,0.1-0.9,0.2-1,0.3c-0.3,0.2-1,2-0.9,2.5c0,0.2-0.1,0.4-0.4,0.8
	c-0.5,0.7-0.9,1.7-1.1,2.6c-0.1,0.4-0.3,0.9-0.4,1.2s-0.3,0.5-0.3,0.7c0,1.1,2.4,4,4.1,4.8c0.6,0.3,0.8,0.4,0.8,0.4
	c0.1,0.3,0.1,0.7,0,1.3c-0.1,0.5-0.2,0.9-0.3,1.1c-0.3,0.3-0.5,0.4-0.5,0.7c0,0.3-0.2,0.3-1.3,0.3c-0.6,0-1.2,0-1.2,0l0,0.6
	c-0.1,1,0.3,1.6,1.8,2.4c0.8,0.5,1.5,0.9,1.5,1.2c0,0.2-0.3,0.5-0.7,1c-0.3,0.3-0.6,0.7-0.6,0.9c-0.1,0.2-0.3,0.5-0.5,0.5
	c-0.2,0.1-0.7,0.4-0.9,0.6l-0.1,20.9l-2.7,1.6l0,1.6l15.4,0l0-1.6L68.7,1116.8z M69.4,1083.2c-0.8,0.9-0.8,0.9-1.3,0.1
	c-0.3-0.5-0.2-0.8,0.5-1.4c0.5-0.5,0.7-0.6,0.8-0.5c0.1,0.1,0.2,0.2,0.2,0.3c0,0.1,0.2,0.3,0.3,0.4
	C70.2,1082.3,70,1082.4,69.4,1083.2z M70.2,1082c-0.1,0-0.1-0.1-0.1-0.1s0-0.3,0.1-0.3s0,0.1,0,0.2C70.2,1081.8,70.2,1082,70.2,1082
	z M59.9,1072.7c0.5-0.4,3-0.5,4.2-0.3c0.3,0.1,0.8,0.2,1.2,0.3c1.5,0.3,2.7,0.9,3.5,1.7c0.5,0.5,0.5,0.7,0.3,1.1
	c-0.1,0.1-0.2,0.2-0.2,0.2c0,0-0.4-0.3-0.9-0.7c-1.1-1.1-3-1.8-4.6-1.8c-0.6,0-2.1,0.3-2.3,0.5c-0.2,0.2-0.6,0.1-0.6-0.1
	c0.1-0.3-0.1-0.5-0.5-0.5C59.7,1073,59.7,1072.9,59.9,1072.7z M59.3,1074c0.2-0.7,0.5-0.9,0.8-0.6c0.1,0.1-0.1,1-0.4,1.3
	c-0.2,0.2-0.2,0.2-0.5,0C59.1,1074.7,59.1,1074.6,59.3,1074z M59.7,1075.2c0.1,0,0.3-0.2,0.5-0.5c0.2-0.4,0.4-0.5,1.2-0.8
	c0.8-0.3,1.2-0.3,2.2-0.3c1,0,1.2,0,1.3,0.2c0,0.1,0.2,0.2,0.3,0.2c0.3,0,0.3,0.3,0,0.3c-0.3,0-1.4,0.9-1.4,1.2
	c0,0.1-0.2,0.3-0.4,0.5c-0.2,0.2-0.4,0.5-0.4,0.7c0.2,0.8-0.1,0.8-0.3,0.2c-0.1-0.2-1.1-0.3-1.7,0.2c-0.2,0.2-0.4,0.5-0.3,0.9
	c0.1,0.3,0.1,0.6,0.5,0.6c0.3,0,0.4,0,0.4-0.1c0-0.1,0.1-0.3,0.1-0.3c0.1,0,0.2,0.2,0.1,0.4c0,0.2,0.1,0.3,0.3,0.3
	c0.2,0,0.4,0.1,0.4,0.3c0.1,0.2,0.2,0.4,0.4,0.4c0.1,0,0.3,0.1,0.3,0.2c0,0.2-0.7,0.1-0.7-0.1c-0.1-0.3-0.5-0.5-1.5-0.7
	c-0.7-0.1-1.7-0.8-1.7-1c0-0.1-0.1-0.3-0.3-0.6c-0.1-0.3-0.3-0.6-0.3-0.8s-0.1-0.2-0.2-0.2c-0.1,0-0.2-0.1-0.2-0.1
	C58.5,1076,59.4,1075.2,59.7,1075.2z M57.1,1080.5c-0.1,0-0.1-0.1-0.1-0.3s0.1-0.3,0.1-0.3s0.1,0.1,0.1,0.3S57.2,1080.5,57.1,1080.5
	z M58.5,1082.7c-0.5-0.6-0.9-1-1.2-1.7c0.4-0.2,0.8-0.1,1.7-0.1c1.7,0,2-0.1,3.7-0.6c1.3-0.4,3.2-1.4,4.4-2.3
	c0.9-0.7,1.3-1.1,1.9-1.9c0.4-0.6,0.6-0.7,0.6-0.3c0,0.1,0,0.3,0.1,0.3c0.1,0,0.2,0.2,0.3,0.6c0.2,0.5,0.2,0.6,0,1.1
	c-0.7,1.7-4.9,4.2-8.4,5C60.8,1082.9,58.9,1083,58.5,1082.7z M65.8,1084.3c0-0.3-0.1-0.6-0.1-0.6s-0.1-0.2-0.1-0.3
	c0-0.2-0.3-0.5-0.6-0.5c-0.2,0-0.8-0.6-0.8-0.7c0,0,0.1-0.1,0.1-0.1c0.2,0,2.2-1,3.1-1.6c0.6-0.4,0.8-0.4,1-0.3
	c0.3,0.1,0.3,0.2,0.4,0.6c0,0.4,0,0.5-0.5,1c-0.6,0.6-0.7,0.9-0.4,1.7c0.2,0.5,0.1,0.5-1,1.2C65.9,1085.2,65.8,1085.2,65.8,1084.3z"
	/>
<g>
	<g>
		<path fill="#D4145A" d="M107,195h-6v-6h3l1-1h-5v8h8v-5l-1,1V195z M106.3,186l1.5,1.5l-5.2,5.2l0.7,0.7l5.2-5.2l1.5,1.5V186H106.3
			z"/>
	</g>
</g>
<g>
	<g>
		<rect x="144" y="145" fill="#FFFFFF" width="22" height="3"/>
	</g>
	<g>
		<rect x="144" y="138" fill="#FFFFFF" width="22" height="3"/>
	</g>
	<g>
		<rect x="144" y="131" fill="#FFFFFF" width="22" height="3"/>
	</g>
</g>
<path fill="#CFCFCF" d="M199,1154h-40c-1.7,0-3,1.3-3,3v24c0,1.7,1.3,3,3,3h40c1.7,0,3-1.3,3-3v-24C202,1155.3,200.7,1154,199,1154z
	"/>
<path fill="#0DA6E0" d="M150,1181c0,1.7-1.3,3-3,3h-40c-1.7,0-3-1.3-3-3v-24c0-1.7,1.3-3,3-3h40c1.7,0,3,1.3,3,3V1181z"/>
<path fill="#000066" d="M95,1154H55c-1.7,0-3,1.3-3,3v24c0,1.7,1.3,3,3,3h40c1.7,0,3-1.3,3-3v-24C98,1155.3,96.7,1154,95,1154z"/>
<path opacity="0.9" fill="#FFFFFF" enable-background="new    " d="M111.3,1164.8l-0.8-2l-0.8,2 M128.8,1164
	c-0.2,0.1-0.4,0.1-0.6,0.1h-1.4v-1.1h1.4c0.2,0,0.4,0,0.6,0.1c0.1,0.1,0.2,0.2,0.2,0.4C129.1,1163.8,129,1164,128.8,1164
	 M138.9,1164.8l-0.8-2l-0.8,2H138.9z M120.1,1167H119v-3.9l-1.7,3.9h-1l-1.7-3.9v3.9h-2.4l-0.4-1.1h-2.4l-0.4,1.1h-1.3l2.1-5h1.7
	l2,4.8v-4.8h1.9l1.5,3.4l1.4-3.4h1.9L120.1,1167z M124.9,1167H121v-5h3.9v1h-2.7v0.9h2.6v1h-2.6v1h2.7V1167z M130.4,1163.3
	c0,0.8-0.5,1.2-0.8,1.3c0.3,0.1,0.5,0.3,0.6,0.4c0.2,0.3,0.2,0.5,0.2,0.9v1h-1.2v-0.6c0-0.3,0-0.7-0.2-1c-0.2-0.2-0.4-0.2-0.8-0.2
	H127v1.9h-1.2v-5h2.7c0.6,0,1,0,1.4,0.2C130.1,1162.5,130.4,1162.8,130.4,1163.3 M132.2,1167H131v-5h1.2V1167z M146,1167h-1.7
	l-2.2-3.8v3.8h-2.4l-0.5-1.1h-2.4l-0.4,1.1H135c-0.6,0-1.3-0.1-1.7-0.6c-0.4-0.4-0.6-1-0.6-1.9c0-0.8,0.1-1.4,0.6-2
	c0.4-0.4,1-0.6,1.8-0.6h1.1v1.1h-1.1c-0.4,0-0.7,0.1-0.9,0.3c-0.2,0.2-0.3,0.6-0.3,1.1s0.1,0.9,0.3,1.2c0.2,0.2,0.5,0.3,0.8,0.3h0.5
	l1.6-3.9h1.7l2,4.8v-4.8h1.8l2,3.5v-3.5h1.2L146,1167z M107.6,1168h2l0.4-1.1h1l0.5,1.1h3.9v-0.8l0.4,0.9h2l0.3-0.9v0.8h9.7v-1.8
	h0.2c0.1,0,0.2,0,0.2,0.2v1.6h5v-0.4c0.4,0.2,1,0.4,1.9,0.4h2.1l0.4-1.1h1l0.4,1.1h4.1v-1.1l0.6,1.1h3.3v-7h-3.2v0.8l-0.5-0.8H140
	v0.8l-0.4-0.8h-4.5c-0.8,0-1.4,0.1-1.9,0.4v-0.4h-3.1v0.4c-0.3-0.3-0.8-0.4-1.3-0.4h-11.3l-0.7,1.8l-0.8-1.8h-3.6v0.8l-0.4-0.8h-3
	l-1.4,3.3l-1.6,3.7H107.6L107.6,1168z M146.6,1173.2v-3.2h-2.8c-0.6,0-1.1,0.2-1.4,0.4v-0.4h-3.1c-0.5,0-1.1,0.1-1.3,0.4v-0.4h-5.5
	v0.4c-0.4-0.3-1.2-0.4-1.5-0.4h-3.6v0.4c-0.3-0.4-1.1-0.4-1.6-0.4h-4l-0.9,1.1l-0.9-1.1h-6v7h5.9l1-1.1l0.9,1.1h3.6v-1.6h0.4
	c0.5,0,1.1,0,1.6-0.2v1.8h3v-1.8h0.1c0.2,0,0.2,0,0.2,0.2v1.6h9.1c0.6,0,1.2-0.2,1.5-0.4v0.4h2.9c0.6,0,1.2-0.1,1.6-0.3
	c0.7-0.4,1.1-1.2,1.1-2.1C147,1174.1,146.9,1173.6,146.6,1173.2L146.6,1173.2z M125.8,1174.3h-1.4v1.7h-2.2l-1.4-1.7l-1.4,1.7H115
	v-5h4.5l1.4,1.6l1.4-1.6h3.6c0.9,0,1.9,0.3,1.9,1.7C127.8,1174,126.8,1174.3,125.8,1174.3z M132.6,1174.1c0.2,0.2,0.2,0.5,0.2,0.9v1
	h-1.1v-0.6c0-0.3,0-0.7-0.2-1c-0.2-0.2-0.4-0.2-0.8-0.2h-1.2v1.8h-1.1v-5h2.6c0.6,0,1,0,1.3,0.2c0.4,0.2,0.6,0.5,0.6,1.1
	c0,0.8-0.5,1.2-0.8,1.3L132.6,1174.1z M137.2,1172h-2.6v0.9h2.6v1h-2.6v1h2.6v1h-3.7v-5h3.7V1172z M140,1176h-2.2v-1.1h2.2
	c0.2,0,0.4,0,0.5-0.1c0.1-0.1,0.1-0.2,0.1-0.3s-0.1-0.3-0.1-0.3c-0.1-0.1-0.2-0.1-0.4-0.1c-1,0-2.4,0-2.4-1.6c0-0.7,0.4-1.5,1.6-1.5
	h2.2v1.1h-2c-0.2,0-0.3,0-0.5,0.1c-0.1,0.1-0.2,0.2-0.2,0.4c0,0.2,0.1,0.3,0.2,0.4c0.1,0,0.2,0.1,0.4,0.1h0.6c0.6,0,1,0.1,1.3,0.4
	c0.2,0.2,0.3,0.6,0.3,1.1C141.8,1175.5,141.2,1176,140,1176z M145.8,1175.5c-0.3,0.3-0.8,0.5-1.4,0.5h-2.2v-1.1h2.1
	c0.2,0,0.4,0,0.5-0.1c0.1-0.1,0.1-0.2,0.1-0.3s-0.1-0.3-0.1-0.3c-0.1-0.1-0.2-0.1-0.4-0.1c-1,0-2.4,0-2.4-1.6c0-0.7,0.4-1.5,1.6-1.5
	h2.2v1.1h-2c-0.2,0-0.3,0-0.5,0.1c-0.1,0.1-0.2,0.2-0.2,0.4c0,0.2,0.1,0.3,0.2,0.4c0.1,0,0.2,0.1,0.4,0.1h0.6c0.6,0,1,0.1,1.3,0.4
	l0.1,0.1v-0.1c0.2,0.3,0.3,0.6,0.3,1C146.2,1174.9,146,1175.2,145.8,1175.5z M118.9,1172l1.2,1.5l-1.3,1.5H116v-1h2.5v-1H116v-1
	H118.9z M121.6,1173.5l1.7-2v4L121.6,1173.5z M126.6,1172.7c0,0.4-0.3,0.7-0.7,0.7h-1.4v-1.4h1.5
	C126.3,1172,126.6,1172.2,126.6,1172.7z M131.6,1172.6c0,0.2-0.1,0.4-0.2,0.5c-0.2,0.1-0.3,0.1-0.6,0.1h-1.4v-1.2h1.4
	c0.2,0,0.4,0,0.5,0.1C131.5,1172.2,131.6,1172.4,131.6,1172.6z"/>
<path fill="#FFFFFF" d="M199,1155c1.1,0,2,0.9,2,2v24c0,1.1-0.9,2-2,2h-40c-1.1,0-2-0.9-2-2v-24c0-1.1,0.9-2,2-2H199"/>
<linearGradient id="SVGID_1_" gradientUnits="userSpaceOnUse" x1="184.9" y1="1934.943" x2="184.9" y2="1915.614" gradientTransform="matrix(1 0 0 1 0 -752)">
	<stop  offset="0" style="stop-color:#FC6604"/>
	<stop  offset="1" style="stop-color:#EE7F00"/>
</linearGradient>
<path fill="url(#SVGID_1_)" d="M168.8,1183H199c1.1,0,2-0.9,2-2v-15C196.3,1171.4,186.2,1180,168.8,1183z"/>
<path fill="#1A171B" d="M161.6,1159.7h-1.8v6.4h1.8c1,0,1.7-0.2,2.3-0.7c0.7-0.6,1.2-1.5,1.2-2.5
	C165,1161,163.6,1159.7,161.6,1159.7z M163.1,1164.5c-0.4,0.4-0.9,0.5-1.7,0.5h-0.3v-4.2h0.3c0.8,0,1.3,0.1,1.7,0.5
	c0.4,0.4,0.7,1,0.7,1.6S163.5,1164.1,163.1,1164.5z M165.6,1159.7h1.3v6.4h-1.3V1159.7z M169.9,1162.1c-0.8-0.3-1-0.5-1-0.8
	c0-0.4,0.4-0.7,0.9-0.7c0.4,0,0.7,0.2,1,0.5l0.7-0.9c-0.5-0.5-1.2-0.7-1.9-0.7c-1.1,0-2,0.8-2,1.8c0,0.9,0.4,1.3,1.6,1.8
	c0.5,0.2,0.7,0.3,0.9,0.4c0.2,0.2,0.4,0.4,0.4,0.7c0,0.5-0.4,0.9-1,0.9s-1.1-0.3-1.4-0.9l-0.8,0.8c0.6,0.8,1.3,1.2,2.2,1.2
	c1.3,0,2.2-0.9,2.2-2.1C171.8,1163.1,171.4,1162.7,169.9,1162.1L169.9,1162.1z M172.2,1162.9c0,1.9,1.5,3.3,3.4,3.3
	c0.5,0,1-0.1,1.6-0.4v-1.5c-0.5,0.5-0.9,0.7-1.5,0.7c-1.3,0-2.2-0.9-2.2-2.2c0-1.2,0.9-2.2,2.1-2.2c0.6,0,1,0.2,1.6,0.7v-1.5
	c-0.6-0.3-1-0.4-1.5-0.4C173.7,1159.5,172.2,1161,172.2,1162.9z M187,1164l-1.7-4.3H184l2.7,6.6h0.7l2.8-6.6h-1.4L187,1164z
	 M190.7,1166.1h3.5v-1.1H192v-1.7h2.2v-1.1H192v-1.4h2.3v-1.1h-3.5v6.4H190.7z M199.2,1161.6c0-1.2-0.8-1.9-2.3-1.9H195v6.4h1.2
	v-2.6h0.2l1.7,2.6h1.5l-2-2.7C198.7,1163.2,199.2,1162.6,199.2,1161.6L199.2,1161.6z M196.7,1162.6h-0.4v-1.9h0.4
	c0.8,0,1.2,0.3,1.2,0.9C197.9,1162.3,197.5,1162.6,196.7,1162.6z"/>
<circle fill="#EF8600" cx="180.9" cy="1162.9" r="3.4"/>
<path opacity="0.7" fill="#2D2D2C" enable-background="new    " d="M166.4,1172.8v-3.2l2.2,2.3v-2.1h0.5v3.2l-2.2-2.3v2.1H166.4z
	 M172.2,1170.3H171v0.7h1.2v0.4H171v1h1.2v0.4h-1.7v-3h1.7V1170.3z M174.4,1170.3v2.6H174v-2.6h-0.7v-0.4h1.8v0.4H174.4z
	 M176.7,1169.8l0.8,2l0.8-2.2l0.8,2.2l0.8-2h0.5l-1.4,3.2l-0.8-2.1l-0.8,2.1l-1.3-3.2H176.7z M181.3,1171.3c0-0.4,0.2-0.8,0.5-1.1
	c0.3-0.3,0.7-0.5,1.1-0.5c0.4,0,0.8,0.2,1.1,0.5c0.3,0.3,0.5,0.7,0.5,1.1c0,0.4-0.2,0.8-0.5,1.1c-0.3,0.3-0.7,0.5-1.1,0.5
	c-0.4,0-0.7-0.1-1-0.4C181.4,1172.2,181.3,1171.8,181.3,1171.3z M181.7,1171.3c0,0.3,0.1,0.6,0.3,0.8c0.2,0.2,0.5,0.3,0.8,0.3
	c0.3,0,0.6-0.1,0.8-0.3c0.2-0.2,0.3-0.5,0.3-0.8c0-0.3-0.1-0.6-0.3-0.8c-0.2-0.2-0.5-0.3-0.8-0.3c-0.3,0-0.6,0.1-0.8,0.3
	C181.8,1170.7,181.7,1171,181.7,1171.3z M186.8,1171.6l0.9,1.3h-0.6l-0.9-1.2h-0.1v1.2h-0.5v-3h0.5c0.4,0,0.7,0.1,0.9,0.2
	c0.2,0.2,0.3,0.4,0.3,0.7c0,0.2-0.1,0.4-0.2,0.6C187.2,1171.4,187,1171.5,186.8,1171.6z M186.2,1171.2L186.2,1171.2
	c0.5,0,0.7-0.2,0.7-0.5c0-0.3-0.2-0.5-0.6-0.5h-0.2v1H186.2z M189.5,1171l1.2-1.2h0.6l-1.4,1.4l1.4,1.7h-0.6l-1.1-1.3l-0.1,0.1v1.2
	H189v-3h0.5V1171z"/>
<path fill="#FF9900" d="M95,1169c0,6.6-5.4,12-12,12s-12-5.4-12-12s5.4-12,12-12C89.7,1157,95,1162.4,95,1169z"/>
<path fill="#CC0000" d="M66.9,1157c-6.6,0-11.9,5.4-11.9,12s5.4,12,12,12c3.1,0,5.9-1.2,8.1-3.1c0.4-0.4,0.8-0.8,1.2-1.3h-2.5
	l-0.9-1.2h4.2c0.3-0.4,0.5-0.8,0.7-1.3h-5.6c-0.2-0.4-0.4-0.8-0.5-1.3h6.6c0.4-1.2,0.6-2.5,0.6-3.8c0-0.9-0.1-1.7-0.3-2.6h-7.3
	c0.1-0.4,0.2-0.8,0.3-1.3h6.6c-0.1-0.4-0.3-0.9-0.5-1.3h-5.6c0.2-0.4,0.4-0.9,0.7-1.3H77l-0.9-1.3h-2.4l1.2-1.2
	C72.9,1158.2,70.1,1157,66.9,1157L66.9,1157z"/>
<g>
	<path fill="#FFFFFF" d="M71.3,1172.1l0.2-1.1h-0.3c-0.4,0-0.5-0.2-0.5-0.4l0.4-2.2h0.7l0.2-1.2h-0.6l0.1-0.7H70
		c0,0-0.8,4.2-0.8,4.7c0,0.8,0.4,1.1,1,1.1C70.8,1172.2,71.1,1172.1,71.3,1172.1L71.3,1172.1z M71.7,1170c0,1.8,1.2,2.2,2.2,2.2
		c0.9,0,1.3-0.2,1.3-0.2l0.2-1.2c0,0-0.7,0.3-1.4,0.3c-1.4,0-1.1-1-1.1-1h2.6c0,0,0.2-0.8,0.2-1.2c0-0.8-0.4-1.9-1.8-1.9
		C72.6,1167,71.7,1168.4,71.7,1170z M73.9,1168.2c0.7,0,0.6,0.8,0.6,0.9h-1.4C73.1,1169,73.2,1168.2,73.9,1168.2z M82,1172.1
		l0.2-1.4c0,0-0.6,0.3-1.1,0.3c-0.9,0-1.3-0.7-1.3-1.4c0-1.5,0.8-2.3,1.6-2.3c0.7,0,1.2,0.4,1.2,0.4l0.2-1.4c0,0-0.8-0.3-1.4-0.3
		c-1.5,0-2.9,1.3-2.9,3.7c0,1.6,0.8,2.6,2.3,2.6C81.3,1172.2,82,1172.1,82,1172.1L82,1172.1z M64.2,1167.1c-0.9,0-1.5,0.3-1.5,0.3
		l-0.2,1.1c0,0,0.6-0.2,1.4-0.2c0.5,0,0.8,0.1,0.8,0.4v0.3h-0.5c-1.1,0-2.3,0.5-2.3,1.9c0,1.1,0.8,1.4,1.2,1.4
		c0.9,0,1.3-0.6,1.3-0.6v0.5h1.1l0.5-3.5C66,1167.1,64.7,1167.1,64.2,1167.1z M64.5,1169.9c0,0.2-0.1,1.2-0.9,1.2
		c-0.4,0-0.5-0.3-0.5-0.5c0-0.3,0.2-0.8,1.1-0.8L64.5,1169.9z M67.2,1172.2c0.3,0,1.9,0.1,1.9-1.6c0-1.6-1.5-1.3-1.5-1.9
		c0-0.3,0.2-0.4,0.7-0.4c0.2,0,0.9,0.1,0.9,0.1l0.2-1.1c0,0-0.4-0.1-1.2-0.1c-0.9,0-1.9,0.4-1.9,1.7c0,1.5,1.6,1.3,1.6,1.9
		c0,0.4-0.4,0.4-0.8,0.4c-0.6,0-1.1-0.2-1.1-0.2l-0.2,1.1C65.8,1172,66.1,1172.2,67.2,1172.2z M92.6,1166l-0.3,1.7
		c0,0-0.5-0.7-1.2-0.7c-1.2,0-2.1,1.4-2.1,3c0,1,0.5,2.1,1.6,2.1c0.8,0,1.2-0.5,1.2-0.5l-0.1,0.5h1.2l1-6.1H92.6z M92,1169.4
		c0,0.7-0.3,1.6-1,1.6c-0.5,0-0.7-0.4-0.7-1c0-1,0.4-1.6,1-1.6C91.8,1168.3,92,1168.6,92,1169.4z M57.3,1172.1l0.8-4.6l0.1,4.6h0.9
		l1.6-4.6l-0.7,4.6h1.3l1-6.1h-2l-1.3,3.8v-3.8h-1.9l-1,6.1H57.3z M77,1172.1c0.4-2.1,0.4-3.8,1.3-3.5c0.2-0.8,0.3-1.1,0.5-1.5h-0.2
		c-0.6,0-1,0.8-1,0.8l0.1-0.7h-1.2l-0.8,5L77,1172.1z M84.9,1167.1c-0.9,0-1.5,0.3-1.5,0.3l-0.2,1.1c0,0,0.6-0.2,1.4-0.2
		c0.5,0,0.8,0.1,0.8,0.4v0.3h-0.5c-1.1,0-2.3,0.5-2.3,1.9c0,1.1,0.8,1.4,1.2,1.4c0.9,0,1.3-0.6,1.3-0.6v0.5h1.1l0.5-3.5
		C86.7,1167.1,85.4,1167.1,84.9,1167.1z M85.2,1169.9c0,0.2-0.1,1.2-0.9,1.2c-0.4,0-0.5-0.3-0.5-0.5c0-0.3,0.2-0.8,1.1-0.8
		L85.2,1169.9z M87.7,1172.1c0.4-2.1,0.4-3.8,1.3-3.5c0.2-0.8,0.3-1.1,0.5-1.5h-0.2c-0.6,0-1,0.8-1,0.8l0.1-0.7h-1.2l-0.8,5
		L87.7,1172.1z"/>
</g>
<path fill="#CFCFCF" d="M43,1154H3c-1.7,0-3,1.3-3,3v24c0,1.6,1.3,3,3,3h40c1.7,0,3-1.4,3-3v-24C46,1155.3,44.7,1154,43,1154z"/>
<path fill="#FFFFFF" d="M43,1155c1.1,0,2,0.9,2,2v24c0,1.1-0.9,2-2,2H3c-1.1,0-2-0.9-2-2v-24c0-1.1,0.9-2,2-2H43"/>
<path fill="#0F38AA" d="M16.9,1175l2-13h3.3l-2,13H16.9z M32,1162.5c-0.6-0.3-1.7-0.5-2.9-0.5c-3.2,0-5.5,1.7-5.5,4.2
	c0,1.8,1.6,2.8,2.9,3.4s1.7,1,1.7,1.6c0,0.8-1,1.2-1.9,1.2c-1.3,0-2-0.2-3.1-0.7l-0.4-0.2l-0.5,2.8c0.8,0.4,2.2,0.7,3.6,0.7
	c3.4,0,5.6-1.7,5.7-4.3c0-1.4-0.9-2.5-2.7-3.4c-1.1-0.6-1.8-1-1.8-1.6c0-0.5,0.6-1.1,1.9-1.1c1.1,0,1.8,0.2,2.4,0.5l0.3,0.1
	C31.6,1165.3,32,1162.5,32,1162.5z M38.2,1162c-0.7,0-1.2,0.3-1.6,1.1l-4.4,11.9h3.2l0.6-2h3.8l0.4,2H43l-2.5-13H38.2z M36.8,1170.4
	c0.2-0.7,1.2-3.6,1.2-3.6l0.4-1.2l0.2,1.1l0.7,3.8L36.8,1170.4L36.8,1170.4z M10.4,1170.9l-0.3-1.8c-0.6-2.1-2.4-4.3-4.4-5.5
	l2.8,11.3h3.3l5-13h-3.3C13.5,1162,10.4,1170.9,10.4,1170.9z"/>
<path fill="#FB9905" d="M2.3,1162v0.2c4,1.1,6.7,3.8,7.8,6.9l-1.1-6c-0.2-0.8-0.8-1.1-1.5-1.1H2.3z"/>
<path fill="#CFCFCF" d="M199,1218h-40c-1.7,0-3,1.4-3,3v24c0,1.6,1.3,3,3,3h40c1.7,0,3-1.4,3-3v-24C202,1219.4,200.7,1218,199,1218z
	"/>
<path fill="#B3B3B3" d="M150,1245c0,1.6-1.3,3-3,3h-40c-1.7,0-3-1.4-3-3v-24c0-1.6,1.3-3,3-3h40c1.7,0,3,1.4,3,3V1245z"/>
<path fill="#999999" d="M95,1218H55c-1.7,0-3,1.3-3,3v24c0,1.6,1.3,3,3,3h40c1.7,0,3-1.4,3-3v-24C98,1219.3,96.7,1218,95,1218z"/>
<path opacity="0.9" fill="#FFFFFF" enable-background="new    " d="M111.3,1228.8l-0.8-2l-0.8,2 M128.8,1228
	c-0.2,0.1-0.4,0.1-0.6,0.1h-1.4v-1.1h1.4c0.2,0,0.4,0,0.6,0.1c0.1,0.1,0.2,0.2,0.2,0.4C129.1,1227.8,129,1228,128.8,1228
	 M138.9,1228.8l-0.8-2l-0.8,2H138.9z M120.1,1231H119v-3.9l-1.7,3.9h-1l-1.7-3.9v3.9h-2.4l-0.4-1.1h-2.4l-0.4,1.1h-1.3l2.1-5h1.7
	l2,4.8v-4.8h1.9l1.5,3.4l1.4-3.4h1.9L120.1,1231z M124.9,1231H121v-5h3.9v1h-2.7v0.9h2.6v1h-2.6v1h2.7V1231z M130.4,1227.3
	c0,0.8-0.5,1.2-0.8,1.3c0.3,0.1,0.5,0.3,0.6,0.4c0.2,0.3,0.2,0.5,0.2,0.9v1h-1.2v-0.6c0-0.3,0-0.7-0.2-1c-0.2-0.2-0.4-0.2-0.8-0.2
	H127v1.8h-1.2v-5h2.7c0.6,0,1,0,1.4,0.2C130.1,1226.5,130.4,1226.8,130.4,1227.3 M132.2,1231H131v-5h1.2V1231z M146,1231h-1.7
	l-2.2-3.8v3.8h-2.4l-0.5-1.1h-2.4l-0.4,1.1H135c-0.6,0-1.3-0.1-1.7-0.6c-0.4-0.4-0.6-1-0.6-1.9c0-0.8,0.1-1.4,0.6-2
	c0.4-0.4,1-0.6,1.8-0.6h1.1v1.1h-1.1c-0.4,0-0.7,0.1-0.9,0.3c-0.2,0.2-0.3,0.6-0.3,1.1s0.1,0.9,0.3,1.2c0.2,0.2,0.5,0.3,0.8,0.3h0.5
	l1.6-3.9h1.7l2,4.8v-4.8h1.8l2,3.5v-3.5h1.2L146,1231L146,1231z M107.6,1232h2l0.4-1.1h1l0.5,1.1h3.9v-0.8l0.4,0.9h2l0.3-0.9v0.9
	h9.7v-1.8h0.2c0.1,0,0.2,0,0.2,0.2v1.6h5v-0.4c0.4,0.2,1,0.4,1.9,0.4h2.1l0.4-1.1h1l0.4,1.1h4.1v-1.1l0.6,1.1h3.3v-7h-3.2v0.8
	l-0.5-0.8H140v0.8l-0.4-0.8h-4.5c-0.8,0-1.4,0.1-1.9,0.4v-0.5h-3.1v0.4c-0.3-0.3-0.8-0.4-1.3-0.4h-11.3l-0.7,1.8l-0.8-1.8h-3.6v0.8
	l-0.4-0.8h-3l-1.4,3.3l-1.6,3.7H107.6L107.6,1232z M146.6,1237.2v-3.2h-2.8c-0.6,0-1.1,0.2-1.4,0.4v-0.4h-3.1
	c-0.5,0-1.1,0.1-1.3,0.4v-0.4h-5.5v0.4c-0.4-0.3-1.2-0.4-1.5-0.4h-3.6v0.4c-0.3-0.4-1.1-0.4-1.6-0.4h-4l-0.9,1.1l-0.9-1.1h-6v7h5.9
	l1-1.1l0.9,1.1h3.6v-1.6h0.4c0.5,0,1.1,0,1.6-0.2v1.9h3v-1.8h0.1c0.2,0,0.2,0,0.2,0.2v1.6h9.1c0.6,0,1.2-0.2,1.5-0.4v0.4h2.9
	c0.6,0,1.2-0.1,1.6-0.3c0.7-0.4,1.1-1.2,1.1-2.1C147,1238.1,146.9,1237.6,146.6,1237.2L146.6,1237.2z M125.8,1238.3h-1.4v1.7h-2.2
	l-1.4-1.7l-1.4,1.7H115v-5h4.5l1.4,1.6l1.4-1.6h3.6c0.9,0,1.9,0.3,1.9,1.7C127.8,1238,126.8,1238.3,125.8,1238.3z M132.6,1238.1
	c0.2,0.2,0.2,0.5,0.2,0.9v1h-1.1v-0.6c0-0.3,0-0.7-0.2-1c-0.2-0.2-0.4-0.2-0.8-0.2h-1.2v1.8h-1.1v-5h2.6c0.6,0,1,0,1.3,0.2
	c0.4,0.2,0.6,0.5,0.6,1.1c0,0.8-0.5,1.2-0.8,1.3L132.6,1238.1z M137.2,1236h-2.6v0.9h2.6v1h-2.6v1h2.6v1h-3.7v-5h3.7V1236z
	 M140,1240h-2.2v-1.1h2.2c0.2,0,0.4,0,0.5-0.1c0.1-0.1,0.1-0.2,0.1-0.3s-0.1-0.3-0.1-0.3c-0.1-0.1-0.2-0.1-0.4-0.1
	c-1,0-2.4,0-2.4-1.6c0-0.7,0.4-1.5,1.6-1.5h2.2v1.1h-2c-0.2,0-0.3,0-0.5,0.1c-0.1,0.1-0.2,0.2-0.2,0.4s0.1,0.3,0.2,0.4
	c0.1,0,0.2,0.1,0.4,0.1h0.6c0.6,0,1,0.1,1.3,0.4c0.2,0.2,0.3,0.6,0.3,1.1C141.8,1239.5,141.2,1240,140,1240L140,1240z M145.8,1239.5
	c-0.3,0.3-0.8,0.5-1.4,0.5h-2.2v-1.1h2.1c0.2,0,0.4,0,0.5-0.1c0.1-0.1,0.1-0.2,0.1-0.3s-0.1-0.3-0.1-0.3c-0.1-0.1-0.2-0.1-0.4-0.1
	c-1,0-2.4,0-2.4-1.6c0-0.7,0.4-1.5,1.6-1.5h2.2v1.1h-2c-0.2,0-0.3,0-0.5,0.1c-0.1,0.1-0.2,0.2-0.2,0.4s0.1,0.3,0.2,0.4
	c0.1,0,0.2,0.1,0.4,0.1h0.6c0.6,0,1,0.1,1.3,0.4l0.1,0.1v-0.1c0.2,0.3,0.3,0.6,0.3,1C146.2,1238.9,146,1239.2,145.8,1239.5
	L145.8,1239.5z M118.9,1236l1.2,1.5l-1.3,1.5H116v-1h2.5v-1H116v-1H118.9z M121.6,1237.5l1.7-2v4L121.6,1237.5z M126.6,1236.7
	c0,0.4-0.3,0.7-0.7,0.7h-1.4v-1.4h1.5C126.3,1236,126.6,1236.2,126.6,1236.7z M131.6,1236.6c0,0.2-0.1,0.4-0.2,0.5
	c-0.2,0.1-0.3,0.1-0.6,0.1h-1.4v-1.2h1.4c0.2,0,0.4,0,0.5,0.1C131.5,1236.2,131.6,1236.4,131.6,1236.6L131.6,1236.6z"/>
<path fill="#FFFFFF" d="M199,1219c1.1,0,2,0.9,2,2v24c0,1.1-0.9,2-2,2h-40c-1.1,0-2-0.9-2-2v-24c0-1.1,0.9-2,2-2H199"/>
<path fill="#B3B3B3" d="M168.8,1247H199c1.1,0,2-0.9,2-2v-15C196.3,1235.4,186.2,1244,168.8,1247z"/>
<path fill="#808080" d="M161.6,1223.7h-1.8v6.4h1.8c1,0,1.7-0.2,2.3-0.7c0.7-0.6,1.2-1.5,1.2-2.5
	C165,1225,163.6,1223.7,161.6,1223.7z M163.1,1228.5c-0.4,0.4-0.9,0.5-1.7,0.5h-0.3v-4.2h0.3c0.8,0,1.3,0.1,1.7,0.5
	c0.4,0.4,0.7,1,0.7,1.6S163.5,1228.1,163.1,1228.5L163.1,1228.5z M165.6,1223.7h1.3v6.4h-1.3V1223.7z M169.9,1226.1
	c-0.8-0.3-1-0.5-1-0.8c0-0.4,0.4-0.7,0.9-0.7c0.4,0,0.7,0.2,1,0.5l0.7-0.9c-0.5-0.5-1.2-0.7-1.9-0.7c-1.1,0-2,0.8-2,1.8
	c0,0.9,0.4,1.3,1.6,1.8c0.5,0.2,0.7,0.3,0.9,0.4c0.2,0.2,0.4,0.4,0.4,0.7c0,0.5-0.4,0.9-1,0.9s-1.1-0.3-1.4-0.9l-0.8,0.8
	c0.6,0.8,1.3,1.2,2.2,1.2c1.3,0,2.2-0.9,2.2-2.1C171.8,1227.1,171.4,1226.7,169.9,1226.1L169.9,1226.1z M172.2,1226.9
	c0,1.9,1.5,3.3,3.4,3.3c0.5,0,1-0.1,1.6-0.4v-1.5c-0.5,0.5-0.9,0.7-1.5,0.7c-1.3,0-2.2-0.9-2.2-2.2c0-1.2,0.9-2.2,2.1-2.2
	c0.6,0,1,0.2,1.6,0.7v-1.5c-0.6-0.3-1-0.4-1.5-0.4C173.7,1223.5,172.2,1225,172.2,1226.9L172.2,1226.9z M187,1228l-1.7-4.3H184
	l2.7,6.6h0.7l2.8-6.6h-1.4L187,1228z M190.7,1230.1h3.5v-1.1H192v-1.7h2.2v-1.1H192v-1.4h2.3v-1.1h-3.5v6.4H190.7z M199.2,1225.6
	c0-1.2-0.8-1.9-2.3-1.9H195v6.4h1.2v-2.6h0.2l1.7,2.6h1.5l-2-2.7C198.7,1227.2,199.2,1226.6,199.2,1225.6L199.2,1225.6z
	 M196.7,1226.6h-0.4v-1.9h0.4c0.8,0,1.2,0.3,1.2,0.9C197.9,1226.3,197.5,1226.6,196.7,1226.6z"/>
<circle fill="#B3B3B3" cx="180.9" cy="1226.9" r="3.4"/>
<path opacity="0.7" fill="#2D2D2C" enable-background="new    " d="M166.4,1236.8v-3.2l2.2,2.3v-2.1h0.5v3.2l-2.2-2.3v2.1H166.4z
	 M172.2,1234.3H171v0.7h1.2v0.4H171v1h1.2v0.4h-1.7v-3h1.7V1234.3L172.2,1234.3z M174.4,1234.3v2.6H174v-2.6h-0.7v-0.4h1.8v0.4
	H174.4z M176.7,1233.8l0.8,2l0.8-2.2l0.8,2.2l0.8-2h0.5l-1.4,3.2l-0.8-2.1l-0.8,2.1l-1.3-3.2H176.7z M181.3,1235.3
	c0-0.4,0.2-0.8,0.5-1.1c0.3-0.3,0.7-0.5,1.1-0.5c0.4,0,0.8,0.2,1.1,0.5c0.3,0.3,0.5,0.7,0.5,1.1c0,0.4-0.2,0.8-0.5,1.1
	c-0.3,0.3-0.7,0.5-1.1,0.5c-0.4,0-0.7-0.1-1-0.4C181.4,1236.2,181.3,1235.8,181.3,1235.3L181.3,1235.3z M181.7,1235.3
	c0,0.3,0.1,0.6,0.3,0.8c0.2,0.2,0.5,0.3,0.8,0.3c0.3,0,0.6-0.1,0.8-0.3c0.2-0.2,0.3-0.5,0.3-0.8c0-0.3-0.1-0.6-0.3-0.8
	c-0.2-0.2-0.5-0.3-0.8-0.3c-0.3,0-0.6,0.1-0.8,0.3C181.8,1234.7,181.7,1235,181.7,1235.3z M186.8,1235.6l0.9,1.3h-0.6l-0.9-1.2h-0.1
	v1.2h-0.5v-3h0.5c0.4,0,0.7,0.1,0.9,0.2c0.2,0.2,0.3,0.4,0.3,0.7c0,0.2-0.1,0.4-0.2,0.6C187.2,1235.4,187,1235.5,186.8,1235.6z
	 M186.2,1235.2L186.2,1235.2c0.5,0,0.7-0.2,0.7-0.5c0-0.3-0.2-0.5-0.6-0.5h-0.2v1H186.2z M189.5,1235l1.2-1.2h0.6l-1.4,1.4l1.4,1.7
	h-0.6l-1.1-1.3l-0.1,0.1v1.2H189v-3h0.5V1235z"/>
<path fill="#E6E6E6" d="M95,1233c0,6.6-5.4,12-12,12s-12-5.4-12-12s5.4-12,12-12C89.7,1221,95,1226.4,95,1233z"/>
<path fill="#B3B3B3" d="M66.9,1221c-6.6,0-11.9,5.4-11.9,12s5.4,12,12,12c3.1,0,5.9-1.2,8.1-3.1c0.4-0.4,0.8-0.8,1.2-1.3h-2.5
	l-0.9-1.2h4.2c0.3-0.4,0.5-0.8,0.7-1.3h-5.6c-0.2-0.4-0.4-0.8-0.5-1.3h6.6c0.4-1.2,0.6-2.5,0.6-3.8c0-0.9-0.1-1.7-0.3-2.6h-7.3
	c0.1-0.4,0.2-0.8,0.3-1.3h6.6c-0.1-0.4-0.3-0.9-0.5-1.3h-5.6c0.2-0.4,0.4-0.9,0.7-1.3H77l-0.9-1.3h-2.4l1.2-1.2
	C72.9,1222.2,70.1,1221,66.9,1221L66.9,1221z"/>
<g>
	<path fill="#FFFFFF" d="M71.3,1236.1l0.2-1.1h-0.3c-0.4,0-0.5-0.2-0.5-0.4l0.4-2.2h0.7l0.2-1.2h-0.6l0.1-0.7H70
		c0,0-0.8,4.2-0.8,4.7c0,0.8,0.4,1.1,1,1.1C70.8,1236.2,71.1,1236.1,71.3,1236.1L71.3,1236.1z M71.7,1234c0,1.8,1.2,2.2,2.2,2.2
		c0.9,0,1.3-0.2,1.3-0.2l0.2-1.2c0,0-0.7,0.3-1.4,0.3c-1.4,0-1.1-1-1.1-1h2.6c0,0,0.2-0.8,0.2-1.2c0-0.8-0.4-1.9-1.8-1.9
		C72.6,1231,71.7,1232.4,71.7,1234L71.7,1234z M73.9,1232.2c0.7,0,0.6,0.8,0.6,0.9h-1.4C73.1,1233,73.2,1232.2,73.9,1232.2z
		 M82,1236.1l0.2-1.4c0,0-0.6,0.3-1.1,0.3c-0.9,0-1.3-0.7-1.3-1.4c0-1.5,0.8-2.3,1.6-2.3c0.7,0,1.2,0.4,1.2,0.4l0.2-1.4
		c0,0-0.8-0.3-1.4-0.3c-1.5,0-2.9,1.3-2.9,3.7c0,1.6,0.8,2.6,2.3,2.6C81.3,1236.2,82,1236.1,82,1236.1L82,1236.1z M64.2,1231.1
		c-0.9,0-1.5,0.3-1.5,0.3l-0.2,1.1c0,0,0.6-0.2,1.4-0.2c0.5,0,0.8,0.1,0.8,0.4v0.3h-0.5c-1.1,0-2.3,0.5-2.3,1.9
		c0,1.1,0.8,1.4,1.2,1.4c0.9,0,1.3-0.6,1.3-0.6v0.5h1.1l0.5-3.5C66,1231.1,64.7,1231.1,64.2,1231.1L64.2,1231.1z M64.5,1233.9
		c0,0.2-0.1,1.2-0.9,1.2c-0.4,0-0.5-0.3-0.5-0.5c0-0.3,0.2-0.8,1.1-0.8L64.5,1233.9z M67.2,1236.2c0.3,0,1.9,0.1,1.9-1.6
		c0-1.6-1.5-1.3-1.5-1.9c0-0.3,0.2-0.4,0.7-0.4c0.2,0,0.9,0.1,0.9,0.1l0.2-1.1c0,0-0.4-0.1-1.2-0.1c-0.9,0-1.9,0.4-1.9,1.7
		c0,1.5,1.6,1.3,1.6,1.9c0,0.4-0.4,0.4-0.8,0.4c-0.6,0-1.1-0.2-1.1-0.2l-0.2,1.1C65.8,1236,66.1,1236.2,67.2,1236.2z M92.6,1230
		l-0.3,1.7c0,0-0.5-0.7-1.2-0.7c-1.2,0-2.1,1.4-2.1,3c0,1,0.5,2.1,1.6,2.1c0.8,0,1.2-0.5,1.2-0.5l-0.1,0.5h1.2l1-6.1H92.6z
		 M92,1233.4c0,0.7-0.3,1.6-1,1.6c-0.5,0-0.7-0.4-0.7-1c0-1,0.4-1.6,1-1.6C91.8,1232.3,92,1232.6,92,1233.4z M57.3,1236.1l0.8-4.6
		l0.1,4.6h0.9l1.6-4.6l-0.7,4.6h1.3l1-6.1h-2l-1.3,3.7v-3.7h-1.9l-1,6.1H57.3z M77,1236.1c0.4-2.1,0.4-3.8,1.3-3.5
		c0.2-0.8,0.3-1.1,0.5-1.5h-0.2c-0.6,0-1,0.8-1,0.8l0.1-0.7h-1.2l-0.8,5L77,1236.1z M84.9,1231.1c-0.9,0-1.5,0.3-1.5,0.3l-0.2,1.1
		c0,0,0.6-0.2,1.4-0.2c0.5,0,0.8,0.1,0.8,0.4v0.3h-0.5c-1.1,0-2.3,0.5-2.3,1.9c0,1.1,0.8,1.4,1.2,1.4c0.9,0,1.3-0.6,1.3-0.6v0.5h1.1
		l0.5-3.5C86.7,1231.1,85.4,1231.1,84.9,1231.1L84.9,1231.1z M85.2,1233.9c0,0.2-0.1,1.2-0.9,1.2c-0.4,0-0.5-0.3-0.5-0.5
		c0-0.3,0.2-0.8,1.1-0.8L85.2,1233.9z M87.7,1236.1c0.4-2.1,0.4-3.8,1.3-3.5c0.2-0.8,0.3-1.1,0.5-1.5h-0.2c-0.6,0-1,0.8-1,0.8
		l0.1-0.7h-1.2l-0.8,5L87.7,1236.1z"/>
</g>
<path fill="#CFCFCF" d="M43,1218H3c-1.7,0-3,1.3-3,3v24c0,1.7,1.3,3,3,3h40c1.7,0,3-1.3,3-3v-24C46,1219.3,44.7,1218,43,1218z"/>
<path fill="#FFFFFF" d="M43,1219c1.1,0,2,0.9,2,2v24c0,1.1-0.9,2-2,2H3c-1.1,0-2-0.9-2-2v-24c0-1.1,0.9-2,2-2H43"/>
<path fill="#999999" d="M16.9,1239l2-13h3.3l-2,13H16.9z M32,1226.5c-0.6-0.3-1.7-0.5-2.9-0.5c-3.2,0-5.5,1.7-5.5,4.2
	c0,1.8,1.6,2.8,2.9,3.4s1.7,1,1.7,1.6c0,0.8-1,1.2-1.9,1.2c-1.3,0-2-0.2-3.1-0.7l-0.4-0.2l-0.5,2.8c0.8,0.4,2.2,0.7,3.6,0.7
	c3.4,0,5.6-1.7,5.7-4.3c0-1.4-0.9-2.5-2.7-3.4c-1.1-0.6-1.8-1-1.8-1.6c0-0.5,0.6-1.1,1.9-1.1c1.1,0,1.8,0.2,2.4,0.5l0.3,0.1
	C31.6,1229.3,32,1226.5,32,1226.5z M38.2,1226c-0.7,0-1.2,0.3-1.6,1.1l-4.4,11.9h3.2l0.6-2h3.8l0.4,2H43l-2.5-13H38.2z M36.8,1234.4
	c0.2-0.7,1.2-3.6,1.2-3.6l0.4-1.2l0.2,1.1l0.7,3.8L36.8,1234.4L36.8,1234.4z M10.4,1234.9l-0.3-1.8c-0.6-2.1-2.4-4.3-4.4-5.5
	l2.8,11.3h3.3l5-13h-3.3C13.5,1226,10.4,1234.9,10.4,1234.9z"/>
<path fill="#CCCCCC" d="M2.3,1226v0.2c4,1.1,6.7,3.8,7.8,6.9l-1.1-6c-0.2-0.8-0.8-1.1-1.5-1.1H2.3z"/>
<path opacity="0.1" enable-background="new    " d="M0,1346.6v2.4l18.5-10.1L37,1349v-2.4l-18.5-10.1L0,1346.6z"/>
<linearGradient id="SVGID_2_" gradientUnits="userSpaceOnUse" x1="18.5" y1="-477.375" x2="18.5" y2="-482.75" gradientTransform="matrix(1 0 0 -1 0 802)">
	<stop  offset="0" style="stop-color:#F0B424"/>
	<stop  offset="1" style="stop-color:#EEA800"/>
</linearGradient>
<path fill="url(#SVGID_2_)" d="M37,1346.6l-18.5-10.1L0,1346.6V1280h37V1346.6z"/>
<path opacity="0.35" fill="#FFFFFF" enable-background="new    " d="M24.7,1311.5v-1.8c0-3.1-2.6-5.6-5.7-5.6s-5.7,2.5-5.7,5.6v1.8
	H12v11.5h14v-11.5H24.7z M19.9,1320h-2.2l0.6-3c-0.3-0.2-0.6-0.5-0.6-0.9c0-0.6,0.5-1.1,1.1-1.1s1.1,0.5,1.1,1.1
	c0,0.4-0.2,0.7-0.6,0.9L19.9,1320z M22.2,1311.5h-6.4v-1.8c0-1.7,1.5-3.1,3.2-3.1s3.2,1.4,3.2,3.1L22.2,1311.5z"/>
<g>
	<path id="b" fill="#9F7000" d="M24.7,1310.5v-1.8c0-3.1-2.6-5.6-5.7-5.6s-5.7,2.5-5.7,5.6v1.8H12v11.5h14v-11.5H24.7z M22.2,1310.5
		h-6.4v-1.8c0-1.7,1.5-3.1,3.2-3.1s3.2,1.4,3.2,3.1L22.2,1310.5z"/>
</g>
<g>
	<defs>
		<path id="SVGID_3_" d="M24.7,1310.5v-1.8c0-3.1-2.6-5.6-5.7-5.6s-5.7,2.5-5.7,5.6v1.8H12v11.5h14v-11.5H24.7z M22.2,1310.5h-6.4
			v-1.8c0-1.7,1.5-3.1,3.2-3.1s3.2,1.4,3.2,3.1L22.2,1310.5z"/>
	</defs>
	<clipPath id="SVGID_4_">
		<use xlink:href="#SVGID_3_"  overflow="visible"/>
	</clipPath>
	<path clip-path="url(#SVGID_4_)" fill="#C68C00" d="M24.7,1311.5v-1.8c0-3.1-2.6-5.6-5.7-5.6s-5.7,2.5-5.7,5.6v1.8H12v11.5h14
		v-11.5H24.7z M22.2,1311.5h-6.4v-1.8c0-1.7,1.5-3.1,3.2-3.1s3.2,1.4,3.2,3.1L22.2,1311.5z"/>
</g>
<path fill="#F6D233" d="M2,1338h1v5H2V1338z M2,1328h1v5H2V1328z M2,1318h1v5H2V1318z M2,1308h1v5H2V1308z M2,1298h1v5H2V1298z
	 M2,1288h1v5H2V1288z M2,1280h1v3H2V1280z M34,1338h1v5h-1V1338z M34,1328h1v5h-1V1328z M34,1318h1v5h-1V1318z M34,1308h1v5h-1V1308
	z M34,1298h1v5h-1V1298z M34,1288h1v5h-1V1288z M34,1280h1v3h-1V1280z"/>
<path opacity="0.25" fill="#FFFFFF" enable-background="new    " d="M19.9,1320h-2.2l0.6-3c-0.3-0.2-0.6-0.5-0.6-0.9
	c0-0.6,0.5-1.1,1.1-1.1s1.1,0.5,1.1,1.1c0,0.4-0.2,0.7-0.6,0.9L19.9,1320z"/>
<path fill="#9F7000" d="M19.9,1319h-2.2l0.6-3c-0.3-0.2-0.6-0.5-0.6-0.9c0-0.6,0.5-1.1,1.1-1.1s1.1,0.5,1.1,1.1
	c0,0.4-0.2,0.7-0.6,0.9L19.9,1319z"/>
<g>
</g>
<g>
</g>
<g>
</g>
<g>
</g>
<g>
</g>
<g>
</g>
<g>
</g>
<g>
</g>
<g>
</g>
<g>
</g>
<g>
</g>
<g>
</g>
<g>
</g>
<g>
</g>
<g>
</g>
</svg>
